<svg xmlns="http://www.w3.org/2000/svg" xmlns:xlink="http://www.w3.org/1999/xlink" width="1000" zoomAndPan="magnify" viewBox="0 0 750 299.999988" height="400" preserveAspectRatio="xMidYMid meet" version="1.0"><defs><g/><clipPath id="f51403c3e4"><path d="M 147 35 L 168 35 L 168 56 L 147 56 Z M 147 35 " clip-rule="nonzero"/></clipPath><clipPath id="f65e608c5b"><path d="M 167.125 47.992188 C 165.839844 53.351562 160.453125 56.660156 155.09375 55.375 C 149.734375 54.089844 146.425781 48.707031 147.703125 43.34375 C 148.984375 37.976562 154.378906 34.675781 159.738281 35.960938 C 165.097656 37.246094 168.402344 42.628906 167.125 47.992188 " clip-rule="nonzero"/></clipPath><clipPath id="a7b0667af4"><path d="M 151 209 L 172 209 L 172 231 L 151 231 Z M 151 209 " clip-rule="nonzero"/></clipPath><clipPath id="41dc7a38fc"><path d="M 159.21875 230.125 C 153.691406 228.957031 150.160156 223.527344 151.335938 218 C 152.511719 212.476562 157.933594 208.941406 163.460938 210.117188 C 168.984375 211.292969 172.519531 216.71875 171.347656 222.242188 C 170.179688 227.769531 164.75 231.300781 159.222656 230.125 " clip-rule="nonzero"/></clipPath><clipPath id="fd082cde84"><path d="M 67 238 L 88 238 L 88 259 L 67 259 Z M 67 238 " clip-rule="nonzero"/></clipPath><clipPath id="98f19d6697"><path d="M 67.726562 245.699219 C 69.335938 240.425781 74.90625 237.445312 80.179688 239.054688 C 85.453125 240.660156 88.433594 246.234375 86.824219 251.507812 C 85.21875 256.78125 79.644531 259.757812 74.371094 258.152344 C 69.097656 256.542969 66.121094 250.972656 67.726562 245.699219 " clip-rule="nonzero"/></clipPath><clipPath id="aabe72ba67"><path d="M 133.59375 46.488281 L 154.722656 46.488281 L 154.722656 74.917969 L 133.59375 74.917969 Z M 133.59375 46.488281 " clip-rule="nonzero"/></clipPath><clipPath id="0e93e5b0c5"><path d="M 150.683594 46.8125 L 133.828125 72.058594 L 137.855469 74.75 L 154.710938 49.503906 L 150.683594 46.8125 " clip-rule="nonzero"/></clipPath><clipPath id="0d6a5a6c35"><path d="M 73.660156 31.886719 L 128.597656 31.886719 L 128.597656 92.589844 L 73.660156 92.589844 Z M 73.660156 31.886719 " clip-rule="nonzero"/></clipPath><clipPath id="4eb2b9b419"><path d="M 73.664062 36.363281 L 123.460938 92.246094 L 128.425781 87.820312 L 78.632812 31.9375 L 73.664062 36.363281 " clip-rule="nonzero"/></clipPath><clipPath id="953ac3d0fe"><path d="M 108 18 L 152.417969 18 L 152.417969 47 L 108 47 Z M 108 18 " clip-rule="nonzero"/></clipPath><clipPath id="11b07c9bf2"><path d="M 150.160156 46.875 L 152.347656 42.550781 L 133.84375 33.171875 C 134.773438 26.382812 130.070312 20.082031 123.277344 19.070312 C 116.421875 18.042969 110.039062 22.769531 109.011719 29.621094 C 107.988281 36.472656 112.71875 42.851562 119.570312 43.878906 C 124.796875 44.65625 129.746094 42.089844 132.261719 37.792969 L 150.160156 46.875 " clip-rule="nonzero"/></clipPath><clipPath id="05bd917420"><path d="M 93 54 L 145 54 L 145 106 L 93 106 Z M 93 54 " clip-rule="nonzero"/></clipPath><clipPath id="d485b4c918"><path d="M 124.773438 55.242188 C 111.109375 51.976562 97.390625 60.394531 94.121094 74.058594 C 90.855469 87.722656 99.273438 101.441406 112.9375 104.710938 C 126.601562 107.976562 140.320312 99.558594 143.589844 85.894531 C 146.855469 72.230469 138.4375 58.511719 124.773438 55.242188 " clip-rule="nonzero"/></clipPath><clipPath id="0d658eeed4"><path d="M 47 4 L 93 4 L 93 50 L 47 50 Z M 47 4 " clip-rule="nonzero"/></clipPath><clipPath id="738c4f1e1e"><path d="M 73.605469 4.730469 C 61.234375 2.882812 49.714844 11.410156 47.863281 23.777344 C 46.011719 36.144531 54.542969 47.671875 66.910156 49.519531 C 79.277344 51.371094 90.800781 42.839844 92.652344 30.472656 C 94.5 18.105469 85.972656 6.582031 73.605469 4.730469 " clip-rule="nonzero"/></clipPath><clipPath id="3a980878ca"><path d="M 80.191406 220.523438 L 102.472656 220.523438 L 102.472656 248 L 80.191406 248 Z M 80.191406 220.523438 " clip-rule="nonzero"/></clipPath><clipPath id="ba09dab0b5"><path d="M 102.414062 223.683594 L 98.554688 220.757812 L 80.203125 244.941406 L 84.066406 247.871094 L 102.414062 223.683594 " clip-rule="nonzero"/></clipPath><clipPath id="3a9dc67b12"><path d="M 107.082031 206 L 158 206 L 158 268.546875 L 107.082031 268.546875 Z M 107.082031 206 " clip-rule="nonzero"/></clipPath><clipPath id="41c264729a"><path d="M 111.480469 206.128906 L 107.132812 209.554688 L 153.460938 268.347656 L 157.804688 264.921875 L 111.480469 206.128906 " clip-rule="nonzero"/></clipPath><clipPath id="09104cb805"><path d="M 82.113281 247.800781 L 125 247.800781 L 125 278 L 82.113281 278 Z M 82.113281 247.800781 " clip-rule="nonzero"/></clipPath><clipPath id="661337d2c9"><path d="M 114.941406 252.671875 C 109.773438 251.574219 104.671875 253.835938 101.90625 257.980469 L 84.589844 247.835938 L 82.140625 252.015625 L 100.046875 262.496094 C 98.707031 269.222656 103.019531 275.785156 109.746094 277.210938 C 116.523438 278.644531 123.183594 274.316406 124.617188 267.539062 C 126.054688 260.761719 121.726562 254.105469 114.949219 252.664062 " clip-rule="nonzero"/></clipPath><clipPath id="b85bd75ce6"><path d="M 65 66 L 87 66 L 87 88 L 65 88 Z M 65 66 " clip-rule="nonzero"/></clipPath><clipPath id="6e3960ca1a"><path d="M 73.714844 87.105469 C 68.1875 85.933594 64.65625 80.507812 65.832031 74.980469 C 67.007812 69.453125 72.429688 65.921875 77.957031 67.089844 C 83.484375 68.261719 87.015625 73.6875 85.839844 79.214844 C 84.664062 84.742188 79.242188 88.273438 73.714844 87.105469 " clip-rule="nonzero"/></clipPath><clipPath id="7ac668ddca"><path d="M 92 191 L 144 191 L 144 243 L 92 243 Z M 92 191 " clip-rule="nonzero"/></clipPath><clipPath id="9657718860"><path d="M 125.242188 192.351562 C 111.800781 188.265625 97.597656 195.84375 93.503906 209.28125 C 89.414062 222.722656 96.996094 236.925781 110.4375 241.019531 C 123.875 245.109375 138.082031 237.527344 142.171875 224.085938 C 146.261719 210.648438 138.679688 196.441406 125.242188 192.351562 " clip-rule="nonzero"/></clipPath><clipPath id="876872d67d"><path d="M 140 249 L 186 249 L 186 296 L 140 296 Z M 140 249 " clip-rule="nonzero"/></clipPath><clipPath id="bb5c8abf38"><path d="M 167.84375 250.222656 C 155.609375 247.628906 143.589844 255.449219 141.003906 267.683594 C 138.414062 279.917969 146.230469 291.9375 158.457031 294.527344 C 170.6875 297.113281 182.714844 289.300781 185.304688 277.066406 C 187.898438 264.832031 180.078125 252.808594 167.84375 250.222656 " clip-rule="nonzero"/></clipPath><clipPath id="d87acc8bf1"><path d="M 45.613281 100 L 191.988281 100 L 191.988281 199 L 45.613281 199 Z M 45.613281 100 " clip-rule="nonzero"/></clipPath><clipPath id="50a9f922f8"><path d="M 191.886719 147.460938 C 191.875 146.859375 191.871094 146.265625 191.847656 145.667969 C 191.832031 145.28125 191.808594 144.894531 191.789062 144.507812 C 191.609375 141.023438 191.242188 137.519531 190.667969 133.996094 C 189.214844 125.085938 185.871094 116.839844 179.941406 109.820312 C 179.429688 109.21875 178.898438 108.640625 178.351562 108.085938 C 170.5 98.660156 161.875 98.167969 150.621094 105.957031 C 146.28125 108.957031 142.046875 112.105469 137.683594 115.0625 C 125.597656 123.253906 113.445312 123.296875 101.308594 115.160156 C 95.417969 111.210938 89.765625 106.859375 83.667969 103.265625 C 76.222656 98.871094 70.707031 98.964844 64.617188 103.398438 C 62.375 104.417969 60.246094 106.121094 58.109375 108.703125 C 51.261719 116.957031 48.265625 126.902344 46.773438 137.183594 C 46.574219 138.550781 46.417969 139.910156 46.277344 141.269531 C 45.957031 144.199219 45.804688 147.140625 45.8125 150.105469 C 45.8125 150.4375 45.824219 150.765625 45.824219 151.101562 C 45.835938 151.808594 45.847656 152.519531 45.875 153.226562 C 45.886719 153.523438 45.902344 153.808594 45.914062 154.097656 C 46.089844 157.574219 46.453125 161.070312 47.015625 164.585938 C 48.449219 173.5 51.777344 181.746094 57.6875 188.785156 C 58.144531 189.324219 58.617188 189.84375 59.101562 190.347656 C 67.058594 200.15625 75.773438 200.757812 87.175781 192.835938 C 91.511719 189.828125 95.742188 186.667969 100.097656 183.703125 C 112.164062 175.476562 124.320312 175.414062 136.472656 183.527344 C 142.375 187.464844 148.03125 191.804688 154.136719 195.386719 C 161.398438 199.648438 166.8125 199.660156 172.710938 195.554688 C 175.058594 194.566406 177.277344 192.828125 179.519531 190.144531 C 186.382812 181.910156 189.398438 171.960938 190.914062 161.6875 C 191.09375 160.460938 191.25 159.238281 191.378906 158.015625 C 191.738281 154.9375 191.90625 151.84375 191.90625 148.722656 C 191.90625 148.300781 191.894531 147.878906 191.886719 147.460938 " clip-rule="nonzero"/></clipPath><clipPath id="f5d734dc41"><path d="M 66.96875 238.25 L 88.324219 238.25 L 88.324219 259.609375 L 66.96875 259.609375 Z M 66.96875 238.25 " clip-rule="nonzero"/></clipPath><clipPath id="e62a4371eb"><path d="M 77.648438 238.25 C 71.75 238.25 66.96875 243.03125 66.96875 248.929688 C 66.96875 254.828125 71.75 259.609375 77.648438 259.609375 C 83.542969 259.609375 88.324219 254.828125 88.324219 248.929688 C 88.324219 243.03125 83.542969 238.25 77.648438 238.25 " clip-rule="nonzero"/></clipPath><clipPath id="3154bfa9e8"><path d="M 146.527344 34.589844 L 167.882812 34.589844 L 167.882812 55.945312 L 146.527344 55.945312 Z M 146.527344 34.589844 " clip-rule="nonzero"/></clipPath><clipPath id="5903342f31"><path d="M 157.207031 34.589844 C 151.308594 34.589844 146.527344 39.367188 146.527344 45.265625 C 146.527344 51.164062 151.308594 55.945312 157.207031 55.945312 C 163.105469 55.945312 167.882812 51.164062 167.882812 45.265625 C 167.882812 39.367188 163.105469 34.589844 157.207031 34.589844 " clip-rule="nonzero"/></clipPath></defs><g clip-path="url(#f51403c3e4)"><g clip-path="url(#f65e608c5b)"><path fill="#002b49" d="M 42.925781 0 L 194.679688 0 L 194.679688 300.050781 L 42.925781 300.050781 Z M 42.925781 0 " fill-opacity="1" fill-rule="nonzero"/></g></g><g clip-path="url(#a7b0667af4)"><g clip-path="url(#41dc7a38fc)"><path fill="#9bd3dd" d="M 42.925781 0 L 194.679688 0 L 194.679688 300.050781 L 42.925781 300.050781 Z M 42.925781 0 " fill-opacity="1" fill-rule="nonzero"/></g></g><g clip-path="url(#fd082cde84)"><g clip-path="url(#98f19d6697)"><path fill="#002b49" d="M 42.925781 0 L 194.679688 0 L 194.679688 300.050781 L 42.925781 300.050781 Z M 42.925781 0 " fill-opacity="1" fill-rule="nonzero"/></g></g><g clip-path="url(#aabe72ba67)"><g clip-path="url(#0e93e5b0c5)"><path fill="#5489a3" d="M 42.925781 0 L 194.679688 0 L 194.679688 300.050781 L 42.925781 300.050781 Z M 42.925781 0 " fill-opacity="1" fill-rule="nonzero"/></g></g><g clip-path="url(#0d6a5a6c35)"><g clip-path="url(#4eb2b9b419)"><path fill="#5489a3" d="M 42.925781 0 L 194.679688 0 L 194.679688 300.050781 L 42.925781 300.050781 Z M 42.925781 0 " fill-opacity="1" fill-rule="nonzero"/></g></g><g clip-path="url(#953ac3d0fe)"><g clip-path="url(#11b07c9bf2)"><path fill="#5489a3" d="M 42.925781 0 L 194.679688 0 L 194.679688 300.050781 L 42.925781 300.050781 Z M 42.925781 0 " fill-opacity="1" fill-rule="nonzero"/></g></g><g clip-path="url(#05bd917420)"><g clip-path="url(#d485b4c918)"><path fill="#01426a" d="M 42.925781 0 L 194.679688 0 L 194.679688 300.050781 L 42.925781 300.050781 Z M 42.925781 0 " fill-opacity="1" fill-rule="nonzero"/></g></g><g clip-path="url(#0d658eeed4)"><g clip-path="url(#738c4f1e1e)"><path fill="#01426a" d="M 42.925781 0 L 194.679688 0 L 194.679688 300.050781 L 42.925781 300.050781 Z M 42.925781 0 " fill-opacity="1" fill-rule="nonzero"/></g></g><g clip-path="url(#3a980878ca)"><g clip-path="url(#ba09dab0b5)"><path fill="#5489a3" d="M 42.925781 0 L 194.679688 0 L 194.679688 300.050781 L 42.925781 300.050781 Z M 42.925781 0 " fill-opacity="1" fill-rule="nonzero"/></g></g><g clip-path="url(#3a9dc67b12)"><g clip-path="url(#41c264729a)"><path fill="#5489a3" d="M 42.925781 0 L 194.679688 0 L 194.679688 300.050781 L 42.925781 300.050781 Z M 42.925781 0 " fill-opacity="1" fill-rule="nonzero"/></g></g><g clip-path="url(#09104cb805)"><g clip-path="url(#661337d2c9)"><path fill="#5489a3" d="M 42.925781 0 L 194.679688 0 L 194.679688 300.050781 L 42.925781 300.050781 Z M 42.925781 0 " fill-opacity="1" fill-rule="nonzero"/></g></g><g clip-path="url(#b85bd75ce6)"><g clip-path="url(#6e3960ca1a)"><path fill="#9bd3dd" d="M 42.925781 0 L 194.679688 0 L 194.679688 300.050781 L 42.925781 300.050781 Z M 42.925781 0 " fill-opacity="1" fill-rule="nonzero"/></g></g><g clip-path="url(#7ac668ddca)"><g clip-path="url(#9657718860)"><path fill="#01426a" d="M 42.925781 0 L 194.679688 0 L 194.679688 300.050781 L 42.925781 300.050781 Z M 42.925781 0 " fill-opacity="1" fill-rule="nonzero"/></g></g><g clip-path="url(#876872d67d)"><g clip-path="url(#bb5c8abf38)"><path fill="#01426a" d="M 42.925781 0 L 194.679688 0 L 194.679688 300.050781 L 42.925781 300.050781 Z M 42.925781 0 " fill-opacity="1" fill-rule="nonzero"/></g></g><g clip-path="url(#d87acc8bf1)"><g clip-path="url(#50a9f922f8)"><path fill="#002b49" d="M 42.925781 0 L 194.679688 0 L 194.679688 300.050781 L 42.925781 300.050781 Z M 42.925781 0 " fill-opacity="1" fill-rule="nonzero"/></g></g><g clip-path="url(#f5d734dc41)"><g clip-path="url(#e62a4371eb)"><path fill="#002b49" d="M 66.96875 238.25 L 88.324219 238.25 L 88.324219 259.609375 L 66.96875 259.609375 Z M 66.96875 238.25 " fill-opacity="1" fill-rule="nonzero"/></g></g><g clip-path="url(#3154bfa9e8)"><g clip-path="url(#5903342f31)"><path fill="#002b49" d="M 146.527344 34.589844 L 167.882812 34.589844 L 167.882812 55.945312 L 146.527344 55.945312 Z M 146.527344 34.589844 " fill-opacity="1" fill-rule="nonzero"/></g></g><g fill="#5389a3" fill-opacity="1"><g transform="translate(232.343346, 180.501012)"><g><path d="M 11.171875 -22 C 9.929688 -22 8.910156 -21.742188 8.109375 -21.234375 C 7.316406 -20.734375 6.921875 -19.96875 6.921875 -18.9375 C 6.921875 -17.914062 7.316406 -17.128906 8.109375 -16.578125 C 8.910156 -16.035156 10.609375 -15.453125 13.203125 -14.828125 C 15.804688 -14.203125 17.765625 -13.316406 19.078125 -12.171875 C 20.398438 -11.035156 21.0625 -9.363281 21.0625 -7.15625 C 21.0625 -4.945312 20.226562 -3.148438 18.5625 -1.765625 C 16.894531 -0.390625 14.707031 0.296875 12 0.296875 C 8.03125 0.296875 4.515625 -1.070312 1.453125 -3.8125 L 4.125 -7.03125 C 6.6875 -4.8125 9.347656 -3.703125 12.109375 -3.703125 C 13.484375 -3.703125 14.578125 -3.992188 15.390625 -4.578125 C 16.203125 -5.171875 16.609375 -5.957031 16.609375 -6.9375 C 16.609375 -7.914062 16.222656 -8.675781 15.453125 -9.21875 C 14.691406 -9.769531 13.378906 -10.265625 11.515625 -10.703125 C 9.660156 -11.148438 8.25 -11.5625 7.28125 -11.9375 C 6.320312 -12.3125 5.46875 -12.800781 4.71875 -13.40625 C 3.21875 -14.539062 2.46875 -16.28125 2.46875 -18.625 C 2.46875 -20.976562 3.316406 -22.785156 5.015625 -24.046875 C 6.722656 -25.316406 8.832031 -25.953125 11.34375 -25.953125 C 12.96875 -25.953125 14.578125 -25.6875 16.171875 -25.15625 C 17.765625 -24.625 19.140625 -23.875 20.296875 -22.90625 L 18.015625 -19.6875 C 17.265625 -20.363281 16.25 -20.914062 14.96875 -21.34375 C 13.6875 -21.78125 12.421875 -22 11.171875 -22 Z M 11.171875 -22 "/></g></g></g><g fill="#5389a3" fill-opacity="1"><g transform="translate(255.181505, 180.501012)"><g><path d="M 7.453125 -5.078125 C 8.597656 -3.910156 10.050781 -3.328125 11.8125 -3.328125 C 13.582031 -3.328125 15.039062 -3.910156 16.1875 -5.078125 C 17.332031 -6.253906 17.90625 -7.773438 17.90625 -9.640625 C 17.90625 -11.503906 17.332031 -13.019531 16.1875 -14.1875 C 15.039062 -15.363281 13.582031 -15.953125 11.8125 -15.953125 C 10.050781 -15.953125 8.597656 -15.363281 7.453125 -14.1875 C 6.304688 -13.019531 5.734375 -11.503906 5.734375 -9.640625 C 5.734375 -7.773438 6.304688 -6.253906 7.453125 -5.078125 Z M 19.0625 -2.578125 C 17.132812 -0.660156 14.71875 0.296875 11.8125 0.296875 C 8.914062 0.296875 6.5 -0.660156 4.5625 -2.578125 C 2.632812 -4.503906 1.671875 -6.859375 1.671875 -9.640625 C 1.671875 -12.421875 2.632812 -14.769531 4.5625 -16.6875 C 6.5 -18.613281 8.914062 -19.578125 11.8125 -19.578125 C 14.71875 -19.578125 17.132812 -18.613281 19.0625 -16.6875 C 21 -14.769531 21.96875 -12.421875 21.96875 -9.640625 C 21.96875 -6.859375 21 -4.503906 19.0625 -2.578125 Z M 19.0625 -2.578125 "/></g></g></g><g fill="#5389a3" fill-opacity="1"><g transform="translate(278.817185, 180.501012)"><g><path d="M 11.484375 0.296875 C 8.804688 0.296875 6.5 -0.613281 4.5625 -2.4375 C 2.632812 -4.269531 1.671875 -6.660156 1.671875 -9.609375 C 1.671875 -12.554688 2.675781 -14.953125 4.6875 -16.796875 C 6.707031 -18.648438 9.164062 -19.578125 12.0625 -19.578125 C 14.96875 -19.578125 17.425781 -18.570312 19.4375 -16.5625 L 17.03125 -13.625 C 15.363281 -15.082031 13.6875 -15.8125 12 -15.8125 C 10.3125 -15.8125 8.84375 -15.25 7.59375 -14.125 C 6.351562 -13 5.734375 -11.546875 5.734375 -9.765625 C 5.734375 -7.992188 6.347656 -6.488281 7.578125 -5.25 C 8.804688 -4.019531 10.320312 -3.40625 12.125 -3.40625 C 13.925781 -3.40625 15.625 -4.226562 17.21875 -5.875 L 19.609375 -3.265625 C 17.265625 -0.890625 14.554688 0.296875 11.484375 0.296875 Z M 11.484375 0.296875 "/></g></g></g><g fill="#5389a3" fill-opacity="1"><g transform="translate(299.697786, 180.501012)"><g><path d="M 7 0 L 2.9375 0 L 2.9375 -19.28125 L 7 -19.28125 Z M 3.1875 -23.125 C 2.675781 -23.632812 2.421875 -24.238281 2.421875 -24.9375 C 2.421875 -25.632812 2.675781 -26.238281 3.1875 -26.75 C 3.695312 -27.257812 4.300781 -27.515625 5 -27.515625 C 5.695312 -27.515625 6.300781 -27.257812 6.8125 -26.75 C 7.320312 -26.238281 7.578125 -25.632812 7.578125 -24.9375 C 7.578125 -24.238281 7.320312 -23.632812 6.8125 -23.125 C 6.300781 -22.613281 5.695312 -22.359375 5 -22.359375 C 4.300781 -22.359375 3.695312 -22.613281 3.1875 -23.125 Z M 3.1875 -23.125 "/></g></g></g><g fill="#5389a3" fill-opacity="1"><g transform="translate(309.630573, 180.501012)"><g><path d="M 20.875 -7.859375 L 5.765625 -7.859375 C 5.859375 -6.460938 6.5 -5.332031 7.6875 -4.46875 C 8.875 -3.613281 10.226562 -3.1875 11.75 -3.1875 C 14.164062 -3.1875 16 -3.945312 17.25 -5.46875 L 19.578125 -2.9375 C 17.492188 -0.78125 14.785156 0.296875 11.453125 0.296875 C 8.742188 0.296875 6.441406 -0.601562 4.546875 -2.40625 C 2.648438 -4.207031 1.703125 -6.625 1.703125 -9.65625 C 1.703125 -12.6875 2.664062 -15.097656 4.59375 -16.890625 C 6.53125 -18.679688 8.8125 -19.578125 11.4375 -19.578125 C 14.0625 -19.578125 16.289062 -18.785156 18.125 -17.203125 C 19.957031 -15.617188 20.875 -13.4375 20.875 -10.65625 Z M 5.765625 -11.0625 L 16.8125 -11.0625 C 16.8125 -12.675781 16.304688 -13.914062 15.296875 -14.78125 C 14.285156 -15.65625 13.035156 -16.09375 11.546875 -16.09375 C 10.054688 -16.09375 8.71875 -15.640625 7.53125 -14.734375 C 6.351562 -13.828125 5.765625 -12.601562 5.765625 -11.0625 Z M 5.765625 -11.0625 "/></g></g></g><g fill="#5389a3" fill-opacity="1"><g transform="translate(332.033716, 180.501012)"><g><path d="M 10.796875 0.296875 C 8.359375 0.296875 6.234375 -0.617188 4.421875 -2.453125 C 2.609375 -4.296875 1.703125 -6.710938 1.703125 -9.703125 C 1.703125 -12.703125 2.628906 -15.097656 4.484375 -16.890625 C 6.347656 -18.679688 8.566406 -19.578125 11.140625 -19.578125 C 13.710938 -19.578125 15.785156 -18.488281 17.359375 -16.3125 L 17.359375 -26.890625 L 21.421875 -26.890625 L 21.421875 0 L 17.359375 0 L 17.359375 -2.90625 C 15.859375 -0.769531 13.671875 0.296875 10.796875 0.296875 Z M 5.765625 -9.546875 C 5.765625 -7.703125 6.351562 -6.195312 7.53125 -5.03125 C 8.71875 -3.875 10.109375 -3.296875 11.703125 -3.296875 C 13.296875 -3.296875 14.648438 -3.878906 15.765625 -5.046875 C 16.878906 -6.222656 17.4375 -7.726562 17.4375 -9.5625 C 17.4375 -11.40625 16.878906 -12.941406 15.765625 -14.171875 C 14.648438 -15.398438 13.285156 -16.015625 11.671875 -16.015625 C 10.054688 -16.015625 8.664062 -15.398438 7.5 -14.171875 C 6.34375 -12.941406 5.765625 -11.398438 5.765625 -9.546875 Z M 5.765625 -9.546875 "/></g></g></g><g fill="#5389a3" fill-opacity="1"><g transform="translate(356.394417, 180.501012)"><g><path d="M 18.5625 0 L 14.859375 0 L 14.859375 -2.578125 C 13.265625 -0.660156 11.128906 0.296875 8.453125 0.296875 C 6.441406 0.296875 4.773438 -0.269531 3.453125 -1.40625 C 2.140625 -2.550781 1.484375 -4.070312 1.484375 -5.96875 C 1.484375 -7.863281 2.179688 -9.28125 3.578125 -10.21875 C 4.984375 -11.164062 6.882812 -11.640625 9.28125 -11.640625 L 14.53125 -11.640625 L 14.53125 -12.359375 C 14.53125 -14.921875 13.109375 -16.203125 10.265625 -16.203125 C 8.472656 -16.203125 6.609375 -15.550781 4.671875 -14.25 L 2.859375 -16.78125 C 5.203125 -18.644531 7.863281 -19.578125 10.84375 -19.578125 C 13.113281 -19.578125 14.96875 -19 16.40625 -17.84375 C 17.84375 -16.695312 18.5625 -14.894531 18.5625 -12.4375 Z M 14.5 -7.171875 L 14.5 -8.8125 L 9.9375 -8.8125 C 7.007812 -8.8125 5.546875 -7.890625 5.546875 -6.046875 C 5.546875 -5.109375 5.90625 -4.390625 6.625 -3.890625 C 7.351562 -3.398438 8.363281 -3.15625 9.65625 -3.15625 C 10.945312 -3.15625 12.078125 -3.515625 13.046875 -4.234375 C 14.015625 -4.960938 14.5 -5.941406 14.5 -7.171875 Z M 14.5 -7.171875 "/></g></g></g><g fill="#5389a3" fill-opacity="1"><g transform="translate(377.673778, 180.501012)"><g><path d="M 10.796875 0.296875 C 8.359375 0.296875 6.234375 -0.617188 4.421875 -2.453125 C 2.609375 -4.296875 1.703125 -6.710938 1.703125 -9.703125 C 1.703125 -12.703125 2.628906 -15.097656 4.484375 -16.890625 C 6.347656 -18.679688 8.566406 -19.578125 11.140625 -19.578125 C 13.710938 -19.578125 15.785156 -18.488281 17.359375 -16.3125 L 17.359375 -26.890625 L 21.421875 -26.890625 L 21.421875 0 L 17.359375 0 L 17.359375 -2.90625 C 15.859375 -0.769531 13.671875 0.296875 10.796875 0.296875 Z M 5.765625 -9.546875 C 5.765625 -7.703125 6.351562 -6.195312 7.53125 -5.03125 C 8.71875 -3.875 10.109375 -3.296875 11.703125 -3.296875 C 13.296875 -3.296875 14.648438 -3.878906 15.765625 -5.046875 C 16.878906 -6.222656 17.4375 -7.726562 17.4375 -9.5625 C 17.4375 -11.40625 16.878906 -12.941406 15.765625 -14.171875 C 14.648438 -15.398438 13.285156 -16.015625 11.671875 -16.015625 C 10.054688 -16.015625 8.664062 -15.398438 7.5 -14.171875 C 6.34375 -12.941406 5.765625 -11.398438 5.765625 -9.546875 Z M 5.765625 -9.546875 "/></g></g></g><g fill="#5389a3" fill-opacity="1"><g transform="translate(402.03449, 180.501012)"><g/></g></g><g fill="#5389a3" fill-opacity="1"><g transform="translate(411.967272, 180.501012)"><g><path d="M 7.796875 0 L 3.515625 0 L 3.515625 -25.34375 L 10.1875 -25.34375 L 17.828125 -9.421875 L 25.484375 -25.34375 L 32.125 -25.34375 L 32.125 0 L 27.84375 0 L 27.84375 -19.796875 L 19 -2.21875 L 16.609375 -2.21875 L 7.796875 -19.796875 Z M 7.796875 0 "/></g></g></g><g fill="#5389a3" fill-opacity="1"><g transform="translate(447.60205, 180.501012)"><g><path d="M 20.875 -7.859375 L 5.765625 -7.859375 C 5.859375 -6.460938 6.5 -5.332031 7.6875 -4.46875 C 8.875 -3.613281 10.226562 -3.1875 11.75 -3.1875 C 14.164062 -3.1875 16 -3.945312 17.25 -5.46875 L 19.578125 -2.9375 C 17.492188 -0.78125 14.785156 0.296875 11.453125 0.296875 C 8.742188 0.296875 6.441406 -0.601562 4.546875 -2.40625 C 2.648438 -4.207031 1.703125 -6.625 1.703125 -9.65625 C 1.703125 -12.6875 2.664062 -15.097656 4.59375 -16.890625 C 6.53125 -18.679688 8.8125 -19.578125 11.4375 -19.578125 C 14.0625 -19.578125 16.289062 -18.785156 18.125 -17.203125 C 19.957031 -15.617188 20.875 -13.4375 20.875 -10.65625 Z M 5.765625 -11.0625 L 16.8125 -11.0625 C 16.8125 -12.675781 16.304688 -13.914062 15.296875 -14.78125 C 14.285156 -15.65625 13.035156 -16.09375 11.546875 -16.09375 C 10.054688 -16.09375 8.71875 -15.640625 7.53125 -14.734375 C 6.351562 -13.828125 5.765625 -12.601562 5.765625 -11.0625 Z M 5.765625 -11.0625 "/></g></g></g><g fill="#5389a3" fill-opacity="1"><g transform="translate(470.005198, 180.501012)"><g><path d="M 6.015625 -19.28125 L 10.15625 -12.9375 L 14.421875 -19.28125 L 19.25 -19.28125 L 12.5 -9.859375 L 19.53125 0 L 14.53125 0 L 9.9375 -6.421875 L 5.4375 0 L 0.6875 0 L 7.546875 -9.828125 L 1.046875 -19.28125 Z M 6.015625 -19.28125 "/></g></g></g><g fill="#5389a3" fill-opacity="1"><g transform="translate(490.233285, 180.501012)"><g><path d="M 7 0 L 2.9375 0 L 2.9375 -19.28125 L 7 -19.28125 Z M 3.1875 -23.125 C 2.675781 -23.632812 2.421875 -24.238281 2.421875 -24.9375 C 2.421875 -25.632812 2.675781 -26.238281 3.1875 -26.75 C 3.695312 -27.257812 4.300781 -27.515625 5 -27.515625 C 5.695312 -27.515625 6.300781 -27.257812 6.8125 -26.75 C 7.320312 -26.238281 7.578125 -25.632812 7.578125 -24.9375 C 7.578125 -24.238281 7.320312 -23.632812 6.8125 -23.125 C 6.300781 -22.613281 5.695312 -22.359375 5 -22.359375 C 4.300781 -22.359375 3.695312 -22.613281 3.1875 -23.125 Z M 3.1875 -23.125 "/></g></g></g><g fill="#5389a3" fill-opacity="1"><g transform="translate(500.166067, 180.501012)"><g><path d="M 11.484375 0.296875 C 8.804688 0.296875 6.5 -0.613281 4.5625 -2.4375 C 2.632812 -4.269531 1.671875 -6.660156 1.671875 -9.609375 C 1.671875 -12.554688 2.675781 -14.953125 4.6875 -16.796875 C 6.707031 -18.648438 9.164062 -19.578125 12.0625 -19.578125 C 14.96875 -19.578125 17.425781 -18.570312 19.4375 -16.5625 L 17.03125 -13.625 C 15.363281 -15.082031 13.6875 -15.8125 12 -15.8125 C 10.3125 -15.8125 8.84375 -15.25 7.59375 -14.125 C 6.351562 -13 5.734375 -11.546875 5.734375 -9.765625 C 5.734375 -7.992188 6.347656 -6.488281 7.578125 -5.25 C 8.804688 -4.019531 10.320312 -3.40625 12.125 -3.40625 C 13.925781 -3.40625 15.625 -4.226562 17.21875 -5.875 L 19.609375 -3.265625 C 17.265625 -0.890625 14.554688 0.296875 11.484375 0.296875 Z M 11.484375 0.296875 "/></g></g></g><g fill="#5389a3" fill-opacity="1"><g transform="translate(521.046668, 180.501012)"><g><path d="M 18.5625 0 L 14.859375 0 L 14.859375 -2.578125 C 13.265625 -0.660156 11.128906 0.296875 8.453125 0.296875 C 6.441406 0.296875 4.773438 -0.269531 3.453125 -1.40625 C 2.140625 -2.550781 1.484375 -4.070312 1.484375 -5.96875 C 1.484375 -7.863281 2.179688 -9.28125 3.578125 -10.21875 C 4.984375 -11.164062 6.882812 -11.640625 9.28125 -11.640625 L 14.53125 -11.640625 L 14.53125 -12.359375 C 14.53125 -14.921875 13.109375 -16.203125 10.265625 -16.203125 C 8.472656 -16.203125 6.609375 -15.550781 4.671875 -14.25 L 2.859375 -16.78125 C 5.203125 -18.644531 7.863281 -19.578125 10.84375 -19.578125 C 13.113281 -19.578125 14.96875 -19 16.40625 -17.84375 C 17.84375 -16.695312 18.5625 -14.894531 18.5625 -12.4375 Z M 14.5 -7.171875 L 14.5 -8.8125 L 9.9375 -8.8125 C 7.007812 -8.8125 5.546875 -7.890625 5.546875 -6.046875 C 5.546875 -5.109375 5.90625 -4.390625 6.625 -3.890625 C 7.351562 -3.398438 8.363281 -3.15625 9.65625 -3.15625 C 10.945312 -3.15625 12.078125 -3.515625 13.046875 -4.234375 C 14.015625 -4.960938 14.5 -5.941406 14.5 -7.171875 Z M 14.5 -7.171875 "/></g></g></g><g fill="#5389a3" fill-opacity="1"><g transform="translate(542.32603, 180.501012)"><g><path d="M 7 -10.4375 L 7 0 L 2.9375 0 L 2.9375 -19.28125 L 7 -19.28125 L 7 -15.765625 C 7.644531 -16.953125 8.539062 -17.882812 9.6875 -18.5625 C 10.84375 -19.238281 12.082031 -19.578125 13.40625 -19.578125 C 15.582031 -19.578125 17.34375 -18.910156 18.6875 -17.578125 C 20.03125 -16.253906 20.703125 -14.332031 20.703125 -11.8125 L 20.703125 0 L 16.640625 0 L 16.640625 -10.578125 C 16.640625 -14.128906 15.164062 -15.90625 12.21875 -15.90625 C 10.8125 -15.90625 9.585938 -15.441406 8.546875 -14.515625 C 7.515625 -13.585938 7 -12.226562 7 -10.4375 Z M 7 -10.4375 "/></g></g></g><g fill="#5389a3" fill-opacity="1"><g transform="translate(565.744196, 180.501012)"><g><path d="M 18.5625 0 L 14.859375 0 L 14.859375 -2.578125 C 13.265625 -0.660156 11.128906 0.296875 8.453125 0.296875 C 6.441406 0.296875 4.773438 -0.269531 3.453125 -1.40625 C 2.140625 -2.550781 1.484375 -4.070312 1.484375 -5.96875 C 1.484375 -7.863281 2.179688 -9.28125 3.578125 -10.21875 C 4.984375 -11.164062 6.882812 -11.640625 9.28125 -11.640625 L 14.53125 -11.640625 L 14.53125 -12.359375 C 14.53125 -14.921875 13.109375 -16.203125 10.265625 -16.203125 C 8.472656 -16.203125 6.609375 -15.550781 4.671875 -14.25 L 2.859375 -16.78125 C 5.203125 -18.644531 7.863281 -19.578125 10.84375 -19.578125 C 13.113281 -19.578125 14.96875 -19 16.40625 -17.84375 C 17.84375 -16.695312 18.5625 -14.894531 18.5625 -12.4375 Z M 14.5 -7.171875 L 14.5 -8.8125 L 9.9375 -8.8125 C 7.007812 -8.8125 5.546875 -7.890625 5.546875 -6.046875 C 5.546875 -5.109375 5.90625 -4.390625 6.625 -3.890625 C 7.351562 -3.398438 8.363281 -3.15625 9.65625 -3.15625 C 10.945312 -3.15625 12.078125 -3.515625 13.046875 -4.234375 C 14.015625 -4.960938 14.5 -5.941406 14.5 -7.171875 Z M 14.5 -7.171875 "/></g></g></g><g fill="#5389a3" fill-opacity="1"><g transform="translate(587.023537, 180.501012)"><g/></g></g><g fill="#5389a3" fill-opacity="1"><g transform="translate(596.956339, 180.501012)"><g><path d="M 10.796875 0.296875 C 8.359375 0.296875 6.234375 -0.617188 4.421875 -2.453125 C 2.609375 -4.296875 1.703125 -6.710938 1.703125 -9.703125 C 1.703125 -12.703125 2.628906 -15.097656 4.484375 -16.890625 C 6.347656 -18.679688 8.566406 -19.578125 11.140625 -19.578125 C 13.710938 -19.578125 15.785156 -18.488281 17.359375 -16.3125 L 17.359375 -26.890625 L 21.421875 -26.890625 L 21.421875 0 L 17.359375 0 L 17.359375 -2.90625 C 15.859375 -0.769531 13.671875 0.296875 10.796875 0.296875 Z M 5.765625 -9.546875 C 5.765625 -7.703125 6.351562 -6.195312 7.53125 -5.03125 C 8.71875 -3.875 10.109375 -3.296875 11.703125 -3.296875 C 13.296875 -3.296875 14.648438 -3.878906 15.765625 -5.046875 C 16.878906 -6.222656 17.4375 -7.726562 17.4375 -9.5625 C 17.4375 -11.40625 16.878906 -12.941406 15.765625 -14.171875 C 14.648438 -15.398438 13.285156 -16.015625 11.671875 -16.015625 C 10.054688 -16.015625 8.664062 -15.398438 7.5 -14.171875 C 6.34375 -12.941406 5.765625 -11.398438 5.765625 -9.546875 Z M 5.765625 -9.546875 "/></g></g></g><g fill="#5389a3" fill-opacity="1"><g transform="translate(621.317051, 180.501012)"><g><path d="M 20.875 -7.859375 L 5.765625 -7.859375 C 5.859375 -6.460938 6.5 -5.332031 7.6875 -4.46875 C 8.875 -3.613281 10.226562 -3.1875 11.75 -3.1875 C 14.164062 -3.1875 16 -3.945312 17.25 -5.46875 L 19.578125 -2.9375 C 17.492188 -0.78125 14.785156 0.296875 11.453125 0.296875 C 8.742188 0.296875 6.441406 -0.601562 4.546875 -2.40625 C 2.648438 -4.207031 1.703125 -6.625 1.703125 -9.65625 C 1.703125 -12.6875 2.664062 -15.097656 4.59375 -16.890625 C 6.53125 -18.679688 8.8125 -19.578125 11.4375 -19.578125 C 14.0625 -19.578125 16.289062 -18.785156 18.125 -17.203125 C 19.957031 -15.617188 20.875 -13.4375 20.875 -10.65625 Z M 5.765625 -11.0625 L 16.8125 -11.0625 C 16.8125 -12.675781 16.304688 -13.914062 15.296875 -14.78125 C 14.285156 -15.65625 13.035156 -16.09375 11.546875 -16.09375 C 10.054688 -16.09375 8.71875 -15.640625 7.53125 -14.734375 C 6.351562 -13.828125 5.765625 -12.601562 5.765625 -11.0625 Z M 5.765625 -11.0625 "/></g></g></g><g fill="#5389a3" fill-opacity="1"><g transform="translate(643.7196, 180.501012)"><g/></g></g><g fill="#01426a" fill-opacity="1"><g transform="translate(232.343346, 134.422897)"><g><path d="M 19.046875 -6.453125 C 22.628906 -6.453125 25.554688 -7.875 27.828125 -10.71875 L 32.515625 -5.890625 C 28.804688 -1.710938 24.429688 0.375 19.390625 0.375 C 14.347656 0.375 10.195312 -1.210938 6.9375 -4.390625 C 3.6875 -7.578125 2.0625 -11.59375 2.0625 -16.4375 C 2.0625 -21.289062 3.71875 -25.335938 7.03125 -28.578125 C 10.351562 -31.828125 14.421875 -33.453125 19.234375 -33.453125 C 24.597656 -33.453125 29.085938 -31.40625 32.703125 -27.3125 L 28.15625 -22.171875 C 25.851562 -25.046875 22.984375 -26.484375 19.546875 -26.484375 C 16.804688 -26.484375 14.460938 -25.582031 12.515625 -23.78125 C 10.566406 -21.988281 9.59375 -19.570312 9.59375 -16.53125 C 9.59375 -13.488281 10.507812 -11.046875 12.34375 -9.203125 C 14.1875 -7.367188 16.421875 -6.453125 19.046875 -6.453125 Z M 19.046875 -6.453125 "/></g></g></g><g fill="#01426a" fill-opacity="1"><g transform="translate(266.59099, 134.422897)"><g><path d="M 27.3125 0 L 24.28125 -7.0625 L 10.578125 -7.0625 L 7.53125 0 L -0.234375 0 L 13.890625 -32.703125 L 20.953125 -32.703125 L 35.09375 0 Z M 17.453125 -22.96875 L 13.328125 -13.46875 L 21.515625 -13.46875 Z M 17.453125 -22.96875 "/></g></g></g><g fill="#01426a" fill-opacity="1"><g transform="translate(301.446859, 134.422897)"><g><path d="M 15.578125 -32.703125 C 20.597656 -32.703125 24.253906 -31.726562 26.546875 -29.78125 C 28.835938 -27.832031 29.984375 -24.835938 29.984375 -20.796875 C 29.984375 -16.753906 28.804688 -13.796875 26.453125 -11.921875 C 24.097656 -10.054688 20.503906 -9.125 15.671875 -9.125 L 11.328125 -9.125 L 11.328125 0 L 4.015625 0 L 4.015625 -32.703125 Z M 16.234375 -15.4375 C 18.660156 -15.4375 20.3125 -15.925781 21.1875 -16.90625 C 22.0625 -17.894531 22.5 -19.332031 22.5 -21.21875 C 22.5 -23.101562 21.929688 -24.441406 20.796875 -25.234375 C 19.660156 -26.035156 17.890625 -26.4375 15.484375 -26.4375 L 11.328125 -26.4375 L 11.328125 -15.4375 Z M 16.234375 -15.4375 "/></g></g></g><g fill="#01426a" fill-opacity="1"><g transform="translate(333.121252, 134.422897)"><g><path d="M 4.015625 -32.703125 L 11.328125 -32.703125 L 11.328125 0 L 4.015625 0 Z M 11.046875 -36.0625 L 4.34375 -36.0625 L 10.296875 -44.34375 L 17.546875 -41.3125 Z M 11.046875 -36.0625 "/></g></g></g><g fill="#01426a" fill-opacity="1"><g transform="translate(348.467187, 134.422897)"><g><path d="M 17.875 -26.390625 L 17.875 0 L 10.578125 0 L 10.578125 -26.390625 L 1.3125 -26.390625 L 1.3125 -32.703125 L 27.140625 -32.703125 L 27.140625 -26.390625 Z M 17.875 -26.390625 "/></g></g></g><g fill="#01426a" fill-opacity="1"><g transform="translate(376.913322, 134.422897)"><g><path d="M 12.671875 -8.4375 C 13.890625 -6.925781 15.523438 -6.171875 17.578125 -6.171875 C 19.640625 -6.171875 21.269531 -6.925781 22.46875 -8.4375 C 23.675781 -9.957031 24.28125 -12.023438 24.28125 -14.640625 L 24.28125 -32.703125 L 31.578125 -32.703125 L 31.578125 -14.40625 C 31.578125 -9.664062 30.265625 -6.023438 27.640625 -3.484375 C 25.023438 -0.941406 21.675781 0.328125 17.59375 0.328125 C 13.507812 0.328125 10.148438 -0.945312 7.515625 -3.5 C 4.878906 -6.0625 3.5625 -9.695312 3.5625 -14.40625 L 3.5625 -32.703125 L 10.859375 -32.703125 L 10.859375 -14.640625 C 10.859375 -12.023438 11.460938 -9.957031 12.671875 -8.4375 Z M 12.671875 -8.4375 "/></g></g></g><g fill="#01426a" fill-opacity="1"><g transform="translate(412.049911, 134.422897)"><g><path d="M 4.015625 0 L 4.015625 -32.703125 L 11.328125 -32.703125 L 11.328125 -6.5 L 25.265625 -6.5 L 25.265625 0 Z M 4.015625 0 "/></g></g></g><g fill="#01426a" fill-opacity="1"><g transform="translate(438.624592, 134.422897)"><g><path d="M 29.046875 -16.53125 C 29.046875 -19.445312 28.109375 -21.9375 26.234375 -24 C 24.367188 -26.0625 22.070312 -27.09375 19.34375 -27.09375 C 16.613281 -27.09375 14.3125 -26.0625 12.4375 -24 C 10.570312 -21.9375 9.640625 -19.445312 9.640625 -16.53125 C 9.640625 -13.613281 10.570312 -11.132812 12.4375 -9.09375 C 14.3125 -7.050781 16.613281 -6.03125 19.34375 -6.03125 C 22.070312 -6.03125 24.367188 -7.050781 26.234375 -9.09375 C 28.109375 -11.132812 29.046875 -13.613281 29.046875 -16.53125 Z M 31.53125 -4.515625 C 28.226562 -1.285156 24.15625 0.328125 19.3125 0.328125 C 14.476562 0.328125 10.410156 -1.285156 7.109375 -4.515625 C 3.804688 -7.742188 2.15625 -11.757812 2.15625 -16.5625 C 2.15625 -21.363281 3.804688 -25.378906 7.109375 -28.609375 C 10.410156 -31.835938 14.476562 -33.453125 19.3125 -33.453125 C 24.15625 -33.453125 28.226562 -31.835938 31.53125 -28.609375 C 34.832031 -25.378906 36.484375 -21.363281 36.484375 -16.5625 C 36.484375 -11.757812 34.832031 -7.742188 31.53125 -4.515625 Z M 31.53125 -4.515625 "/></g></g></g><g fill="#01426a" fill-opacity="1"><g transform="translate(477.270168, 134.422897)"><g/></g></g><g fill="#01426a" fill-opacity="1"><g transform="translate(489.621769, 134.422897)"><g><path d="M 26.90625 -32.703125 L 34.203125 -32.703125 L 34.203125 0 L 26.90625 0 L 11.328125 -20.484375 L 11.328125 0 L 4.015625 0 L 4.015625 -32.703125 L 10.859375 -32.703125 L 26.90625 -11.65625 Z M 26.90625 -32.703125 "/></g></g></g><g fill="#01426a" fill-opacity="1"><g transform="translate(527.846267, 134.422897)"><g><path d="M 29.046875 -16.53125 C 29.046875 -19.445312 28.109375 -21.9375 26.234375 -24 C 24.367188 -26.0625 22.070312 -27.09375 19.34375 -27.09375 C 16.613281 -27.09375 14.3125 -26.0625 12.4375 -24 C 10.570312 -21.9375 9.640625 -19.445312 9.640625 -16.53125 C 9.640625 -13.613281 10.570312 -11.132812 12.4375 -9.09375 C 14.3125 -7.050781 16.613281 -6.03125 19.34375 -6.03125 C 22.070312 -6.03125 24.367188 -7.050781 26.234375 -9.09375 C 28.109375 -11.132812 29.046875 -13.613281 29.046875 -16.53125 Z M 31.53125 -4.515625 C 28.226562 -1.285156 24.15625 0.328125 19.3125 0.328125 C 14.476562 0.328125 10.410156 -1.285156 7.109375 -4.515625 C 3.804688 -7.742188 2.15625 -11.757812 2.15625 -16.5625 C 2.15625 -21.363281 3.804688 -25.378906 7.109375 -28.609375 C 10.410156 -31.835938 14.476562 -33.453125 19.3125 -33.453125 C 24.15625 -33.453125 28.226562 -31.835938 31.53125 -28.609375 C 34.832031 -25.378906 36.484375 -21.363281 36.484375 -16.5625 C 36.484375 -11.757812 34.832031 -7.742188 31.53125 -4.515625 Z M 31.53125 -4.515625 "/></g></g></g><g fill="#01426a" fill-opacity="1"><g transform="translate(566.491824, 134.422897)"><g><path d="M 30.546875 -21.84375 C 30.546875 -16.601562 28.472656 -13.222656 24.328125 -11.703125 L 32.609375 0 L 23.625 0 L 16.375 -10.4375 L 11.328125 -10.4375 L 11.328125 0 L 4.015625 0 L 4.015625 -32.703125 L 16.421875 -32.703125 C 21.503906 -32.703125 25.128906 -31.84375 27.296875 -30.125 C 29.460938 -28.40625 30.546875 -25.644531 30.546875 -21.84375 Z M 16.65625 -16.75 C 19.144531 -16.75 20.84375 -17.15625 21.75 -17.96875 C 22.65625 -18.78125 23.109375 -20.066406 23.109375 -21.828125 C 23.109375 -23.585938 22.640625 -24.796875 21.703125 -25.453125 C 20.765625 -26.109375 19.128906 -26.4375 16.796875 -26.4375 L 11.328125 -26.4375 L 11.328125 -16.75 Z M 16.65625 -16.75 "/></g></g></g><g fill="#01426a" fill-opacity="1"><g transform="translate(600.505541, 134.422897)"><g><path d="M 27.59375 -32.703125 L 27.59375 -26.203125 L 11.328125 -26.203125 L 11.328125 -19.46875 L 25.96875 -19.46875 L 25.96875 -13.234375 L 11.328125 -13.234375 L 11.328125 -6.453125 L 28.109375 -6.453125 L 28.109375 0 L 4.015625 0 L 4.015625 -32.703125 Z M 27.59375 -32.703125 "/></g></g></g><g fill="#01426a" fill-opacity="1"><g transform="translate(631.103836, 134.422897)"><g><path d="M 14.546875 -27.046875 C 13.328125 -27.046875 12.367188 -26.753906 11.671875 -26.171875 C 10.972656 -25.597656 10.625 -24.832031 10.625 -23.875 C 10.625 -22.925781 11.050781 -22.171875 11.90625 -21.609375 C 12.757812 -21.046875 14.738281 -20.382812 17.84375 -19.625 C 20.945312 -18.863281 23.351562 -17.71875 25.0625 -16.1875 C 26.78125 -14.65625 27.640625 -12.421875 27.640625 -9.484375 C 27.640625 -6.554688 26.539062 -4.179688 24.34375 -2.359375 C 22.144531 -0.535156 19.253906 0.375 15.671875 0.375 C 10.492188 0.375 5.832031 -1.539062 1.6875 -5.375 L 6.03125 -10.71875 C 9.5625 -7.625 12.820312 -6.078125 15.8125 -6.078125 C 17.15625 -6.078125 18.207031 -6.363281 18.96875 -6.9375 C 19.726562 -7.519531 20.109375 -8.300781 20.109375 -9.28125 C 20.109375 -10.269531 19.703125 -11.050781 18.890625 -11.625 C 18.085938 -12.195312 16.484375 -12.78125 14.078125 -13.375 C 10.273438 -14.28125 7.492188 -15.457031 5.734375 -16.90625 C 3.972656 -18.363281 3.09375 -20.640625 3.09375 -23.734375 C 3.09375 -26.835938 4.207031 -29.234375 6.4375 -30.921875 C 8.664062 -32.609375 11.445312 -33.453125 14.78125 -33.453125 C 16.96875 -33.453125 19.148438 -33.078125 21.328125 -32.328125 C 23.515625 -31.578125 25.421875 -30.515625 27.046875 -29.140625 L 23.34375 -23.8125 C 20.507812 -25.96875 17.578125 -27.046875 14.546875 -27.046875 Z M 14.546875 -27.046875 "/></g></g></g><g fill="#01426a" fill-opacity="1"><g transform="translate(660.953568, 134.422897)"><g><path d="M 17.875 -26.390625 L 17.875 0 L 10.578125 0 L 10.578125 -26.390625 L 1.3125 -26.390625 L 1.3125 -32.703125 L 27.140625 -32.703125 L 27.140625 -26.390625 Z M 17.875 -26.390625 "/></g></g></g><g fill="#01426a" fill-opacity="1"><g transform="translate(689.399694, 134.422897)"><g><path d="M 27.59375 -32.703125 L 27.59375 -26.203125 L 11.328125 -26.203125 L 11.328125 -19.46875 L 25.96875 -19.46875 L 25.96875 -13.234375 L 11.328125 -13.234375 L 11.328125 -6.453125 L 28.109375 -6.453125 L 28.109375 0 L 4.015625 0 L 4.015625 -32.703125 Z M 27.59375 -32.703125 "/></g></g></g><g fill="#5389a3" fill-opacity="1"><g transform="translate(232.343346, 223.707513)"><g><path d="M 22.515625 -25.34375 L 26.78125 -25.34375 L 26.78125 0 L 22.15625 0 L 7.796875 -18.484375 L 7.796875 0 L 3.515625 0 L 3.515625 -25.34375 L 7.796875 -25.34375 L 22.515625 -6.421875 Z M 22.515625 -25.34375 "/></g></g></g><g fill="#5389a3" fill-opacity="1"><g transform="translate(262.649219, 223.707513)"><g><path d="M 16.421875 -8.84375 L 16.421875 -19.28125 L 20.484375 -19.28125 L 20.484375 0 L 16.421875 0 L 16.421875 -3.515625 C 15.765625 -2.328125 14.863281 -1.394531 13.71875 -0.71875 C 12.570312 -0.0390625 11.332031 0.296875 10 0.296875 C 7.832031 0.296875 6.078125 -0.367188 4.734375 -1.703125 C 3.390625 -3.035156 2.71875 -4.957031 2.71875 -7.46875 L 2.71875 -19.28125 L 6.78125 -19.28125 L 6.78125 -8.703125 C 6.78125 -5.148438 8.253906 -3.375 11.203125 -3.375 C 12.597656 -3.375 13.816406 -3.835938 14.859375 -4.765625 C 15.898438 -5.691406 16.421875 -7.050781 16.421875 -8.84375 Z M 16.421875 -8.84375 "/></g></g></g><g fill="#5389a3" fill-opacity="1"><g transform="translate(286.067396, 223.707513)"><g><path d="M 7.9375 -16.015625 L 7.9375 -6.234375 C 7.9375 -5.316406 8.175781 -4.582031 8.65625 -4.03125 C 9.144531 -3.488281 9.820312 -3.21875 10.6875 -3.21875 C 11.5625 -3.21875 12.394531 -3.644531 13.1875 -4.5 L 14.859375 -1.625 C 13.429688 -0.34375 11.851562 0.296875 10.125 0.296875 C 8.40625 0.296875 6.929688 -0.300781 5.703125 -1.5 C 4.484375 -2.695312 3.875 -4.3125 3.875 -6.34375 L 3.875 -16.015625 L 1.453125 -16.015625 L 1.453125 -19.28125 L 3.875 -19.28125 L 3.875 -25.34375 L 7.9375 -25.34375 L 7.9375 -19.28125 L 13.015625 -19.28125 L 13.015625 -16.015625 Z M 7.9375 -16.015625 "/></g></g></g><g fill="#5389a3" fill-opacity="1"><g transform="translate(301.220333, 223.707513)"><g><path d="M 13.046875 -15.484375 C 11.046875 -15.484375 9.535156 -14.828125 8.515625 -13.515625 C 7.503906 -12.210938 7 -10.460938 7 -8.265625 L 7 0 L 2.9375 0 L 2.9375 -19.28125 L 7 -19.28125 L 7 -15.40625 C 7.644531 -16.613281 8.53125 -17.601562 9.65625 -18.375 C 10.78125 -19.144531 11.972656 -19.546875 13.234375 -19.578125 L 13.265625 -15.484375 C 13.191406 -15.484375 13.117188 -15.484375 13.046875 -15.484375 Z M 13.046875 -15.484375 "/></g></g></g><g fill="#5389a3" fill-opacity="1"><g transform="translate(315.611996, 223.707513)"><g><path d="M 7 0 L 2.9375 0 L 2.9375 -19.28125 L 7 -19.28125 Z M 3.1875 -23.125 C 2.675781 -23.632812 2.421875 -24.238281 2.421875 -24.9375 C 2.421875 -25.632812 2.675781 -26.238281 3.1875 -26.75 C 3.695312 -27.257812 4.300781 -27.515625 5 -27.515625 C 5.695312 -27.515625 6.300781 -27.257812 6.8125 -26.75 C 7.320312 -26.238281 7.578125 -25.632812 7.578125 -24.9375 C 7.578125 -24.238281 7.320312 -23.632812 6.8125 -23.125 C 6.300781 -22.613281 5.695312 -22.359375 5 -22.359375 C 4.300781 -22.359375 3.695312 -22.613281 3.1875 -23.125 Z M 3.1875 -23.125 "/></g></g></g><g fill="#5389a3" fill-opacity="1"><g transform="translate(325.544778, 223.707513)"><g><path d="M 11.484375 0.296875 C 8.804688 0.296875 6.5 -0.613281 4.5625 -2.4375 C 2.632812 -4.269531 1.671875 -6.660156 1.671875 -9.609375 C 1.671875 -12.554688 2.675781 -14.953125 4.6875 -16.796875 C 6.707031 -18.648438 9.164062 -19.578125 12.0625 -19.578125 C 14.96875 -19.578125 17.425781 -18.570312 19.4375 -16.5625 L 17.03125 -13.625 C 15.363281 -15.082031 13.6875 -15.8125 12 -15.8125 C 10.3125 -15.8125 8.84375 -15.25 7.59375 -14.125 C 6.351562 -13 5.734375 -11.546875 5.734375 -9.765625 C 5.734375 -7.992188 6.347656 -6.488281 7.578125 -5.25 C 8.804688 -4.019531 10.320312 -3.40625 12.125 -3.40625 C 13.925781 -3.40625 15.625 -4.226562 17.21875 -5.875 L 19.609375 -3.265625 C 17.265625 -0.890625 14.554688 0.296875 11.484375 0.296875 Z M 11.484375 0.296875 "/></g></g></g><g fill="#5389a3" fill-opacity="1"><g transform="translate(346.425379, 223.707513)"><g><path d="M 7 0 L 2.9375 0 L 2.9375 -19.28125 L 7 -19.28125 Z M 3.1875 -23.125 C 2.675781 -23.632812 2.421875 -24.238281 2.421875 -24.9375 C 2.421875 -25.632812 2.675781 -26.238281 3.1875 -26.75 C 3.695312 -27.257812 4.300781 -27.515625 5 -27.515625 C 5.695312 -27.515625 6.300781 -27.257812 6.8125 -26.75 C 7.320312 -26.238281 7.578125 -25.632812 7.578125 -24.9375 C 7.578125 -24.238281 7.320312 -23.632812 6.8125 -23.125 C 6.300781 -22.613281 5.695312 -22.359375 5 -22.359375 C 4.300781 -22.359375 3.695312 -22.613281 3.1875 -23.125 Z M 3.1875 -23.125 "/></g></g></g><g fill="#5389a3" fill-opacity="1"><g transform="translate(356.358161, 223.707513)"><g><path d="M 7.453125 -5.078125 C 8.597656 -3.910156 10.050781 -3.328125 11.8125 -3.328125 C 13.582031 -3.328125 15.039062 -3.910156 16.1875 -5.078125 C 17.332031 -6.253906 17.90625 -7.773438 17.90625 -9.640625 C 17.90625 -11.503906 17.332031 -13.019531 16.1875 -14.1875 C 15.039062 -15.363281 13.582031 -15.953125 11.8125 -15.953125 C 10.050781 -15.953125 8.597656 -15.363281 7.453125 -14.1875 C 6.304688 -13.019531 5.734375 -11.503906 5.734375 -9.640625 C 5.734375 -7.773438 6.304688 -6.253906 7.453125 -5.078125 Z M 19.0625 -2.578125 C 17.132812 -0.660156 14.71875 0.296875 11.8125 0.296875 C 8.914062 0.296875 6.5 -0.660156 4.5625 -2.578125 C 2.632812 -4.503906 1.671875 -6.859375 1.671875 -9.640625 C 1.671875 -12.421875 2.632812 -14.769531 4.5625 -16.6875 C 6.5 -18.613281 8.914062 -19.578125 11.8125 -19.578125 C 14.71875 -19.578125 17.132812 -18.613281 19.0625 -16.6875 C 21 -14.769531 21.96875 -12.421875 21.96875 -9.640625 C 21.96875 -6.859375 21 -4.503906 19.0625 -2.578125 Z M 13.671875 -21.75 L 9.96875 -21.75 L 13.8125 -27 L 18.09375 -25.234375 Z M 13.671875 -21.75 "/></g></g></g><g fill="#5389a3" fill-opacity="1"><g transform="translate(379.993845, 223.707513)"><g><path d="M 7 -10.4375 L 7 0 L 2.9375 0 L 2.9375 -19.28125 L 7 -19.28125 L 7 -15.765625 C 7.644531 -16.953125 8.539062 -17.882812 9.6875 -18.5625 C 10.84375 -19.238281 12.082031 -19.578125 13.40625 -19.578125 C 15.582031 -19.578125 17.34375 -18.910156 18.6875 -17.578125 C 20.03125 -16.253906 20.703125 -14.332031 20.703125 -11.8125 L 20.703125 0 L 16.640625 0 L 16.640625 -10.578125 C 16.640625 -14.128906 15.164062 -15.90625 12.21875 -15.90625 C 10.8125 -15.90625 9.585938 -15.441406 8.546875 -14.515625 C 7.515625 -13.585938 7 -12.226562 7 -10.4375 Z M 7 -10.4375 "/></g></g></g><g fill="#5389a3" fill-opacity="1"><g transform="translate(403.412032, 223.707513)"><g/></g></g><g fill="#5389a3" fill-opacity="1"><g transform="translate(413.344813, 223.707513)"><g><path d="M 5.359375 7.6875 C 3.597656 7.6875 2.003906 7.046875 0.578125 5.765625 L 2.421875 2.46875 C 3.273438 3.257812 4.15625 3.65625 5.0625 3.65625 C 5.96875 3.65625 6.703125 3.328125 7.265625 2.671875 C 7.835938 2.023438 8.125 1.316406 8.125 0.546875 C 8.125 0.203125 5.523438 -6.40625 0.328125 -19.28125 L 4.671875 -19.28125 L 10.4375 -5.078125 L 16.203125 -19.28125 L 20.546875 -19.28125 L 11.203125 3.625 C 10.648438 4.882812 9.851562 5.875 8.8125 6.59375 C 7.769531 7.320312 6.617188 7.6875 5.359375 7.6875 Z M 5.359375 7.6875 "/></g></g></g><g fill="#5389a3" fill-opacity="1"><g transform="translate(434.152902, 223.707513)"><g/></g></g><g fill="#5389a3" fill-opacity="1"><g transform="translate(444.085684, 223.707513)"><g><path d="M 21.3125 -25.34375 L 21.3125 -21.3125 L 7.796875 -21.3125 L 7.796875 -14.609375 L 19.9375 -14.609375 L 19.9375 -10.796875 L 7.796875 -10.796875 L 7.796875 -4.03125 L 21.75 -4.03125 L 21.75 0 L 3.515625 0 L 3.515625 -25.34375 Z M 21.3125 -25.34375 "/></g></g></g><g fill="#5389a3" fill-opacity="1"><g transform="translate(467.793861, 223.707513)"><g><path d="M 7 -10.4375 L 7 0 L 2.9375 0 L 2.9375 -19.28125 L 7 -19.28125 L 7 -15.765625 C 7.644531 -16.953125 8.539062 -17.882812 9.6875 -18.5625 C 10.84375 -19.238281 12.082031 -19.578125 13.40625 -19.578125 C 15.582031 -19.578125 17.34375 -18.910156 18.6875 -17.578125 C 20.03125 -16.253906 20.703125 -14.332031 20.703125 -11.8125 L 20.703125 0 L 16.640625 0 L 16.640625 -10.578125 C 16.640625 -14.128906 15.164062 -15.90625 12.21875 -15.90625 C 10.8125 -15.90625 9.585938 -15.441406 8.546875 -14.515625 C 7.515625 -13.585938 7 -12.226562 7 -10.4375 Z M 7 -10.4375 "/></g></g></g><g fill="#5389a3" fill-opacity="1"><g transform="translate(491.212047, 223.707513)"><g><path d="M 10.796875 0.296875 C 8.359375 0.296875 6.234375 -0.617188 4.421875 -2.453125 C 2.609375 -4.296875 1.703125 -6.710938 1.703125 -9.703125 C 1.703125 -12.703125 2.628906 -15.097656 4.484375 -16.890625 C 6.347656 -18.679688 8.566406 -19.578125 11.140625 -19.578125 C 13.710938 -19.578125 15.785156 -18.488281 17.359375 -16.3125 L 17.359375 -26.890625 L 21.421875 -26.890625 L 21.421875 0 L 17.359375 0 L 17.359375 -2.90625 C 15.859375 -0.769531 13.671875 0.296875 10.796875 0.296875 Z M 5.765625 -9.546875 C 5.765625 -7.703125 6.351562 -6.195312 7.53125 -5.03125 C 8.71875 -3.875 10.109375 -3.296875 11.703125 -3.296875 C 13.296875 -3.296875 14.648438 -3.878906 15.765625 -5.046875 C 16.878906 -6.222656 17.4375 -7.726562 17.4375 -9.5625 C 17.4375 -11.40625 16.878906 -12.941406 15.765625 -14.171875 C 14.648438 -15.398438 13.285156 -16.015625 11.671875 -16.015625 C 10.054688 -16.015625 8.664062 -15.398438 7.5 -14.171875 C 6.34375 -12.941406 5.765625 -11.398438 5.765625 -9.546875 Z M 5.765625 -9.546875 "/></g></g></g><g fill="#5389a3" fill-opacity="1"><g transform="translate(515.572759, 223.707513)"><g><path d="M 7.453125 -5.078125 C 8.597656 -3.910156 10.050781 -3.328125 11.8125 -3.328125 C 13.582031 -3.328125 15.039062 -3.910156 16.1875 -5.078125 C 17.332031 -6.253906 17.90625 -7.773438 17.90625 -9.640625 C 17.90625 -11.503906 17.332031 -13.019531 16.1875 -14.1875 C 15.039062 -15.363281 13.582031 -15.953125 11.8125 -15.953125 C 10.050781 -15.953125 8.597656 -15.363281 7.453125 -14.1875 C 6.304688 -13.019531 5.734375 -11.503906 5.734375 -9.640625 C 5.734375 -7.773438 6.304688 -6.253906 7.453125 -5.078125 Z M 19.0625 -2.578125 C 17.132812 -0.660156 14.71875 0.296875 11.8125 0.296875 C 8.914062 0.296875 6.5 -0.660156 4.5625 -2.578125 C 2.632812 -4.503906 1.671875 -6.859375 1.671875 -9.640625 C 1.671875 -12.421875 2.632812 -14.769531 4.5625 -16.6875 C 6.5 -18.613281 8.914062 -19.578125 11.8125 -19.578125 C 14.71875 -19.578125 17.132812 -18.613281 19.0625 -16.6875 C 21 -14.769531 21.96875 -12.421875 21.96875 -9.640625 C 21.96875 -6.859375 21 -4.503906 19.0625 -2.578125 Z M 19.0625 -2.578125 "/></g></g></g><g fill="#5389a3" fill-opacity="1"><g transform="translate(539.208443, 223.707513)"><g><path d="M 11.484375 0.296875 C 8.804688 0.296875 6.5 -0.613281 4.5625 -2.4375 C 2.632812 -4.269531 1.671875 -6.660156 1.671875 -9.609375 C 1.671875 -12.554688 2.675781 -14.953125 4.6875 -16.796875 C 6.707031 -18.648438 9.164062 -19.578125 12.0625 -19.578125 C 14.96875 -19.578125 17.425781 -18.570312 19.4375 -16.5625 L 17.03125 -13.625 C 15.363281 -15.082031 13.6875 -15.8125 12 -15.8125 C 10.3125 -15.8125 8.84375 -15.25 7.59375 -14.125 C 6.351562 -13 5.734375 -11.546875 5.734375 -9.765625 C 5.734375 -7.992188 6.347656 -6.488281 7.578125 -5.25 C 8.804688 -4.019531 10.320312 -3.40625 12.125 -3.40625 C 13.925781 -3.40625 15.625 -4.226562 17.21875 -5.875 L 19.609375 -3.265625 C 17.265625 -0.890625 14.554688 0.296875 11.484375 0.296875 Z M 11.484375 0.296875 "/></g></g></g><g fill="#5389a3" fill-opacity="1"><g transform="translate(560.089044, 223.707513)"><g><path d="M 13.046875 -15.484375 C 11.046875 -15.484375 9.535156 -14.828125 8.515625 -13.515625 C 7.503906 -12.210938 7 -10.460938 7 -8.265625 L 7 0 L 2.9375 0 L 2.9375 -19.28125 L 7 -19.28125 L 7 -15.40625 C 7.644531 -16.613281 8.53125 -17.601562 9.65625 -18.375 C 10.78125 -19.144531 11.972656 -19.546875 13.234375 -19.578125 L 13.265625 -15.484375 C 13.191406 -15.484375 13.117188 -15.484375 13.046875 -15.484375 Z M 13.046875 -15.484375 "/></g></g></g><g fill="#5389a3" fill-opacity="1"><g transform="translate(574.480718, 223.707513)"><g><path d="M 7 0 L 2.9375 0 L 2.9375 -19.28125 L 7 -19.28125 Z M 3.1875 -23.125 C 2.675781 -23.632812 2.421875 -24.238281 2.421875 -24.9375 C 2.421875 -25.632812 2.675781 -26.238281 3.1875 -26.75 C 3.695312 -27.257812 4.300781 -27.515625 5 -27.515625 C 5.695312 -27.515625 6.300781 -27.257812 6.8125 -26.75 C 7.320312 -26.238281 7.578125 -25.632812 7.578125 -24.9375 C 7.578125 -24.238281 7.320312 -23.632812 6.8125 -23.125 C 6.300781 -22.613281 5.695312 -22.359375 5 -22.359375 C 4.300781 -22.359375 3.695312 -22.613281 3.1875 -23.125 Z M 3.1875 -23.125 "/></g></g></g><g fill="#5389a3" fill-opacity="1"><g transform="translate(584.413519, 223.707513)"><g><path d="M 7 -10.4375 L 7 0 L 2.9375 0 L 2.9375 -19.28125 L 7 -19.28125 L 7 -15.765625 C 7.644531 -16.953125 8.539062 -17.882812 9.6875 -18.5625 C 10.84375 -19.238281 12.082031 -19.578125 13.40625 -19.578125 C 15.582031 -19.578125 17.34375 -18.910156 18.6875 -17.578125 C 20.03125 -16.253906 20.703125 -14.332031 20.703125 -11.8125 L 20.703125 0 L 16.640625 0 L 16.640625 -10.578125 C 16.640625 -14.128906 15.164062 -15.90625 12.21875 -15.90625 C 10.8125 -15.90625 9.585938 -15.441406 8.546875 -14.515625 C 7.515625 -13.585938 7 -12.226562 7 -10.4375 Z M 7 -10.4375 "/></g></g></g><g fill="#5389a3" fill-opacity="1"><g transform="translate(607.831686, 223.707513)"><g><path d="M 7.453125 -5.078125 C 8.597656 -3.910156 10.050781 -3.328125 11.8125 -3.328125 C 13.582031 -3.328125 15.039062 -3.910156 16.1875 -5.078125 C 17.332031 -6.253906 17.90625 -7.773438 17.90625 -9.640625 C 17.90625 -11.503906 17.332031 -13.019531 16.1875 -14.1875 C 15.039062 -15.363281 13.582031 -15.953125 11.8125 -15.953125 C 10.050781 -15.953125 8.597656 -15.363281 7.453125 -14.1875 C 6.304688 -13.019531 5.734375 -11.503906 5.734375 -9.640625 C 5.734375 -7.773438 6.304688 -6.253906 7.453125 -5.078125 Z M 19.0625 -2.578125 C 17.132812 -0.660156 14.71875 0.296875 11.8125 0.296875 C 8.914062 0.296875 6.5 -0.660156 4.5625 -2.578125 C 2.632812 -4.503906 1.671875 -6.859375 1.671875 -9.640625 C 1.671875 -12.421875 2.632812 -14.769531 4.5625 -16.6875 C 6.5 -18.613281 8.914062 -19.578125 11.8125 -19.578125 C 14.71875 -19.578125 17.132812 -18.613281 19.0625 -16.6875 C 21 -14.769531 21.96875 -12.421875 21.96875 -9.640625 C 21.96875 -6.859375 21 -4.503906 19.0625 -2.578125 Z M 19.0625 -2.578125 "/></g></g></g><g fill="#5389a3" fill-opacity="1"><g transform="translate(631.46735, 223.707513)"><g><path d="M 7 0 L 2.9375 0 L 2.9375 -26.890625 L 7 -26.890625 Z M 7 0 "/></g></g></g><g fill="#5389a3" fill-opacity="1"><g transform="translate(641.400152, 223.707513)"><g><path d="M 7.453125 -5.078125 C 8.597656 -3.910156 10.050781 -3.328125 11.8125 -3.328125 C 13.582031 -3.328125 15.039062 -3.910156 16.1875 -5.078125 C 17.332031 -6.253906 17.90625 -7.773438 17.90625 -9.640625 C 17.90625 -11.503906 17.332031 -13.019531 16.1875 -14.1875 C 15.039062 -15.363281 13.582031 -15.953125 11.8125 -15.953125 C 10.050781 -15.953125 8.597656 -15.363281 7.453125 -14.1875 C 6.304688 -13.019531 5.734375 -11.503906 5.734375 -9.640625 C 5.734375 -7.773438 6.304688 -6.253906 7.453125 -5.078125 Z M 19.0625 -2.578125 C 17.132812 -0.660156 14.71875 0.296875 11.8125 0.296875 C 8.914062 0.296875 6.5 -0.660156 4.5625 -2.578125 C 2.632812 -4.503906 1.671875 -6.859375 1.671875 -9.640625 C 1.671875 -12.421875 2.632812 -14.769531 4.5625 -16.6875 C 6.5 -18.613281 8.914062 -19.578125 11.8125 -19.578125 C 14.71875 -19.578125 17.132812 -18.613281 19.0625 -16.6875 C 21 -14.769531 21.96875 -12.421875 21.96875 -9.640625 C 21.96875 -6.859375 21 -4.503906 19.0625 -2.578125 Z M 19.0625 -2.578125 "/></g></g></g><g fill="#5389a3" fill-opacity="1"><g transform="translate(665.035816, 223.707513)"><g><path d="M 20.765625 -19.28125 L 20.765625 -2.46875 C 20.765625 0.9375 19.835938 3.488281 17.984375 5.1875 C 16.140625 6.894531 13.769531 7.75 10.875 7.75 C 7.976562 7.75 5.359375 6.84375 3.015625 5.03125 L 4.9375 1.953125 C 6.8125 3.378906 8.707031 4.09375 10.625 4.09375 C 12.550781 4.09375 14.078125 3.597656 15.203125 2.609375 C 16.328125 1.617188 16.890625 0.0351562 16.890625 -2.140625 L 16.890625 -4.609375 C 16.285156 -3.472656 15.421875 -2.566406 14.296875 -1.890625 C 13.171875 -1.210938 11.910156 -0.875 10.515625 -0.875 C 7.953125 -0.875 5.847656 -1.765625 4.203125 -3.546875 C 2.554688 -5.335938 1.734375 -7.5625 1.734375 -10.21875 C 1.734375 -12.875 2.554688 -15.097656 4.203125 -16.890625 C 5.847656 -18.679688 7.941406 -19.578125 10.484375 -19.578125 C 13.035156 -19.578125 15.113281 -18.523438 16.71875 -16.421875 L 16.71875 -19.28125 Z M 5.734375 -10.390625 C 5.734375 -8.804688 6.21875 -7.4375 7.1875 -6.28125 C 8.164062 -5.132812 9.484375 -4.5625 11.140625 -4.5625 C 12.796875 -4.5625 14.140625 -5.117188 15.171875 -6.234375 C 16.203125 -7.347656 16.71875 -8.734375 16.71875 -10.390625 C 16.71875 -12.046875 16.195312 -13.445312 15.15625 -14.59375 C 14.113281 -15.738281 12.769531 -16.3125 11.125 -16.3125 C 9.476562 -16.3125 8.164062 -15.71875 7.1875 -14.53125 C 6.21875 -13.351562 5.734375 -11.972656 5.734375 -10.390625 Z M 5.734375 -10.390625 "/></g></g></g><g fill="#5389a3" fill-opacity="1"><g transform="translate(688.743993, 223.707513)"><g><path d="M 6.890625 -21.75 L 3.484375 -21.75 L 7.328125 -26.828125 L 11.3125 -25.046875 Z M 2.9375 -19.28125 L 7 -19.28125 L 7 0 L 2.9375 0 Z M 2.9375 -19.28125 "/></g></g></g><g fill="#5389a3" fill-opacity="1"><g transform="translate(698.676795, 223.707513)"><g><path d="M 18.5625 0 L 14.859375 0 L 14.859375 -2.578125 C 13.265625 -0.660156 11.128906 0.296875 8.453125 0.296875 C 6.441406 0.296875 4.773438 -0.269531 3.453125 -1.40625 C 2.140625 -2.550781 1.484375 -4.070312 1.484375 -5.96875 C 1.484375 -7.863281 2.179688 -9.28125 3.578125 -10.21875 C 4.984375 -11.164062 6.882812 -11.640625 9.28125 -11.640625 L 14.53125 -11.640625 L 14.53125 -12.359375 C 14.53125 -14.921875 13.109375 -16.203125 10.265625 -16.203125 C 8.472656 -16.203125 6.609375 -15.550781 4.671875 -14.25 L 2.859375 -16.78125 C 5.203125 -18.644531 7.863281 -19.578125 10.84375 -19.578125 C 13.113281 -19.578125 14.96875 -19 16.40625 -17.84375 C 17.84375 -16.695312 18.5625 -14.894531 18.5625 -12.4375 Z M 14.5 -7.171875 L 14.5 -8.8125 L 9.9375 -8.8125 C 7.007812 -8.8125 5.546875 -7.890625 5.546875 -6.046875 C 5.546875 -5.109375 5.90625 -4.390625 6.625 -3.890625 C 7.351562 -3.398438 8.363281 -3.15625 9.65625 -3.15625 C 10.945312 -3.15625 12.078125 -3.515625 13.046875 -4.234375 C 14.015625 -4.960938 14.5 -5.941406 14.5 -7.171875 Z M 14.5 -7.171875 "/></g></g></g></svg>