<svg xmlns="http://www.w3.org/2000/svg" xmlns:xlink="http://www.w3.org/1999/xlink" width="416" zoomAndPan="magnify" viewBox="0 0 312 383.999986" height="512" preserveAspectRatio="xMidYMid meet" version="1.0"><defs><g/><clipPath id="c542f3af9c"><path d="M 101.167969 165.089844 L 106.363281 165.089844 L 106.363281 170.285156 L 101.167969 170.285156 Z M 101.167969 165.089844 " clip-rule="nonzero"/></clipPath><clipPath id="1f43c24710"><path d="M 106.03125 168.21875 C 105.730469 169.46875 104.476562 170.238281 103.226562 169.941406 C 101.976562 169.640625 101.207031 168.386719 101.503906 167.136719 C 101.800781 165.882812 103.058594 165.113281 104.308594 165.414062 C 105.558594 165.714844 106.328125 166.96875 106.03125 168.21875 " clip-rule="nonzero"/></clipPath><clipPath id="4558b435ea"><path d="M 102.066406 205.664062 L 107.351562 205.664062 L 107.351562 211 L 102.066406 211 Z M 102.066406 205.664062 " clip-rule="nonzero"/></clipPath><clipPath id="d54fb0640f"><path d="M 104.1875 210.679688 C 102.898438 210.40625 102.078125 209.140625 102.351562 207.851562 C 102.625 206.566406 103.890625 205.742188 105.175781 206.015625 C 106.464844 206.289062 107.289062 207.554688 107.015625 208.84375 C 106.742188 210.128906 105.476562 210.953125 104.191406 210.679688 " clip-rule="nonzero"/></clipPath><clipPath id="8d406e0d85"><path d="M 82.449219 212.382812 L 87.734375 212.382812 L 87.734375 217.667969 L 82.449219 217.667969 Z M 82.449219 212.382812 " clip-rule="nonzero"/></clipPath><clipPath id="3021335a8b"><path d="M 82.859375 214.308594 C 83.234375 213.082031 84.53125 212.386719 85.761719 212.761719 C 86.992188 213.136719 87.6875 214.433594 87.3125 215.664062 C 86.9375 216.894531 85.636719 217.589844 84.40625 217.214844 C 83.179688 216.839844 82.484375 215.539062 82.859375 214.308594 " clip-rule="nonzero"/></clipPath><clipPath id="fc80b8132b"><path d="M 98.214844 167.867188 L 103.140625 167.867188 L 103.140625 174.496094 L 98.214844 174.496094 Z M 98.214844 167.867188 " clip-rule="nonzero"/></clipPath><clipPath id="91bc809059"><path d="M 102.199219 167.945312 L 98.269531 173.828125 L 99.207031 174.457031 L 103.136719 168.570312 L 102.199219 167.945312 " clip-rule="nonzero"/></clipPath><clipPath id="519c62e349"><path d="M 84.242188 164.464844 L 97.050781 164.464844 L 97.050781 178.617188 L 84.242188 178.617188 Z M 84.242188 164.464844 " clip-rule="nonzero"/></clipPath><clipPath id="1e7c0ddfbc"><path d="M 84.242188 165.507812 L 95.851562 178.535156 L 97.011719 177.503906 L 85.402344 164.476562 L 84.242188 165.507812 " clip-rule="nonzero"/></clipPath><clipPath id="54fab244e8"><path d="M 92.214844 161.152344 L 102.601562 161.152344 L 102.601562 168 L 92.214844 168 Z M 92.214844 161.152344 " clip-rule="nonzero"/></clipPath><clipPath id="1bc01ff27a"><path d="M 102.078125 167.957031 L 102.585938 166.949219 L 98.273438 164.761719 C 98.488281 163.179688 97.394531 161.710938 95.808594 161.476562 C 94.210938 161.238281 92.722656 162.339844 92.484375 163.9375 C 92.246094 165.535156 93.347656 167.019531 94.945312 167.261719 C 96.164062 167.441406 97.316406 166.84375 97.902344 165.839844 L 102.078125 167.957031 " clip-rule="nonzero"/></clipPath><clipPath id="00c12a2562"><path d="M 88.183594 169.121094 L 101 169.121094 L 101 182 L 88.183594 182 Z M 88.183594 169.121094 " clip-rule="nonzero"/></clipPath><clipPath id="05efbc72f1"><path d="M 96.160156 169.910156 C 92.972656 169.148438 89.773438 171.109375 89.011719 174.296875 C 88.25 177.480469 90.214844 180.679688 93.398438 181.441406 C 96.585938 182.203125 99.78125 180.242188 100.542969 177.054688 C 101.304688 173.871094 99.34375 170.671875 96.160156 169.910156 " clip-rule="nonzero"/></clipPath><clipPath id="1a96bd35c0"><path d="M 78 158 L 89 158 L 89 169 L 78 169 Z M 78 158 " clip-rule="nonzero"/></clipPath><clipPath id="8d515dbeb2"><path d="M 84.230469 158.132812 C 81.34375 157.703125 78.660156 159.691406 78.226562 162.574219 C 77.796875 165.457031 79.785156 168.144531 82.667969 168.574219 C 85.550781 169.007812 88.238281 167.019531 88.667969 164.136719 C 89.101562 161.25 87.113281 158.566406 84.230469 158.132812 " clip-rule="nonzero"/></clipPath><clipPath id="f5341a16f0"><path d="M 85.765625 208.441406 L 90.960938 208.441406 L 90.960938 214.890625 L 85.765625 214.890625 Z M 85.765625 208.441406 " clip-rule="nonzero"/></clipPath><clipPath id="547cbe2478"><path d="M 90.945312 209.179688 L 90.046875 208.496094 L 85.769531 214.132812 L 86.667969 214.816406 L 90.945312 209.179688 " clip-rule="nonzero"/></clipPath><clipPath id="11d7c91a6a"><path d="M 92.035156 205.039062 L 103.945312 205.039062 L 103.945312 219.636719 L 92.035156 219.636719 Z M 92.035156 205.039062 " clip-rule="nonzero"/></clipPath><clipPath id="b06f8b6c82"><path d="M 93.058594 205.085938 L 92.046875 205.882812 L 102.847656 219.589844 L 103.859375 218.792969 L 93.058594 205.085938 " clip-rule="nonzero"/></clipPath><clipPath id="ecd0a7aa06"><path d="M 86.210938 214.800781 L 96.511719 214.800781 L 96.511719 222 L 86.210938 222 Z M 86.210938 214.800781 " clip-rule="nonzero"/></clipPath><clipPath id="2d95505d37"><path d="M 93.867188 215.9375 C 92.660156 215.679688 91.472656 216.207031 90.828125 217.171875 L 86.789062 214.808594 L 86.21875 215.78125 L 90.394531 218.226562 C 90.082031 219.792969 91.085938 221.324219 92.65625 221.65625 C 94.234375 221.992188 95.789062 220.980469 96.121094 219.402344 C 96.457031 217.820312 95.449219 216.269531 93.867188 215.933594 " clip-rule="nonzero"/></clipPath><clipPath id="dedc456fe2"><path d="M 82.09375 172.347656 L 87.375 172.347656 L 87.375 177.628906 L 82.09375 177.628906 Z M 82.09375 172.347656 " clip-rule="nonzero"/></clipPath><clipPath id="753e47f075"><path d="M 84.253906 177.335938 C 82.964844 177.066406 82.144531 175.800781 82.417969 174.511719 C 82.691406 173.222656 83.957031 172.398438 85.242188 172.671875 C 86.53125 172.945312 87.355469 174.210938 87.082031 175.5 C 86.808594 176.785156 85.542969 177.609375 84.253906 177.335938 " clip-rule="nonzero"/></clipPath><clipPath id="ba29ddb2bd"><path d="M 88 201 L 101 201 L 101 214 L 88 214 Z M 88 201 " clip-rule="nonzero"/></clipPath><clipPath id="621a53b589"><path d="M 96.265625 201.875 C 93.132812 200.921875 89.824219 202.6875 88.867188 205.820312 C 87.914062 208.953125 89.683594 212.265625 92.816406 213.21875 C 95.949219 214.171875 99.261719 212.40625 100.214844 209.273438 C 101.167969 206.140625 99.398438 202.828125 96.265625 201.875 " clip-rule="nonzero"/></clipPath><clipPath id="2016b80243"><path d="M 99.289062 215 L 110.933594 215 L 110.933594 226 L 99.289062 226 Z M 99.289062 215 " clip-rule="nonzero"/></clipPath><clipPath id="c336f45d26"><path d="M 106.199219 215.363281 C 103.347656 214.761719 100.542969 216.582031 99.941406 219.433594 C 99.339844 222.289062 101.160156 225.089844 104.011719 225.695312 C 106.863281 226.296875 109.664062 224.476562 110.269531 221.621094 C 110.875 218.769531 109.050781 215.96875 106.199219 215.363281 " clip-rule="nonzero"/></clipPath><clipPath id="bb3e225f64"><path d="M 77.703125 180 L 111.828125 180 L 111.828125 203.875 L 77.703125 203.875 Z M 77.703125 180 " clip-rule="nonzero"/></clipPath><clipPath id="2b1718f7af"><path d="M 111.804688 191.40625 C 111.800781 191.269531 111.800781 191.128906 111.796875 190.988281 C 111.792969 190.898438 111.785156 190.808594 111.78125 190.71875 C 111.738281 189.90625 111.652344 189.089844 111.519531 188.269531 C 111.179688 186.191406 110.402344 184.269531 109.019531 182.632812 C 108.898438 182.492188 108.777344 182.359375 108.648438 182.230469 C 106.820312 180.03125 104.808594 179.917969 102.183594 181.730469 C 101.171875 182.433594 100.183594 183.164062 99.167969 183.855469 C 96.351562 185.765625 93.515625 185.773438 90.6875 183.878906 C 89.316406 182.957031 87.996094 181.941406 86.574219 181.105469 C 84.839844 180.082031 83.554688 180.101562 82.132812 181.136719 C 81.609375 181.375 81.117188 181.769531 80.617188 182.371094 C 79.019531 184.296875 78.320312 186.617188 77.972656 189.011719 C 77.925781 189.332031 77.890625 189.648438 77.859375 189.964844 C 77.785156 190.648438 77.75 191.332031 77.75 192.023438 C 77.75 192.101562 77.753906 192.179688 77.753906 192.257812 C 77.753906 192.421875 77.757812 192.585938 77.765625 192.753906 C 77.765625 192.820312 77.769531 192.886719 77.773438 192.957031 C 77.8125 193.765625 77.898438 194.582031 78.03125 195.402344 C 78.363281 197.480469 79.140625 199.402344 80.519531 201.042969 C 80.625 201.167969 80.734375 201.289062 80.847656 201.40625 C 82.703125 203.691406 84.734375 203.832031 87.394531 201.984375 C 88.402344 201.285156 89.390625 200.546875 90.40625 199.855469 C 93.21875 197.941406 96.050781 197.925781 98.886719 199.816406 C 100.261719 200.734375 101.582031 201.746094 103.003906 202.582031 C 104.695312 203.574219 105.960938 203.578125 107.332031 202.621094 C 107.882812 202.390625 108.398438 201.984375 108.921875 201.359375 C 110.523438 199.4375 111.222656 197.121094 111.578125 194.726562 C 111.617188 194.4375 111.65625 194.152344 111.6875 193.867188 C 111.769531 193.152344 111.808594 192.429688 111.808594 191.703125 C 111.808594 191.605469 111.804688 191.503906 111.804688 191.40625 " clip-rule="nonzero"/></clipPath><clipPath id="ffd1715667"><path d="M 82.683594 212.574219 L 87.660156 212.574219 L 87.660156 217.554688 L 82.683594 217.554688 Z M 82.683594 212.574219 " clip-rule="nonzero"/></clipPath><clipPath id="7ad7413b70"><path d="M 85.171875 212.574219 C 83.796875 212.574219 82.683594 213.6875 82.683594 215.0625 C 82.683594 216.4375 83.796875 217.554688 85.171875 217.554688 C 86.546875 217.554688 87.660156 216.4375 87.660156 215.0625 C 87.660156 213.6875 86.546875 212.574219 85.171875 212.574219 " clip-rule="nonzero"/></clipPath><clipPath id="73ef0a28b4"><path d="M 101.230469 165.09375 L 106.207031 165.09375 L 106.207031 170.074219 L 101.230469 170.074219 Z M 101.230469 165.09375 " clip-rule="nonzero"/></clipPath><clipPath id="46e9cce77c"><path d="M 103.71875 165.09375 C 102.34375 165.09375 101.230469 166.207031 101.230469 167.582031 C 101.230469 168.957031 102.34375 170.074219 103.71875 170.074219 C 105.09375 170.074219 106.207031 168.957031 106.207031 167.582031 C 106.207031 166.207031 105.09375 165.09375 103.71875 165.09375 " clip-rule="nonzero"/></clipPath></defs><rect x="-31.2" width="374.4" fill="#ffffff" y="-38.399999" height="460.799983" fill-opacity="1"/><rect x="-31.2" width="374.4" fill="#ffffff" y="-38.399999" height="460.799983" fill-opacity="1"/><g clip-path="url(#c542f3af9c)"><g clip-path="url(#1f43c24710)"><path fill="#002b49" d="M 77.078125 157.03125 L 112.457031 157.03125 L 112.457031 226.980469 L 77.078125 226.980469 Z M 77.078125 157.03125 " fill-opacity="1" fill-rule="nonzero"/></g></g><g clip-path="url(#4558b435ea)"><g clip-path="url(#d54fb0640f)"><path fill="#9bd3dd" d="M 77.078125 157.03125 L 112.457031 157.03125 L 112.457031 226.980469 L 77.078125 226.980469 Z M 77.078125 157.03125 " fill-opacity="1" fill-rule="nonzero"/></g></g><g clip-path="url(#8d406e0d85)"><g clip-path="url(#3021335a8b)"><path fill="#002b49" d="M 77.078125 157.03125 L 112.457031 157.03125 L 112.457031 226.980469 L 77.078125 226.980469 Z M 77.078125 157.03125 " fill-opacity="1" fill-rule="nonzero"/></g></g><g clip-path="url(#fc80b8132b)"><g clip-path="url(#91bc809059)"><path fill="#5489a3" d="M 77.078125 157.03125 L 112.457031 157.03125 L 112.457031 226.980469 L 77.078125 226.980469 Z M 77.078125 157.03125 " fill-opacity="1" fill-rule="nonzero"/></g></g><g clip-path="url(#519c62e349)"><g clip-path="url(#1e7c0ddfbc)"><path fill="#5489a3" d="M 77.078125 157.03125 L 112.457031 157.03125 L 112.457031 226.980469 L 77.078125 226.980469 Z M 77.078125 157.03125 " fill-opacity="1" fill-rule="nonzero"/></g></g><g clip-path="url(#54fab244e8)"><g clip-path="url(#1bc01ff27a)"><path fill="#5489a3" d="M 77.078125 157.03125 L 112.457031 157.03125 L 112.457031 226.980469 L 77.078125 226.980469 Z M 77.078125 157.03125 " fill-opacity="1" fill-rule="nonzero"/></g></g><g clip-path="url(#00c12a2562)"><g clip-path="url(#05efbc72f1)"><path fill="#01426a" d="M 77.078125 157.03125 L 112.457031 157.03125 L 112.457031 226.980469 L 77.078125 226.980469 Z M 77.078125 157.03125 " fill-opacity="1" fill-rule="nonzero"/></g></g><g clip-path="url(#1a96bd35c0)"><g clip-path="url(#8d515dbeb2)"><path fill="#01426a" d="M 77.078125 157.03125 L 112.457031 157.03125 L 112.457031 226.980469 L 77.078125 226.980469 Z M 77.078125 157.03125 " fill-opacity="1" fill-rule="nonzero"/></g></g><g clip-path="url(#f5341a16f0)"><g clip-path="url(#547cbe2478)"><path fill="#5489a3" d="M 77.078125 157.03125 L 112.457031 157.03125 L 112.457031 226.980469 L 77.078125 226.980469 Z M 77.078125 157.03125 " fill-opacity="1" fill-rule="nonzero"/></g></g><g clip-path="url(#11d7c91a6a)"><g clip-path="url(#b06f8b6c82)"><path fill="#5489a3" d="M 77.078125 157.03125 L 112.457031 157.03125 L 112.457031 226.980469 L 77.078125 226.980469 Z M 77.078125 157.03125 " fill-opacity="1" fill-rule="nonzero"/></g></g><g clip-path="url(#ecd0a7aa06)"><g clip-path="url(#2d95505d37)"><path fill="#5489a3" d="M 77.078125 157.03125 L 112.457031 157.03125 L 112.457031 226.980469 L 77.078125 226.980469 Z M 77.078125 157.03125 " fill-opacity="1" fill-rule="nonzero"/></g></g><g clip-path="url(#dedc456fe2)"><g clip-path="url(#753e47f075)"><path fill="#9bd3dd" d="M 77.078125 157.03125 L 112.457031 157.03125 L 112.457031 226.980469 L 77.078125 226.980469 Z M 77.078125 157.03125 " fill-opacity="1" fill-rule="nonzero"/></g></g><g clip-path="url(#ba29ddb2bd)"><g clip-path="url(#621a53b589)"><path fill="#01426a" d="M 77.078125 157.03125 L 112.457031 157.03125 L 112.457031 226.980469 L 77.078125 226.980469 Z M 77.078125 157.03125 " fill-opacity="1" fill-rule="nonzero"/></g></g><g clip-path="url(#2016b80243)"><g clip-path="url(#c336f45d26)"><path fill="#01426a" d="M 77.078125 157.03125 L 112.457031 157.03125 L 112.457031 226.980469 L 77.078125 226.980469 Z M 77.078125 157.03125 " fill-opacity="1" fill-rule="nonzero"/></g></g><g clip-path="url(#bb3e225f64)"><g clip-path="url(#2b1718f7af)"><path fill="#002b49" d="M 77.078125 157.03125 L 112.457031 157.03125 L 112.457031 226.980469 L 77.078125 226.980469 Z M 77.078125 157.03125 " fill-opacity="1" fill-rule="nonzero"/></g></g><g clip-path="url(#ffd1715667)"><g clip-path="url(#7ad7413b70)"><path fill="#002b49" d="M 82.683594 212.574219 L 87.660156 212.574219 L 87.660156 217.554688 L 82.683594 217.554688 Z M 82.683594 212.574219 " fill-opacity="1" fill-rule="nonzero"/></g></g><g clip-path="url(#73ef0a28b4)"><g clip-path="url(#46e9cce77c)"><path fill="#002b49" d="M 101.230469 165.09375 L 106.207031 165.09375 L 106.207031 170.074219 L 101.230469 170.074219 Z M 101.230469 165.09375 " fill-opacity="1" fill-rule="nonzero"/></g></g><g fill="#5389a3" fill-opacity="1"><g transform="translate(121.235922, 199.110678)"><g><path d="M 2.609375 -5.125 C 2.316406 -5.125 2.078125 -5.066406 1.890625 -4.953125 C 1.703125 -4.835938 1.609375 -4.660156 1.609375 -4.421875 C 1.609375 -4.179688 1.703125 -3.992188 1.890625 -3.859375 C 2.078125 -3.734375 2.472656 -3.597656 3.078125 -3.453125 C 3.679688 -3.304688 4.132812 -3.097656 4.4375 -2.828125 C 4.75 -2.566406 4.90625 -2.175781 4.90625 -1.65625 C 4.90625 -1.144531 4.710938 -0.726562 4.328125 -0.40625 C 3.941406 -0.09375 3.429688 0.0625 2.796875 0.0625 C 1.867188 0.0625 1.050781 -0.253906 0.34375 -0.890625 L 0.96875 -1.640625 C 1.5625 -1.117188 2.179688 -0.859375 2.828125 -0.859375 C 3.148438 -0.859375 3.40625 -0.925781 3.59375 -1.0625 C 3.78125 -1.207031 3.875 -1.394531 3.875 -1.625 C 3.875 -1.851562 3.785156 -2.03125 3.609375 -2.15625 C 3.429688 -2.28125 3.125 -2.394531 2.6875 -2.5 C 2.25 -2.601562 1.914062 -2.695312 1.6875 -2.78125 C 1.46875 -2.875 1.269531 -2.988281 1.09375 -3.125 C 0.75 -3.394531 0.578125 -3.800781 0.578125 -4.34375 C 0.578125 -4.894531 0.773438 -5.316406 1.171875 -5.609375 C 1.566406 -5.898438 2.054688 -6.046875 2.640625 -6.046875 C 3.023438 -6.046875 3.398438 -5.984375 3.765625 -5.859375 C 4.140625 -5.742188 4.460938 -5.570312 4.734375 -5.34375 L 4.203125 -4.59375 C 4.023438 -4.75 3.785156 -4.875 3.484375 -4.96875 C 3.191406 -5.070312 2.898438 -5.125 2.609375 -5.125 Z M 2.609375 -5.125 "/></g></g></g><g fill="#5389a3" fill-opacity="1"><g transform="translate(126.560179, 199.110678)"><g><path d="M 1.734375 -1.1875 C 2.003906 -0.914062 2.34375 -0.78125 2.75 -0.78125 C 3.164062 -0.78125 3.503906 -0.914062 3.765625 -1.1875 C 4.035156 -1.457031 4.171875 -1.8125 4.171875 -2.25 C 4.171875 -2.6875 4.035156 -3.039062 3.765625 -3.3125 C 3.503906 -3.582031 3.164062 -3.71875 2.75 -3.71875 C 2.34375 -3.71875 2.003906 -3.582031 1.734375 -3.3125 C 1.460938 -3.039062 1.328125 -2.6875 1.328125 -2.25 C 1.328125 -1.8125 1.460938 -1.457031 1.734375 -1.1875 Z M 4.4375 -0.609375 C 3.988281 -0.160156 3.425781 0.0625 2.75 0.0625 C 2.070312 0.0625 1.507812 -0.160156 1.0625 -0.609375 C 0.613281 -1.054688 0.390625 -1.601562 0.390625 -2.25 C 0.390625 -2.894531 0.613281 -3.441406 1.0625 -3.890625 C 1.507812 -4.335938 2.070312 -4.5625 2.75 -4.5625 C 3.425781 -4.5625 3.988281 -4.335938 4.4375 -3.890625 C 4.894531 -3.441406 5.125 -2.894531 5.125 -2.25 C 5.125 -1.601562 4.894531 -1.054688 4.4375 -0.609375 Z M 4.4375 -0.609375 "/></g></g></g><g fill="#5389a3" fill-opacity="1"><g transform="translate(132.070362, 199.110678)"><g><path d="M 2.671875 0.0625 C 2.046875 0.0625 1.507812 -0.144531 1.0625 -0.5625 C 0.613281 -0.988281 0.390625 -1.546875 0.390625 -2.234375 C 0.390625 -2.921875 0.625 -3.476562 1.09375 -3.90625 C 1.5625 -4.34375 2.132812 -4.5625 2.8125 -4.5625 C 3.488281 -4.5625 4.0625 -4.328125 4.53125 -3.859375 L 3.96875 -3.171875 C 3.582031 -3.515625 3.191406 -3.6875 2.796875 -3.6875 C 2.398438 -3.6875 2.054688 -3.554688 1.765625 -3.296875 C 1.472656 -3.035156 1.328125 -2.695312 1.328125 -2.28125 C 1.328125 -1.863281 1.472656 -1.507812 1.765625 -1.21875 C 2.054688 -0.9375 2.410156 -0.796875 2.828125 -0.796875 C 3.242188 -0.796875 3.640625 -0.988281 4.015625 -1.375 L 4.578125 -0.765625 C 4.023438 -0.210938 3.390625 0.0625 2.671875 0.0625 Z M 2.671875 0.0625 "/></g></g></g><g fill="#5389a3" fill-opacity="1"><g transform="translate(136.938254, 199.110678)"><g><path d="M 1.625 0 L 0.6875 0 L 0.6875 -4.5 L 1.625 -4.5 Z M 0.734375 -5.390625 C 0.617188 -5.515625 0.5625 -5.65625 0.5625 -5.8125 C 0.5625 -5.976562 0.617188 -6.117188 0.734375 -6.234375 C 0.859375 -6.359375 1 -6.421875 1.15625 -6.421875 C 1.320312 -6.421875 1.460938 -6.359375 1.578125 -6.234375 C 1.703125 -6.117188 1.765625 -5.976562 1.765625 -5.8125 C 1.765625 -5.65625 1.703125 -5.515625 1.578125 -5.390625 C 1.460938 -5.273438 1.320312 -5.21875 1.15625 -5.21875 C 1 -5.21875 0.859375 -5.273438 0.734375 -5.390625 Z M 0.734375 -5.390625 "/></g></g></g><g fill="#5389a3" fill-opacity="1"><g transform="translate(139.253884, 199.110678)"><g><path d="M 4.875 -1.828125 L 1.34375 -1.828125 C 1.363281 -1.503906 1.507812 -1.242188 1.78125 -1.046875 C 2.0625 -0.847656 2.378906 -0.75 2.734375 -0.75 C 3.296875 -0.75 3.726562 -0.925781 4.03125 -1.28125 L 4.5625 -0.6875 C 4.082031 -0.1875 3.453125 0.0625 2.671875 0.0625 C 2.035156 0.0625 1.492188 -0.144531 1.046875 -0.5625 C 0.609375 -0.976562 0.390625 -1.539062 0.390625 -2.25 C 0.390625 -2.957031 0.613281 -3.519531 1.0625 -3.9375 C 1.519531 -4.351562 2.050781 -4.5625 2.65625 -4.5625 C 3.269531 -4.5625 3.789062 -4.375 4.21875 -4 C 4.65625 -3.632812 4.875 -3.128906 4.875 -2.484375 Z M 1.34375 -2.578125 L 3.921875 -2.578125 C 3.921875 -2.953125 3.800781 -3.238281 3.5625 -3.4375 C 3.332031 -3.644531 3.039062 -3.75 2.6875 -3.75 C 2.34375 -3.75 2.03125 -3.644531 1.75 -3.4375 C 1.476562 -3.226562 1.34375 -2.941406 1.34375 -2.578125 Z M 1.34375 -2.578125 "/></g></g></g><g fill="#5389a3" fill-opacity="1"><g transform="translate(144.476726, 199.110678)"><g><path d="M 2.515625 0.0625 C 1.953125 0.0625 1.457031 -0.148438 1.03125 -0.578125 C 0.601562 -1.003906 0.390625 -1.566406 0.390625 -2.265625 C 0.390625 -2.960938 0.609375 -3.519531 1.046875 -3.9375 C 1.484375 -4.351562 2 -4.5625 2.59375 -4.5625 C 3.195312 -4.5625 3.679688 -4.304688 4.046875 -3.796875 L 4.046875 -6.265625 L 5 -6.265625 L 5 0 L 4.046875 0 L 4.046875 -0.671875 C 3.703125 -0.179688 3.191406 0.0625 2.515625 0.0625 Z M 1.34375 -2.21875 C 1.34375 -1.789062 1.476562 -1.441406 1.75 -1.171875 C 2.03125 -0.898438 2.351562 -0.765625 2.71875 -0.765625 C 3.09375 -0.765625 3.410156 -0.898438 3.671875 -1.171875 C 3.929688 -1.453125 4.0625 -1.804688 4.0625 -2.234375 C 4.0625 -2.660156 3.929688 -3.015625 3.671875 -3.296875 C 3.410156 -3.585938 3.09375 -3.734375 2.71875 -3.734375 C 2.34375 -3.734375 2.019531 -3.585938 1.75 -3.296875 C 1.476562 -3.015625 1.34375 -2.65625 1.34375 -2.21875 Z M 1.34375 -2.21875 "/></g></g></g><g fill="#5389a3" fill-opacity="1"><g transform="translate(150.155933, 199.110678)"><g><path d="M 4.328125 0 L 3.46875 0 L 3.46875 -0.59375 C 3.09375 -0.15625 2.59375 0.0625 1.96875 0.0625 C 1.5 0.0625 1.109375 -0.0664062 0.796875 -0.328125 C 0.492188 -0.597656 0.34375 -0.953125 0.34375 -1.390625 C 0.34375 -1.828125 0.503906 -2.15625 0.828125 -2.375 C 1.160156 -2.601562 1.601562 -2.71875 2.15625 -2.71875 L 3.390625 -2.71875 L 3.390625 -2.875 C 3.390625 -3.476562 3.054688 -3.78125 2.390625 -3.78125 C 1.972656 -3.78125 1.539062 -3.628906 1.09375 -3.328125 L 0.671875 -3.90625 C 1.210938 -4.34375 1.832031 -4.5625 2.53125 -4.5625 C 3.0625 -4.5625 3.492188 -4.425781 3.828125 -4.15625 C 4.160156 -3.894531 4.328125 -3.476562 4.328125 -2.90625 Z M 3.375 -1.671875 L 3.375 -2.046875 L 2.3125 -2.046875 C 1.632812 -2.046875 1.296875 -1.832031 1.296875 -1.40625 C 1.296875 -1.1875 1.378906 -1.019531 1.546875 -0.90625 C 1.710938 -0.789062 1.945312 -0.734375 2.25 -0.734375 C 2.550781 -0.734375 2.8125 -0.816406 3.03125 -0.984375 C 3.257812 -1.160156 3.375 -1.390625 3.375 -1.671875 Z M 3.375 -1.671875 "/></g></g></g><g fill="#5389a3" fill-opacity="1"><g transform="translate(155.116788, 199.110678)"><g><path d="M 2.515625 0.0625 C 1.953125 0.0625 1.457031 -0.148438 1.03125 -0.578125 C 0.601562 -1.003906 0.390625 -1.566406 0.390625 -2.265625 C 0.390625 -2.960938 0.609375 -3.519531 1.046875 -3.9375 C 1.484375 -4.351562 2 -4.5625 2.59375 -4.5625 C 3.195312 -4.5625 3.679688 -4.304688 4.046875 -3.796875 L 4.046875 -6.265625 L 5 -6.265625 L 5 0 L 4.046875 0 L 4.046875 -0.671875 C 3.703125 -0.179688 3.191406 0.0625 2.515625 0.0625 Z M 1.34375 -2.21875 C 1.34375 -1.789062 1.476562 -1.441406 1.75 -1.171875 C 2.03125 -0.898438 2.351562 -0.765625 2.71875 -0.765625 C 3.09375 -0.765625 3.410156 -0.898438 3.671875 -1.171875 C 3.929688 -1.453125 4.0625 -1.804688 4.0625 -2.234375 C 4.0625 -2.660156 3.929688 -3.015625 3.671875 -3.296875 C 3.410156 -3.585938 3.09375 -3.734375 2.71875 -3.734375 C 2.34375 -3.734375 2.019531 -3.585938 1.75 -3.296875 C 1.476562 -3.015625 1.34375 -2.65625 1.34375 -2.21875 Z M 1.34375 -2.21875 "/></g></g></g><g fill="#5389a3" fill-opacity="1"><g transform="translate(160.795998, 199.110678)"><g/></g></g><g fill="#5389a3" fill-opacity="1"><g transform="translate(163.111626, 199.110678)"><g><path d="M 1.8125 0 L 0.8125 0 L 0.8125 -5.90625 L 2.375 -5.90625 L 4.15625 -2.203125 L 5.9375 -5.90625 L 7.484375 -5.90625 L 7.484375 0 L 6.484375 0 L 6.484375 -4.609375 L 4.421875 -0.515625 L 3.875 -0.515625 L 1.8125 -4.609375 Z M 1.8125 0 "/></g></g></g><g fill="#5389a3" fill-opacity="1"><g transform="translate(171.419157, 199.110678)"><g><path d="M 4.875 -1.828125 L 1.34375 -1.828125 C 1.363281 -1.503906 1.507812 -1.242188 1.78125 -1.046875 C 2.0625 -0.847656 2.378906 -0.75 2.734375 -0.75 C 3.296875 -0.75 3.726562 -0.925781 4.03125 -1.28125 L 4.5625 -0.6875 C 4.082031 -0.1875 3.453125 0.0625 2.671875 0.0625 C 2.035156 0.0625 1.492188 -0.144531 1.046875 -0.5625 C 0.609375 -0.976562 0.390625 -1.539062 0.390625 -2.25 C 0.390625 -2.957031 0.613281 -3.519531 1.0625 -3.9375 C 1.519531 -4.351562 2.050781 -4.5625 2.65625 -4.5625 C 3.269531 -4.5625 3.789062 -4.375 4.21875 -4 C 4.65625 -3.632812 4.875 -3.128906 4.875 -2.484375 Z M 1.34375 -2.578125 L 3.921875 -2.578125 C 3.921875 -2.953125 3.800781 -3.238281 3.5625 -3.4375 C 3.332031 -3.644531 3.039062 -3.75 2.6875 -3.75 C 2.34375 -3.75 2.03125 -3.644531 1.75 -3.4375 C 1.476562 -3.226562 1.34375 -2.941406 1.34375 -2.578125 Z M 1.34375 -2.578125 "/></g></g></g><g fill="#5389a3" fill-opacity="1"><g transform="translate(176.642001, 199.110678)"><g><path d="M 1.40625 -4.5 L 2.359375 -3.015625 L 3.359375 -4.5 L 4.484375 -4.5 L 2.921875 -2.296875 L 4.5625 0 L 3.390625 0 L 2.3125 -1.5 L 1.265625 0 L 0.15625 0 L 1.765625 -2.296875 L 0.25 -4.5 Z M 1.40625 -4.5 "/></g></g></g><g fill="#5389a3" fill-opacity="1"><g transform="translate(181.357772, 199.110678)"><g><path d="M 1.625 0 L 0.6875 0 L 0.6875 -4.5 L 1.625 -4.5 Z M 0.734375 -5.390625 C 0.617188 -5.515625 0.5625 -5.65625 0.5625 -5.8125 C 0.5625 -5.976562 0.617188 -6.117188 0.734375 -6.234375 C 0.859375 -6.359375 1 -6.421875 1.15625 -6.421875 C 1.320312 -6.421875 1.460938 -6.359375 1.578125 -6.234375 C 1.703125 -6.117188 1.765625 -5.976562 1.765625 -5.8125 C 1.765625 -5.65625 1.703125 -5.515625 1.578125 -5.390625 C 1.460938 -5.273438 1.320312 -5.21875 1.15625 -5.21875 C 1 -5.21875 0.859375 -5.273438 0.734375 -5.390625 Z M 0.734375 -5.390625 "/></g></g></g><g fill="#5389a3" fill-opacity="1"><g transform="translate(183.6734, 199.110678)"><g><path d="M 2.671875 0.0625 C 2.046875 0.0625 1.507812 -0.144531 1.0625 -0.5625 C 0.613281 -0.988281 0.390625 -1.546875 0.390625 -2.234375 C 0.390625 -2.921875 0.625 -3.476562 1.09375 -3.90625 C 1.5625 -4.34375 2.132812 -4.5625 2.8125 -4.5625 C 3.488281 -4.5625 4.0625 -4.328125 4.53125 -3.859375 L 3.96875 -3.171875 C 3.582031 -3.515625 3.191406 -3.6875 2.796875 -3.6875 C 2.398438 -3.6875 2.054688 -3.554688 1.765625 -3.296875 C 1.472656 -3.035156 1.328125 -2.695312 1.328125 -2.28125 C 1.328125 -1.863281 1.472656 -1.507812 1.765625 -1.21875 C 2.054688 -0.9375 2.410156 -0.796875 2.828125 -0.796875 C 3.242188 -0.796875 3.640625 -0.988281 4.015625 -1.375 L 4.578125 -0.765625 C 4.023438 -0.210938 3.390625 0.0625 2.671875 0.0625 Z M 2.671875 0.0625 "/></g></g></g><g fill="#5389a3" fill-opacity="1"><g transform="translate(188.541292, 199.110678)"><g><path d="M 4.328125 0 L 3.46875 0 L 3.46875 -0.59375 C 3.09375 -0.15625 2.59375 0.0625 1.96875 0.0625 C 1.5 0.0625 1.109375 -0.0664062 0.796875 -0.328125 C 0.492188 -0.597656 0.34375 -0.953125 0.34375 -1.390625 C 0.34375 -1.828125 0.503906 -2.15625 0.828125 -2.375 C 1.160156 -2.601562 1.601562 -2.71875 2.15625 -2.71875 L 3.390625 -2.71875 L 3.390625 -2.875 C 3.390625 -3.476562 3.054688 -3.78125 2.390625 -3.78125 C 1.972656 -3.78125 1.539062 -3.628906 1.09375 -3.328125 L 0.671875 -3.90625 C 1.210938 -4.34375 1.832031 -4.5625 2.53125 -4.5625 C 3.0625 -4.5625 3.492188 -4.425781 3.828125 -4.15625 C 4.160156 -3.894531 4.328125 -3.476562 4.328125 -2.90625 Z M 3.375 -1.671875 L 3.375 -2.046875 L 2.3125 -2.046875 C 1.632812 -2.046875 1.296875 -1.832031 1.296875 -1.40625 C 1.296875 -1.1875 1.378906 -1.019531 1.546875 -0.90625 C 1.710938 -0.789062 1.945312 -0.734375 2.25 -0.734375 C 2.550781 -0.734375 2.8125 -0.816406 3.03125 -0.984375 C 3.257812 -1.160156 3.375 -1.390625 3.375 -1.671875 Z M 3.375 -1.671875 "/></g></g></g><g fill="#5389a3" fill-opacity="1"><g transform="translate(193.502147, 199.110678)"><g><path d="M 1.625 -2.4375 L 1.625 0 L 0.6875 0 L 0.6875 -4.5 L 1.625 -4.5 L 1.625 -3.671875 C 1.78125 -3.953125 1.988281 -4.171875 2.25 -4.328125 C 2.519531 -4.484375 2.8125 -4.5625 3.125 -4.5625 C 3.632812 -4.5625 4.046875 -4.40625 4.359375 -4.09375 C 4.671875 -3.789062 4.828125 -3.34375 4.828125 -2.75 L 4.828125 0 L 3.875 0 L 3.875 -2.46875 C 3.875 -3.289062 3.53125 -3.703125 2.84375 -3.703125 C 2.519531 -3.703125 2.234375 -3.59375 1.984375 -3.375 C 1.742188 -3.164062 1.625 -2.851562 1.625 -2.4375 Z M 1.625 -2.4375 "/></g></g></g><g fill="#5389a3" fill-opacity="1"><g transform="translate(198.961621, 199.110678)"><g><path d="M 4.328125 0 L 3.46875 0 L 3.46875 -0.59375 C 3.09375 -0.15625 2.59375 0.0625 1.96875 0.0625 C 1.5 0.0625 1.109375 -0.0664062 0.796875 -0.328125 C 0.492188 -0.597656 0.34375 -0.953125 0.34375 -1.390625 C 0.34375 -1.828125 0.503906 -2.15625 0.828125 -2.375 C 1.160156 -2.601562 1.601562 -2.71875 2.15625 -2.71875 L 3.390625 -2.71875 L 3.390625 -2.875 C 3.390625 -3.476562 3.054688 -3.78125 2.390625 -3.78125 C 1.972656 -3.78125 1.539062 -3.628906 1.09375 -3.328125 L 0.671875 -3.90625 C 1.210938 -4.34375 1.832031 -4.5625 2.53125 -4.5625 C 3.0625 -4.5625 3.492188 -4.425781 3.828125 -4.15625 C 4.160156 -3.894531 4.328125 -3.476562 4.328125 -2.90625 Z M 3.375 -1.671875 L 3.375 -2.046875 L 2.3125 -2.046875 C 1.632812 -2.046875 1.296875 -1.832031 1.296875 -1.40625 C 1.296875 -1.1875 1.378906 -1.019531 1.546875 -0.90625 C 1.710938 -0.789062 1.945312 -0.734375 2.25 -0.734375 C 2.550781 -0.734375 2.8125 -0.816406 3.03125 -0.984375 C 3.257812 -1.160156 3.375 -1.390625 3.375 -1.671875 Z M 3.375 -1.671875 "/></g></g></g><g fill="#5389a3" fill-opacity="1"><g transform="translate(203.922472, 199.110678)"><g/></g></g><g fill="#5389a3" fill-opacity="1"><g transform="translate(206.238105, 199.110678)"><g><path d="M 2.515625 0.0625 C 1.953125 0.0625 1.457031 -0.148438 1.03125 -0.578125 C 0.601562 -1.003906 0.390625 -1.566406 0.390625 -2.265625 C 0.390625 -2.960938 0.609375 -3.519531 1.046875 -3.9375 C 1.484375 -4.351562 2 -4.5625 2.59375 -4.5625 C 3.195312 -4.5625 3.679688 -4.304688 4.046875 -3.796875 L 4.046875 -6.265625 L 5 -6.265625 L 5 0 L 4.046875 0 L 4.046875 -0.671875 C 3.703125 -0.179688 3.191406 0.0625 2.515625 0.0625 Z M 1.34375 -2.21875 C 1.34375 -1.789062 1.476562 -1.441406 1.75 -1.171875 C 2.03125 -0.898438 2.351562 -0.765625 2.71875 -0.765625 C 3.09375 -0.765625 3.410156 -0.898438 3.671875 -1.171875 C 3.929688 -1.453125 4.0625 -1.804688 4.0625 -2.234375 C 4.0625 -2.660156 3.929688 -3.015625 3.671875 -3.296875 C 3.410156 -3.585938 3.09375 -3.734375 2.71875 -3.734375 C 2.34375 -3.734375 2.019531 -3.585938 1.75 -3.296875 C 1.476562 -3.015625 1.34375 -2.65625 1.34375 -2.21875 Z M 1.34375 -2.21875 "/></g></g></g><g fill="#5389a3" fill-opacity="1"><g transform="translate(211.917314, 199.110678)"><g><path d="M 4.875 -1.828125 L 1.34375 -1.828125 C 1.363281 -1.503906 1.507812 -1.242188 1.78125 -1.046875 C 2.0625 -0.847656 2.378906 -0.75 2.734375 -0.75 C 3.296875 -0.75 3.726562 -0.925781 4.03125 -1.28125 L 4.5625 -0.6875 C 4.082031 -0.1875 3.453125 0.0625 2.671875 0.0625 C 2.035156 0.0625 1.492188 -0.144531 1.046875 -0.5625 C 0.609375 -0.976562 0.390625 -1.539062 0.390625 -2.25 C 0.390625 -2.957031 0.613281 -3.519531 1.0625 -3.9375 C 1.519531 -4.351562 2.050781 -4.5625 2.65625 -4.5625 C 3.269531 -4.5625 3.789062 -4.375 4.21875 -4 C 4.65625 -3.632812 4.875 -3.128906 4.875 -2.484375 Z M 1.34375 -2.578125 L 3.921875 -2.578125 C 3.921875 -2.953125 3.800781 -3.238281 3.5625 -3.4375 C 3.332031 -3.644531 3.039062 -3.75 2.6875 -3.75 C 2.34375 -3.75 2.03125 -3.644531 1.75 -3.4375 C 1.476562 -3.226562 1.34375 -2.941406 1.34375 -2.578125 Z M 1.34375 -2.578125 "/></g></g></g><g fill="#5389a3" fill-opacity="1"><g transform="translate(217.140018, 199.110678)"><g/></g></g><g fill="#01426a" fill-opacity="1"><g transform="translate(121.235922, 188.368498)"><g><path d="M 4.4375 -1.5 C 5.269531 -1.5 5.953125 -1.832031 6.484375 -2.5 L 7.578125 -1.375 C 6.710938 -0.394531 5.691406 0.09375 4.515625 0.09375 C 3.347656 0.09375 2.382812 -0.273438 1.625 -1.015625 C 0.863281 -1.765625 0.484375 -2.703125 0.484375 -3.828125 C 0.484375 -4.960938 0.867188 -5.90625 1.640625 -6.65625 C 2.410156 -7.414062 3.359375 -7.796875 4.484375 -7.796875 C 5.734375 -7.796875 6.78125 -7.320312 7.625 -6.375 L 6.5625 -5.171875 C 6.03125 -5.835938 5.363281 -6.171875 4.5625 -6.171875 C 3.914062 -6.171875 3.363281 -5.960938 2.90625 -5.546875 C 2.457031 -5.128906 2.234375 -4.566406 2.234375 -3.859375 C 2.234375 -3.148438 2.445312 -2.578125 2.875 -2.140625 C 3.300781 -1.710938 3.820312 -1.5 4.4375 -1.5 Z M 4.4375 -1.5 "/></g></g></g><g fill="#01426a" fill-opacity="1"><g transform="translate(129.220071, 188.368498)"><g><path d="M 6.375 0 L 5.65625 -1.640625 L 2.46875 -1.640625 L 1.75 0 L -0.046875 0 L 3.234375 -7.625 L 4.890625 -7.625 L 8.171875 0 Z M 4.0625 -5.359375 L 3.109375 -3.140625 L 5.015625 -3.140625 Z M 4.0625 -5.359375 "/></g></g></g><g fill="#01426a" fill-opacity="1"><g transform="translate(137.346016, 188.368498)"><g><path d="M 3.625 -7.625 C 4.800781 -7.625 5.65625 -7.394531 6.1875 -6.9375 C 6.71875 -6.488281 6.984375 -5.789062 6.984375 -4.84375 C 6.984375 -3.90625 6.707031 -3.21875 6.15625 -2.78125 C 5.613281 -2.34375 4.78125 -2.125 3.65625 -2.125 L 2.640625 -2.125 L 2.640625 0 L 0.9375 0 L 0.9375 -7.625 Z M 3.78125 -3.59375 C 4.351562 -3.59375 4.738281 -3.707031 4.9375 -3.9375 C 5.144531 -4.164062 5.25 -4.5 5.25 -4.9375 C 5.25 -5.382812 5.113281 -5.695312 4.84375 -5.875 C 4.582031 -6.0625 4.171875 -6.15625 3.609375 -6.15625 L 2.640625 -6.15625 L 2.640625 -3.59375 Z M 3.78125 -3.59375 "/></g></g></g><g fill="#01426a" fill-opacity="1"><g transform="translate(144.730263, 188.368498)"><g><path d="M 0.9375 -7.625 L 2.640625 -7.625 L 2.640625 0 L 0.9375 0 Z M 2.578125 -8.40625 L 1.015625 -8.40625 L 2.40625 -10.34375 L 4.09375 -9.625 Z M 2.578125 -8.40625 "/></g></g></g><g fill="#01426a" fill-opacity="1"><g transform="translate(148.307859, 188.368498)"><g><path d="M 4.171875 -6.15625 L 4.171875 0 L 2.46875 0 L 2.46875 -6.15625 L 0.3125 -6.15625 L 0.3125 -7.625 L 6.328125 -7.625 L 6.328125 -6.15625 Z M 4.171875 -6.15625 "/></g></g></g><g fill="#01426a" fill-opacity="1"><g transform="translate(154.939503, 188.368498)"><g><path d="M 2.953125 -1.96875 C 3.234375 -1.613281 3.613281 -1.4375 4.09375 -1.4375 C 4.582031 -1.4375 4.960938 -1.613281 5.234375 -1.96875 C 5.515625 -2.320312 5.65625 -2.800781 5.65625 -3.40625 L 5.65625 -7.625 L 7.359375 -7.625 L 7.359375 -3.359375 C 7.359375 -2.253906 7.050781 -1.40625 6.4375 -0.8125 C 5.832031 -0.21875 5.050781 0.078125 4.09375 0.078125 C 3.144531 0.078125 2.363281 -0.21875 1.75 -0.8125 C 1.132812 -1.414062 0.828125 -2.265625 0.828125 -3.359375 L 0.828125 -7.625 L 2.53125 -7.625 L 2.53125 -3.40625 C 2.53125 -2.800781 2.671875 -2.320312 2.953125 -1.96875 Z M 2.953125 -1.96875 "/></g></g></g><g fill="#01426a" fill-opacity="1"><g transform="translate(163.130892, 188.368498)"><g><path d="M 0.9375 0 L 0.9375 -7.625 L 2.640625 -7.625 L 2.640625 -1.515625 L 5.890625 -1.515625 L 5.890625 0 Z M 0.9375 0 "/></g></g></g><g fill="#01426a" fill-opacity="1"><g transform="translate(169.326244, 188.368498)"><g><path d="M 6.765625 -3.84375 C 6.765625 -4.53125 6.546875 -5.113281 6.109375 -5.59375 C 5.679688 -6.070312 5.148438 -6.3125 4.515625 -6.3125 C 3.878906 -6.3125 3.34375 -6.070312 2.90625 -5.59375 C 2.46875 -5.113281 2.25 -4.53125 2.25 -3.84375 C 2.25 -3.164062 2.46875 -2.585938 2.90625 -2.109375 C 3.34375 -1.640625 3.878906 -1.40625 4.515625 -1.40625 C 5.148438 -1.40625 5.679688 -1.640625 6.109375 -2.109375 C 6.546875 -2.585938 6.765625 -3.164062 6.765625 -3.84375 Z M 7.34375 -1.046875 C 6.570312 -0.296875 5.625 0.078125 4.5 0.078125 C 3.375 0.078125 2.425781 -0.296875 1.65625 -1.046875 C 0.882812 -1.804688 0.5 -2.742188 0.5 -3.859375 C 0.5 -4.984375 0.882812 -5.921875 1.65625 -6.671875 C 2.425781 -7.421875 3.375 -7.796875 4.5 -7.796875 C 5.625 -7.796875 6.570312 -7.421875 7.34375 -6.671875 C 8.113281 -5.921875 8.5 -4.984375 8.5 -3.859375 C 8.5 -2.742188 8.113281 -1.804688 7.34375 -1.046875 Z M 7.34375 -1.046875 "/></g></g></g><g fill="#01426a" fill-opacity="1"><g transform="translate(178.335682, 188.368498)"><g/></g></g><g fill="#01426a" fill-opacity="1"><g transform="translate(181.21521, 188.368498)"><g><path d="M 6.265625 -7.625 L 7.96875 -7.625 L 7.96875 0 L 6.265625 0 L 2.640625 -4.78125 L 2.640625 0 L 0.9375 0 L 0.9375 -7.625 L 2.53125 -7.625 L 6.265625 -2.71875 Z M 6.265625 -7.625 "/></g></g></g><g fill="#01426a" fill-opacity="1"><g transform="translate(190.126482, 188.368498)"><g><path d="M 6.765625 -3.84375 C 6.765625 -4.53125 6.546875 -5.113281 6.109375 -5.59375 C 5.679688 -6.070312 5.148438 -6.3125 4.515625 -6.3125 C 3.878906 -6.3125 3.34375 -6.070312 2.90625 -5.59375 C 2.46875 -5.113281 2.25 -4.53125 2.25 -3.84375 C 2.25 -3.164062 2.46875 -2.585938 2.90625 -2.109375 C 3.34375 -1.640625 3.878906 -1.40625 4.515625 -1.40625 C 5.148438 -1.40625 5.679688 -1.640625 6.109375 -2.109375 C 6.546875 -2.585938 6.765625 -3.164062 6.765625 -3.84375 Z M 7.34375 -1.046875 C 6.570312 -0.296875 5.625 0.078125 4.5 0.078125 C 3.375 0.078125 2.425781 -0.296875 1.65625 -1.046875 C 0.882812 -1.804688 0.5 -2.742188 0.5 -3.859375 C 0.5 -4.984375 0.882812 -5.921875 1.65625 -6.671875 C 2.425781 -7.421875 3.375 -7.796875 4.5 -7.796875 C 5.625 -7.796875 6.570312 -7.421875 7.34375 -6.671875 C 8.113281 -5.921875 8.5 -4.984375 8.5 -3.859375 C 8.5 -2.742188 8.113281 -1.804688 7.34375 -1.046875 Z M 7.34375 -1.046875 "/></g></g></g><g fill="#01426a" fill-opacity="1"><g transform="translate(199.135916, 188.368498)"><g><path d="M 7.125 -5.09375 C 7.125 -3.875 6.640625 -3.082031 5.671875 -2.71875 L 7.609375 0 L 5.5 0 L 3.8125 -2.4375 L 2.640625 -2.4375 L 2.640625 0 L 0.9375 0 L 0.9375 -7.625 L 3.828125 -7.625 C 5.015625 -7.625 5.859375 -7.421875 6.359375 -7.015625 C 6.867188 -6.617188 7.125 -5.976562 7.125 -5.09375 Z M 3.875 -3.90625 C 4.457031 -3.90625 4.851562 -4 5.0625 -4.1875 C 5.28125 -4.375 5.390625 -4.671875 5.390625 -5.078125 C 5.390625 -5.492188 5.28125 -5.773438 5.0625 -5.921875 C 4.84375 -6.078125 4.460938 -6.15625 3.921875 -6.15625 L 2.640625 -6.15625 L 2.640625 -3.90625 Z M 3.875 -3.90625 "/></g></g></g><g fill="#01426a" fill-opacity="1"><g transform="translate(207.06553, 188.368498)"><g><path d="M 6.4375 -7.625 L 6.4375 -6.109375 L 2.640625 -6.109375 L 2.640625 -4.53125 L 6.046875 -4.53125 L 6.046875 -3.09375 L 2.640625 -3.09375 L 2.640625 -1.5 L 6.546875 -1.5 L 6.546875 0 L 0.9375 0 L 0.9375 -7.625 Z M 6.4375 -7.625 "/></g></g></g><g fill="#01426a" fill-opacity="1"><g transform="translate(214.198907, 188.368498)"><g><path d="M 3.390625 -6.296875 C 3.109375 -6.296875 2.882812 -6.226562 2.71875 -6.09375 C 2.550781 -5.96875 2.46875 -5.789062 2.46875 -5.5625 C 2.46875 -5.34375 2.566406 -5.164062 2.765625 -5.03125 C 2.972656 -4.90625 3.4375 -4.753906 4.15625 -4.578125 C 4.882812 -4.398438 5.445312 -4.128906 5.84375 -3.765625 C 6.25 -3.410156 6.453125 -2.890625 6.453125 -2.203125 C 6.453125 -1.523438 6.191406 -0.972656 5.671875 -0.546875 C 5.160156 -0.117188 4.488281 0.09375 3.65625 0.09375 C 2.445312 0.09375 1.359375 -0.351562 0.390625 -1.25 L 1.40625 -2.5 C 2.226562 -1.78125 2.988281 -1.421875 3.6875 -1.421875 C 4 -1.421875 4.242188 -1.488281 4.421875 -1.625 C 4.597656 -1.757812 4.6875 -1.941406 4.6875 -2.171875 C 4.6875 -2.398438 4.59375 -2.578125 4.40625 -2.703125 C 4.21875 -2.835938 3.84375 -2.976562 3.28125 -3.125 C 2.394531 -3.332031 1.742188 -3.601562 1.328125 -3.9375 C 0.921875 -4.28125 0.71875 -4.8125 0.71875 -5.53125 C 0.71875 -6.257812 0.976562 -6.816406 1.5 -7.203125 C 2.019531 -7.597656 2.671875 -7.796875 3.453125 -7.796875 C 3.953125 -7.796875 4.457031 -7.707031 4.96875 -7.53125 C 5.476562 -7.363281 5.921875 -7.117188 6.296875 -6.796875 L 5.4375 -5.546875 C 4.78125 -6.046875 4.097656 -6.296875 3.390625 -6.296875 Z M 3.390625 -6.296875 "/></g></g></g><g fill="#01426a" fill-opacity="1"><g transform="translate(221.157771, 188.368498)"><g><path d="M 4.171875 -6.15625 L 4.171875 0 L 2.46875 0 L 2.46875 -6.15625 L 0.3125 -6.15625 L 0.3125 -7.625 L 6.328125 -7.625 L 6.328125 -6.15625 Z M 4.171875 -6.15625 "/></g></g></g><g fill="#01426a" fill-opacity="1"><g transform="translate(227.789413, 188.368498)"><g><path d="M 6.4375 -7.625 L 6.4375 -6.109375 L 2.640625 -6.109375 L 2.640625 -4.53125 L 6.046875 -4.53125 L 6.046875 -3.09375 L 2.640625 -3.09375 L 2.640625 -1.5 L 6.546875 -1.5 L 6.546875 0 L 0.9375 0 L 0.9375 -7.625 Z M 6.4375 -7.625 "/></g></g></g><g fill="#5389a3" fill-opacity="1"><g transform="translate(121.235922, 209.183413)"><g><path d="M 5.25 -5.90625 L 6.25 -5.90625 L 6.25 0 L 5.171875 0 L 1.8125 -4.3125 L 1.8125 0 L 0.8125 0 L 0.8125 -5.90625 L 1.8125 -5.90625 L 5.25 -1.5 Z M 5.25 -5.90625 "/></g></g></g><g fill="#5389a3" fill-opacity="1"><g transform="translate(128.301127, 209.183413)"><g><path d="M 3.828125 -2.0625 L 3.828125 -4.5 L 4.78125 -4.5 L 4.78125 0 L 3.828125 0 L 3.828125 -0.8125 C 3.671875 -0.539062 3.457031 -0.328125 3.1875 -0.171875 C 2.925781 -0.015625 2.640625 0.0625 2.328125 0.0625 C 1.828125 0.0625 1.421875 -0.0859375 1.109375 -0.390625 C 0.796875 -0.703125 0.640625 -1.148438 0.640625 -1.734375 L 0.640625 -4.5 L 1.578125 -4.5 L 1.578125 -2.03125 C 1.578125 -1.195312 1.921875 -0.78125 2.609375 -0.78125 C 2.941406 -0.78125 3.226562 -0.890625 3.46875 -1.109375 C 3.707031 -1.328125 3.828125 -1.644531 3.828125 -2.0625 Z M 3.828125 -2.0625 "/></g></g></g><g fill="#5389a3" fill-opacity="1"><g transform="translate(133.760603, 209.183413)"><g><path d="M 1.84375 -3.734375 L 1.84375 -1.453125 C 1.84375 -1.234375 1.898438 -1.0625 2.015625 -0.9375 C 2.128906 -0.8125 2.285156 -0.75 2.484375 -0.75 C 2.691406 -0.75 2.890625 -0.847656 3.078125 -1.046875 L 3.46875 -0.375 C 3.132812 -0.0820312 2.765625 0.0625 2.359375 0.0625 C 1.960938 0.0625 1.617188 -0.0703125 1.328125 -0.34375 C 1.046875 -0.625 0.90625 -1.003906 0.90625 -1.484375 L 0.90625 -3.734375 L 0.34375 -3.734375 L 0.34375 -4.5 L 0.90625 -4.5 L 0.90625 -5.90625 L 1.84375 -5.90625 L 1.84375 -4.5 L 3.03125 -4.5 L 3.03125 -3.734375 Z M 1.84375 -3.734375 "/></g></g></g><g fill="#5389a3" fill-opacity="1"><g transform="translate(137.293205, 209.183413)"><g><path d="M 3.046875 -3.609375 C 2.578125 -3.609375 2.222656 -3.457031 1.984375 -3.15625 C 1.742188 -2.851562 1.625 -2.441406 1.625 -1.921875 L 1.625 0 L 0.6875 0 L 0.6875 -4.5 L 1.625 -4.5 L 1.625 -3.59375 C 1.78125 -3.875 1.988281 -4.101562 2.25 -4.28125 C 2.507812 -4.46875 2.785156 -4.5625 3.078125 -4.5625 L 3.09375 -3.609375 C 3.070312 -3.609375 3.054688 -3.609375 3.046875 -3.609375 Z M 3.046875 -3.609375 "/></g></g></g><g fill="#5389a3" fill-opacity="1"><g transform="translate(140.648332, 209.183413)"><g><path d="M 1.625 0 L 0.6875 0 L 0.6875 -4.5 L 1.625 -4.5 Z M 0.734375 -5.390625 C 0.617188 -5.515625 0.5625 -5.65625 0.5625 -5.8125 C 0.5625 -5.976562 0.617188 -6.117188 0.734375 -6.234375 C 0.859375 -6.359375 1 -6.421875 1.15625 -6.421875 C 1.320312 -6.421875 1.460938 -6.359375 1.578125 -6.234375 C 1.703125 -6.117188 1.765625 -5.976562 1.765625 -5.8125 C 1.765625 -5.65625 1.703125 -5.515625 1.578125 -5.390625 C 1.460938 -5.273438 1.320312 -5.21875 1.15625 -5.21875 C 1 -5.21875 0.859375 -5.273438 0.734375 -5.390625 Z M 0.734375 -5.390625 "/></g></g></g><g fill="#5389a3" fill-opacity="1"><g transform="translate(142.96396, 209.183413)"><g><path d="M 2.671875 0.0625 C 2.046875 0.0625 1.507812 -0.144531 1.0625 -0.5625 C 0.613281 -0.988281 0.390625 -1.546875 0.390625 -2.234375 C 0.390625 -2.921875 0.625 -3.476562 1.09375 -3.90625 C 1.5625 -4.34375 2.132812 -4.5625 2.8125 -4.5625 C 3.488281 -4.5625 4.0625 -4.328125 4.53125 -3.859375 L 3.96875 -3.171875 C 3.582031 -3.515625 3.191406 -3.6875 2.796875 -3.6875 C 2.398438 -3.6875 2.054688 -3.554688 1.765625 -3.296875 C 1.472656 -3.035156 1.328125 -2.695312 1.328125 -2.28125 C 1.328125 -1.863281 1.472656 -1.507812 1.765625 -1.21875 C 2.054688 -0.9375 2.410156 -0.796875 2.828125 -0.796875 C 3.242188 -0.796875 3.640625 -0.988281 4.015625 -1.375 L 4.578125 -0.765625 C 4.023438 -0.210938 3.390625 0.0625 2.671875 0.0625 Z M 2.671875 0.0625 "/></g></g></g><g fill="#5389a3" fill-opacity="1"><g transform="translate(147.831852, 209.183413)"><g><path d="M 1.625 0 L 0.6875 0 L 0.6875 -4.5 L 1.625 -4.5 Z M 0.734375 -5.390625 C 0.617188 -5.515625 0.5625 -5.65625 0.5625 -5.8125 C 0.5625 -5.976562 0.617188 -6.117188 0.734375 -6.234375 C 0.859375 -6.359375 1 -6.421875 1.15625 -6.421875 C 1.320312 -6.421875 1.460938 -6.359375 1.578125 -6.234375 C 1.703125 -6.117188 1.765625 -5.976562 1.765625 -5.8125 C 1.765625 -5.65625 1.703125 -5.515625 1.578125 -5.390625 C 1.460938 -5.273438 1.320312 -5.21875 1.15625 -5.21875 C 1 -5.21875 0.859375 -5.273438 0.734375 -5.390625 Z M 0.734375 -5.390625 "/></g></g></g><g fill="#5389a3" fill-opacity="1"><g transform="translate(150.147481, 209.183413)"><g><path d="M 1.734375 -1.1875 C 2.003906 -0.914062 2.34375 -0.78125 2.75 -0.78125 C 3.164062 -0.78125 3.503906 -0.914062 3.765625 -1.1875 C 4.035156 -1.457031 4.171875 -1.8125 4.171875 -2.25 C 4.171875 -2.6875 4.035156 -3.039062 3.765625 -3.3125 C 3.503906 -3.582031 3.164062 -3.71875 2.75 -3.71875 C 2.34375 -3.71875 2.003906 -3.582031 1.734375 -3.3125 C 1.460938 -3.039062 1.328125 -2.6875 1.328125 -2.25 C 1.328125 -1.8125 1.460938 -1.457031 1.734375 -1.1875 Z M 4.4375 -0.609375 C 3.988281 -0.160156 3.425781 0.0625 2.75 0.0625 C 2.070312 0.0625 1.507812 -0.160156 1.0625 -0.609375 C 0.613281 -1.054688 0.390625 -1.601562 0.390625 -2.25 C 0.390625 -2.894531 0.613281 -3.441406 1.0625 -3.890625 C 1.507812 -4.335938 2.070312 -4.5625 2.75 -4.5625 C 3.425781 -4.5625 3.988281 -4.335938 4.4375 -3.890625 C 4.894531 -3.441406 5.125 -2.894531 5.125 -2.25 C 5.125 -1.601562 4.894531 -1.054688 4.4375 -0.609375 Z M 3.1875 -5.078125 L 2.328125 -5.078125 L 3.21875 -6.296875 L 4.21875 -5.890625 Z M 3.1875 -5.078125 "/></g></g></g><g fill="#5389a3" fill-opacity="1"><g transform="translate(155.657665, 209.183413)"><g><path d="M 1.625 -2.4375 L 1.625 0 L 0.6875 0 L 0.6875 -4.5 L 1.625 -4.5 L 1.625 -3.671875 C 1.78125 -3.953125 1.988281 -4.171875 2.25 -4.328125 C 2.519531 -4.484375 2.8125 -4.5625 3.125 -4.5625 C 3.632812 -4.5625 4.046875 -4.40625 4.359375 -4.09375 C 4.671875 -3.789062 4.828125 -3.34375 4.828125 -2.75 L 4.828125 0 L 3.875 0 L 3.875 -2.46875 C 3.875 -3.289062 3.53125 -3.703125 2.84375 -3.703125 C 2.519531 -3.703125 2.234375 -3.59375 1.984375 -3.375 C 1.742188 -3.164062 1.625 -2.851562 1.625 -2.4375 Z M 1.625 -2.4375 "/></g></g></g><g fill="#5389a3" fill-opacity="1"><g transform="translate(161.117144, 209.183413)"><g/></g></g><g fill="#5389a3" fill-opacity="1"><g transform="translate(163.432772, 209.183413)"><g><path d="M 1.25 1.796875 C 0.84375 1.796875 0.472656 1.644531 0.140625 1.34375 L 0.5625 0.578125 C 0.757812 0.765625 0.960938 0.859375 1.171875 0.859375 C 1.390625 0.859375 1.5625 0.78125 1.6875 0.625 C 1.820312 0.46875 1.890625 0.300781 1.890625 0.125 C 1.890625 0.0507812 1.285156 -1.488281 0.078125 -4.5 L 1.09375 -4.5 L 2.4375 -1.1875 L 3.78125 -4.5 L 4.796875 -4.5 L 2.609375 0.84375 C 2.484375 1.132812 2.296875 1.363281 2.046875 1.53125 C 1.804688 1.707031 1.539062 1.796875 1.25 1.796875 Z M 1.25 1.796875 "/></g></g></g><g fill="#5389a3" fill-opacity="1"><g transform="translate(168.283759, 209.183413)"><g/></g></g><g fill="#5389a3" fill-opacity="1"><g transform="translate(170.599387, 209.183413)"><g><path d="M 4.96875 -5.90625 L 4.96875 -4.96875 L 1.8125 -4.96875 L 1.8125 -3.40625 L 4.65625 -3.40625 L 4.65625 -2.515625 L 1.8125 -2.515625 L 1.8125 -0.9375 L 5.078125 -0.9375 L 5.078125 0 L 0.8125 0 L 0.8125 -5.90625 Z M 4.96875 -5.90625 "/></g></g></g><g fill="#5389a3" fill-opacity="1"><g transform="translate(176.126472, 209.183413)"><g><path d="M 1.625 -2.4375 L 1.625 0 L 0.6875 0 L 0.6875 -4.5 L 1.625 -4.5 L 1.625 -3.671875 C 1.78125 -3.953125 1.988281 -4.171875 2.25 -4.328125 C 2.519531 -4.484375 2.8125 -4.5625 3.125 -4.5625 C 3.632812 -4.5625 4.046875 -4.40625 4.359375 -4.09375 C 4.671875 -3.789062 4.828125 -3.34375 4.828125 -2.75 L 4.828125 0 L 3.875 0 L 3.875 -2.46875 C 3.875 -3.289062 3.53125 -3.703125 2.84375 -3.703125 C 2.519531 -3.703125 2.234375 -3.59375 1.984375 -3.375 C 1.742188 -3.164062 1.625 -2.851562 1.625 -2.4375 Z M 1.625 -2.4375 "/></g></g></g><g fill="#5389a3" fill-opacity="1"><g transform="translate(181.585951, 209.183413)"><g><path d="M 2.515625 0.0625 C 1.953125 0.0625 1.457031 -0.148438 1.03125 -0.578125 C 0.601562 -1.003906 0.390625 -1.566406 0.390625 -2.265625 C 0.390625 -2.960938 0.609375 -3.519531 1.046875 -3.9375 C 1.484375 -4.351562 2 -4.5625 2.59375 -4.5625 C 3.195312 -4.5625 3.679688 -4.304688 4.046875 -3.796875 L 4.046875 -6.265625 L 5 -6.265625 L 5 0 L 4.046875 0 L 4.046875 -0.671875 C 3.703125 -0.179688 3.191406 0.0625 2.515625 0.0625 Z M 1.34375 -2.21875 C 1.34375 -1.789062 1.476562 -1.441406 1.75 -1.171875 C 2.03125 -0.898438 2.351562 -0.765625 2.71875 -0.765625 C 3.09375 -0.765625 3.410156 -0.898438 3.671875 -1.171875 C 3.929688 -1.453125 4.0625 -1.804688 4.0625 -2.234375 C 4.0625 -2.660156 3.929688 -3.015625 3.671875 -3.296875 C 3.410156 -3.585938 3.09375 -3.734375 2.71875 -3.734375 C 2.34375 -3.734375 2.019531 -3.585938 1.75 -3.296875 C 1.476562 -3.015625 1.34375 -2.65625 1.34375 -2.21875 Z M 1.34375 -2.21875 "/></g></g></g><g fill="#5389a3" fill-opacity="1"><g transform="translate(187.26516, 209.183413)"><g><path d="M 1.734375 -1.1875 C 2.003906 -0.914062 2.34375 -0.78125 2.75 -0.78125 C 3.164062 -0.78125 3.503906 -0.914062 3.765625 -1.1875 C 4.035156 -1.457031 4.171875 -1.8125 4.171875 -2.25 C 4.171875 -2.6875 4.035156 -3.039062 3.765625 -3.3125 C 3.503906 -3.582031 3.164062 -3.71875 2.75 -3.71875 C 2.34375 -3.71875 2.003906 -3.582031 1.734375 -3.3125 C 1.460938 -3.039062 1.328125 -2.6875 1.328125 -2.25 C 1.328125 -1.8125 1.460938 -1.457031 1.734375 -1.1875 Z M 4.4375 -0.609375 C 3.988281 -0.160156 3.425781 0.0625 2.75 0.0625 C 2.070312 0.0625 1.507812 -0.160156 1.0625 -0.609375 C 0.613281 -1.054688 0.390625 -1.601562 0.390625 -2.25 C 0.390625 -2.894531 0.613281 -3.441406 1.0625 -3.890625 C 1.507812 -4.335938 2.070312 -4.5625 2.75 -4.5625 C 3.425781 -4.5625 3.988281 -4.335938 4.4375 -3.890625 C 4.894531 -3.441406 5.125 -2.894531 5.125 -2.25 C 5.125 -1.601562 4.894531 -1.054688 4.4375 -0.609375 Z M 4.4375 -0.609375 "/></g></g></g><g fill="#5389a3" fill-opacity="1"><g transform="translate(192.775345, 209.183413)"><g><path d="M 2.671875 0.0625 C 2.046875 0.0625 1.507812 -0.144531 1.0625 -0.5625 C 0.613281 -0.988281 0.390625 -1.546875 0.390625 -2.234375 C 0.390625 -2.921875 0.625 -3.476562 1.09375 -3.90625 C 1.5625 -4.34375 2.132812 -4.5625 2.8125 -4.5625 C 3.488281 -4.5625 4.0625 -4.328125 4.53125 -3.859375 L 3.96875 -3.171875 C 3.582031 -3.515625 3.191406 -3.6875 2.796875 -3.6875 C 2.398438 -3.6875 2.054688 -3.554688 1.765625 -3.296875 C 1.472656 -3.035156 1.328125 -2.695312 1.328125 -2.28125 C 1.328125 -1.863281 1.472656 -1.507812 1.765625 -1.21875 C 2.054688 -0.9375 2.410156 -0.796875 2.828125 -0.796875 C 3.242188 -0.796875 3.640625 -0.988281 4.015625 -1.375 L 4.578125 -0.765625 C 4.023438 -0.210938 3.390625 0.0625 2.671875 0.0625 Z M 2.671875 0.0625 "/></g></g></g><g fill="#5389a3" fill-opacity="1"><g transform="translate(197.643237, 209.183413)"><g><path d="M 3.046875 -3.609375 C 2.578125 -3.609375 2.222656 -3.457031 1.984375 -3.15625 C 1.742188 -2.851562 1.625 -2.441406 1.625 -1.921875 L 1.625 0 L 0.6875 0 L 0.6875 -4.5 L 1.625 -4.5 L 1.625 -3.59375 C 1.78125 -3.875 1.988281 -4.101562 2.25 -4.28125 C 2.507812 -4.46875 2.785156 -4.5625 3.078125 -4.5625 L 3.09375 -3.609375 C 3.070312 -3.609375 3.054688 -3.609375 3.046875 -3.609375 Z M 3.046875 -3.609375 "/></g></g></g><g fill="#5389a3" fill-opacity="1"><g transform="translate(200.998366, 209.183413)"><g><path d="M 1.625 0 L 0.6875 0 L 0.6875 -4.5 L 1.625 -4.5 Z M 0.734375 -5.390625 C 0.617188 -5.515625 0.5625 -5.65625 0.5625 -5.8125 C 0.5625 -5.976562 0.617188 -6.117188 0.734375 -6.234375 C 0.859375 -6.359375 1 -6.421875 1.15625 -6.421875 C 1.320312 -6.421875 1.460938 -6.359375 1.578125 -6.234375 C 1.703125 -6.117188 1.765625 -5.976562 1.765625 -5.8125 C 1.765625 -5.65625 1.703125 -5.515625 1.578125 -5.390625 C 1.460938 -5.273438 1.320312 -5.21875 1.15625 -5.21875 C 1 -5.21875 0.859375 -5.273438 0.734375 -5.390625 Z M 0.734375 -5.390625 "/></g></g></g><g fill="#5389a3" fill-opacity="1"><g transform="translate(203.313999, 209.183413)"><g><path d="M 1.625 -2.4375 L 1.625 0 L 0.6875 0 L 0.6875 -4.5 L 1.625 -4.5 L 1.625 -3.671875 C 1.78125 -3.953125 1.988281 -4.171875 2.25 -4.328125 C 2.519531 -4.484375 2.8125 -4.5625 3.125 -4.5625 C 3.632812 -4.5625 4.046875 -4.40625 4.359375 -4.09375 C 4.671875 -3.789062 4.828125 -3.34375 4.828125 -2.75 L 4.828125 0 L 3.875 0 L 3.875 -2.46875 C 3.875 -3.289062 3.53125 -3.703125 2.84375 -3.703125 C 2.519531 -3.703125 2.234375 -3.59375 1.984375 -3.375 C 1.742188 -3.164062 1.625 -2.851562 1.625 -2.4375 Z M 1.625 -2.4375 "/></g></g></g><g fill="#5389a3" fill-opacity="1"><g transform="translate(208.773473, 209.183413)"><g><path d="M 1.734375 -1.1875 C 2.003906 -0.914062 2.34375 -0.78125 2.75 -0.78125 C 3.164062 -0.78125 3.503906 -0.914062 3.765625 -1.1875 C 4.035156 -1.457031 4.171875 -1.8125 4.171875 -2.25 C 4.171875 -2.6875 4.035156 -3.039062 3.765625 -3.3125 C 3.503906 -3.582031 3.164062 -3.71875 2.75 -3.71875 C 2.34375 -3.71875 2.003906 -3.582031 1.734375 -3.3125 C 1.460938 -3.039062 1.328125 -2.6875 1.328125 -2.25 C 1.328125 -1.8125 1.460938 -1.457031 1.734375 -1.1875 Z M 4.4375 -0.609375 C 3.988281 -0.160156 3.425781 0.0625 2.75 0.0625 C 2.070312 0.0625 1.507812 -0.160156 1.0625 -0.609375 C 0.613281 -1.054688 0.390625 -1.601562 0.390625 -2.25 C 0.390625 -2.894531 0.613281 -3.441406 1.0625 -3.890625 C 1.507812 -4.335938 2.070312 -4.5625 2.75 -4.5625 C 3.425781 -4.5625 3.988281 -4.335938 4.4375 -3.890625 C 4.894531 -3.441406 5.125 -2.894531 5.125 -2.25 C 5.125 -1.601562 4.894531 -1.054688 4.4375 -0.609375 Z M 4.4375 -0.609375 "/></g></g></g><g fill="#5389a3" fill-opacity="1"><g transform="translate(214.283652, 209.183413)"><g><path d="M 1.625 0 L 0.6875 0 L 0.6875 -6.265625 L 1.625 -6.265625 Z M 1.625 0 "/></g></g></g><g fill="#5389a3" fill-opacity="1"><g transform="translate(216.599285, 209.183413)"><g><path d="M 1.734375 -1.1875 C 2.003906 -0.914062 2.34375 -0.78125 2.75 -0.78125 C 3.164062 -0.78125 3.503906 -0.914062 3.765625 -1.1875 C 4.035156 -1.457031 4.171875 -1.8125 4.171875 -2.25 C 4.171875 -2.6875 4.035156 -3.039062 3.765625 -3.3125 C 3.503906 -3.582031 3.164062 -3.71875 2.75 -3.71875 C 2.34375 -3.71875 2.003906 -3.582031 1.734375 -3.3125 C 1.460938 -3.039062 1.328125 -2.6875 1.328125 -2.25 C 1.328125 -1.8125 1.460938 -1.457031 1.734375 -1.1875 Z M 4.4375 -0.609375 C 3.988281 -0.160156 3.425781 0.0625 2.75 0.0625 C 2.070312 0.0625 1.507812 -0.160156 1.0625 -0.609375 C 0.613281 -1.054688 0.390625 -1.601562 0.390625 -2.25 C 0.390625 -2.894531 0.613281 -3.441406 1.0625 -3.890625 C 1.507812 -4.335938 2.070312 -4.5625 2.75 -4.5625 C 3.425781 -4.5625 3.988281 -4.335938 4.4375 -3.890625 C 4.894531 -3.441406 5.125 -2.894531 5.125 -2.25 C 5.125 -1.601562 4.894531 -1.054688 4.4375 -0.609375 Z M 4.4375 -0.609375 "/></g></g></g><g fill="#5389a3" fill-opacity="1"><g transform="translate(222.109465, 209.183413)"><g><path d="M 4.84375 -4.5 L 4.84375 -0.578125 C 4.84375 0.210938 4.625 0.804688 4.1875 1.203125 C 3.757812 1.609375 3.207031 1.8125 2.53125 1.8125 C 1.851562 1.8125 1.242188 1.597656 0.703125 1.171875 L 1.15625 0.453125 C 1.59375 0.785156 2.035156 0.953125 2.484375 0.953125 C 2.929688 0.953125 3.285156 0.835938 3.546875 0.609375 C 3.804688 0.378906 3.9375 0.0078125 3.9375 -0.5 L 3.9375 -1.078125 C 3.800781 -0.804688 3.597656 -0.59375 3.328125 -0.4375 C 3.066406 -0.28125 2.773438 -0.203125 2.453125 -0.203125 C 1.859375 -0.203125 1.367188 -0.410156 0.984375 -0.828125 C 0.597656 -1.242188 0.40625 -1.757812 0.40625 -2.375 C 0.40625 -3 0.597656 -3.519531 0.984375 -3.9375 C 1.367188 -4.351562 1.859375 -4.5625 2.453125 -4.5625 C 3.046875 -4.5625 3.523438 -4.316406 3.890625 -3.828125 L 3.890625 -4.5 Z M 1.328125 -2.421875 C 1.328125 -2.054688 1.441406 -1.738281 1.671875 -1.46875 C 1.898438 -1.195312 2.207031 -1.0625 2.59375 -1.0625 C 2.976562 -1.0625 3.289062 -1.191406 3.53125 -1.453125 C 3.769531 -1.710938 3.890625 -2.035156 3.890625 -2.421875 C 3.890625 -2.804688 3.769531 -3.128906 3.53125 -3.390625 C 3.289062 -3.660156 2.976562 -3.796875 2.59375 -3.796875 C 2.207031 -3.796875 1.898438 -3.65625 1.671875 -3.375 C 1.441406 -3.101562 1.328125 -2.785156 1.328125 -2.421875 Z M 1.328125 -2.421875 "/></g></g></g><g fill="#5389a3" fill-opacity="1"><g transform="translate(227.636549, 209.183413)"><g><path d="M 1.609375 -5.078125 L 0.8125 -5.078125 L 1.703125 -6.25 L 2.640625 -5.84375 Z M 0.6875 -4.5 L 1.625 -4.5 L 1.625 0 L 0.6875 0 Z M 0.6875 -4.5 "/></g></g></g><g fill="#5389a3" fill-opacity="1"><g transform="translate(229.952182, 209.183413)"><g><path d="M 4.328125 0 L 3.46875 0 L 3.46875 -0.59375 C 3.09375 -0.15625 2.59375 0.0625 1.96875 0.0625 C 1.5 0.0625 1.109375 -0.0664062 0.796875 -0.328125 C 0.492188 -0.597656 0.34375 -0.953125 0.34375 -1.390625 C 0.34375 -1.828125 0.503906 -2.15625 0.828125 -2.375 C 1.160156 -2.601562 1.601562 -2.71875 2.15625 -2.71875 L 3.390625 -2.71875 L 3.390625 -2.875 C 3.390625 -3.476562 3.054688 -3.78125 2.390625 -3.78125 C 1.972656 -3.78125 1.539062 -3.628906 1.09375 -3.328125 L 0.671875 -3.90625 C 1.210938 -4.34375 1.832031 -4.5625 2.53125 -4.5625 C 3.0625 -4.5625 3.492188 -4.425781 3.828125 -4.15625 C 4.160156 -3.894531 4.328125 -3.476562 4.328125 -2.90625 Z M 3.375 -1.671875 L 3.375 -2.046875 L 2.3125 -2.046875 C 1.632812 -2.046875 1.296875 -1.832031 1.296875 -1.40625 C 1.296875 -1.1875 1.378906 -1.019531 1.546875 -0.90625 C 1.710938 -0.789062 1.945312 -0.734375 2.25 -0.734375 C 2.550781 -0.734375 2.8125 -0.816406 3.03125 -0.984375 C 3.257812 -1.160156 3.375 -1.390625 3.375 -1.671875 Z M 3.375 -1.671875 "/></g></g></g></svg>