<svg xmlns="http://www.w3.org/2000/svg" xmlns:xlink="http://www.w3.org/1999/xlink" width="1000" zoomAndPan="magnify" viewBox="0 0 750 299.999988" height="400" preserveAspectRatio="xMidYMid meet" version="1.0"><defs><g/><clipPath id="fa1b482375"><path d="M 134 35 L 155 35 L 155 56 L 134 56 Z M 134 35 " clip-rule="nonzero"/></clipPath><clipPath id="67233d8f63"><path d="M 154.199219 47.992188 C 152.914062 53.351562 147.527344 56.660156 142.167969 55.375 C 136.808594 54.089844 133.5 48.707031 134.78125 43.34375 C 136.058594 37.976562 141.453125 34.675781 146.8125 35.960938 C 152.171875 37.246094 155.480469 42.628906 154.199219 47.992188 " clip-rule="nonzero"/></clipPath><clipPath id="7a37519735"><path d="M 138 209 L 159 209 L 159 231 L 138 231 Z M 138 209 " clip-rule="nonzero"/></clipPath><clipPath id="4c321042bd"><path d="M 146.292969 230.125 C 140.765625 228.957031 137.234375 223.527344 138.410156 218 C 139.585938 212.476562 145.007812 208.941406 150.535156 210.117188 C 156.0625 211.292969 159.59375 216.714844 158.425781 222.242188 C 157.253906 227.769531 151.824219 231.300781 146.300781 230.125 " clip-rule="nonzero"/></clipPath><clipPath id="6b6070f461"><path d="M 54 238 L 75 238 L 75 259 L 54 259 Z M 54 238 " clip-rule="nonzero"/></clipPath><clipPath id="252091d02e"><path d="M 54.804688 245.699219 C 56.410156 240.425781 61.984375 237.445312 67.257812 239.054688 C 72.53125 240.660156 75.507812 246.234375 73.902344 251.507812 C 72.292969 256.78125 66.722656 259.757812 61.449219 258.152344 C 56.175781 256.542969 53.195312 250.972656 54.804688 245.699219 " clip-rule="nonzero"/></clipPath><clipPath id="117dc701e0"><path d="M 120.476562 46.679688 L 141.796875 46.679688 L 141.796875 74.917969 L 120.476562 74.917969 Z M 120.476562 46.679688 " clip-rule="nonzero"/></clipPath><clipPath id="d797841a2f"><path d="M 137.757812 46.8125 L 120.902344 72.058594 L 124.929688 74.75 L 141.789062 49.503906 Z M 137.757812 46.8125 " clip-rule="nonzero"/></clipPath><clipPath id="436dcbc56b"><path d="M 60.542969 31.695312 L 115.867188 31.695312 L 115.867188 92.78125 L 60.542969 92.78125 Z M 60.542969 31.695312 " clip-rule="nonzero"/></clipPath><clipPath id="a3c3283906"><path d="M 60.738281 36.363281 L 110.535156 92.246094 L 115.503906 87.820312 L 65.707031 31.9375 Z M 60.738281 36.363281 " clip-rule="nonzero"/></clipPath><clipPath id="646a1150a7"><path d="M 95 18 L 139.492188 18 L 139.492188 47 L 95 47 Z M 95 18 " clip-rule="nonzero"/></clipPath><clipPath id="99b2fc791f"><path d="M 137.234375 46.875 L 139.425781 42.550781 L 120.921875 33.171875 C 121.847656 26.382812 117.144531 20.082031 110.351562 19.070312 C 103.5 18.042969 97.113281 22.769531 96.089844 29.621094 C 95.0625 36.472656 99.792969 42.851562 106.644531 43.878906 C 111.871094 44.65625 116.824219 42.089844 119.335938 37.792969 Z M 137.234375 46.875 " clip-rule="nonzero"/></clipPath><clipPath id="2ef921c16a"><path d="M 80 54 L 132 54 L 132 106 L 80 106 Z M 80 54 " clip-rule="nonzero"/></clipPath><clipPath id="c7a1dec8b1"><path d="M 111.847656 55.242188 C 98.1875 51.976562 84.464844 60.394531 81.195312 74.058594 C 77.929688 87.722656 86.347656 101.441406 100.011719 104.710938 C 113.675781 107.976562 127.398438 99.558594 130.664062 85.894531 C 133.933594 72.230469 125.511719 58.511719 111.847656 55.242188 " clip-rule="nonzero"/></clipPath><clipPath id="32e964cfa7"><path d="M 34 4 L 80 4 L 80 50 L 34 50 Z M 34 4 " clip-rule="nonzero"/></clipPath><clipPath id="793b0ee97d"><path d="M 60.679688 4.730469 C 48.308594 2.882812 36.789062 11.410156 34.9375 23.777344 C 33.089844 36.144531 41.617188 47.671875 53.984375 49.519531 C 66.351562 51.371094 77.878906 42.839844 79.726562 30.472656 C 81.578125 18.105469 73.046875 6.582031 60.679688 4.730469 " clip-rule="nonzero"/></clipPath><clipPath id="600c8c954e"><path d="M 67 220.714844 L 89.933594 220.714844 L 89.933594 248 L 67 248 Z M 67 220.714844 " clip-rule="nonzero"/></clipPath><clipPath id="b285672b60"><path d="M 89.488281 223.683594 L 85.628906 220.757812 L 67.28125 244.941406 L 71.140625 247.871094 Z M 89.488281 223.683594 " clip-rule="nonzero"/></clipPath><clipPath id="4ec83b0d30"><path d="M 94 206 L 145 206 L 145 268.546875 L 94 268.546875 Z M 94 206 " clip-rule="nonzero"/></clipPath><clipPath id="b5ef21aa6e"><path d="M 98.554688 206.128906 L 94.210938 209.554688 L 140.535156 268.347656 L 144.882812 264.921875 Z M 98.554688 206.128906 " clip-rule="nonzero"/></clipPath><clipPath id="4da31abd36"><path d="M 69.1875 247.800781 L 112 247.800781 L 112 278 L 69.1875 278 Z M 69.1875 247.800781 " clip-rule="nonzero"/></clipPath><clipPath id="aafc97b245"><path d="M 102.019531 252.671875 C 96.847656 251.574219 91.75 253.835938 88.984375 257.980469 L 71.664062 247.835938 L 69.214844 252.015625 L 87.121094 262.496094 C 85.785156 269.222656 90.09375 275.785156 96.820312 277.210938 C 103.597656 278.644531 110.257812 274.316406 111.695312 267.539062 C 113.128906 260.761719 108.800781 254.105469 102.023438 252.664062 " clip-rule="nonzero"/></clipPath><clipPath id="1070879ba6"><path d="M 52 66 L 74 66 L 74 88 L 52 88 Z M 52 66 " clip-rule="nonzero"/></clipPath><clipPath id="479fac322b"><path d="M 60.789062 87.105469 C 55.265625 85.933594 51.730469 80.507812 52.90625 74.980469 C 54.082031 69.453125 59.503906 65.921875 65.03125 67.089844 C 70.558594 68.261719 74.089844 73.6875 72.914062 79.214844 C 71.738281 84.742188 66.316406 88.273438 60.789062 87.105469 " clip-rule="nonzero"/></clipPath><clipPath id="1ee24f4f08"><path d="M 79 191 L 131 191 L 131 243 L 79 243 Z M 79 191 " clip-rule="nonzero"/></clipPath><clipPath id="157500f6b1"><path d="M 112.316406 192.351562 C 98.878906 188.265625 84.671875 195.84375 80.582031 209.28125 C 76.488281 222.722656 84.074219 236.925781 97.511719 241.019531 C 110.949219 245.109375 125.15625 237.527344 129.246094 224.085938 C 133.339844 210.648438 125.753906 196.441406 112.316406 192.351562 " clip-rule="nonzero"/></clipPath><clipPath id="8f5200777d"><path d="M 127 249 L 173 249 L 173 296 L 127 296 Z M 127 249 " clip-rule="nonzero"/></clipPath><clipPath id="eed4778f68"><path d="M 154.921875 250.222656 C 142.6875 247.628906 130.664062 255.449219 128.078125 267.683594 C 125.488281 279.917969 133.304688 291.9375 145.53125 294.527344 C 157.761719 297.113281 169.789062 289.300781 172.382812 277.066406 C 174.976562 264.832031 167.15625 252.808594 154.921875 250.222656 " clip-rule="nonzero"/></clipPath><clipPath id="03420c6ab3"><path d="M 32.304688 100 L 179 100 L 179 199 L 32.304688 199 Z M 32.304688 100 " clip-rule="nonzero"/></clipPath><clipPath id="53460d0d36"><path d="M 178.964844 147.460938 C 178.953125 146.859375 178.945312 146.265625 178.921875 145.667969 C 178.90625 145.28125 178.882812 144.894531 178.867188 144.507812 C 178.6875 141.023438 178.316406 137.519531 177.742188 133.996094 C 176.289062 125.085938 172.945312 116.839844 167.015625 109.820312 C 166.503906 109.21875 165.972656 108.640625 165.425781 108.085938 C 157.578125 98.660156 148.949219 98.167969 137.695312 105.957031 C 133.355469 108.957031 129.121094 112.105469 124.757812 115.0625 C 112.671875 123.253906 100.519531 123.296875 88.382812 115.160156 C 82.492188 111.210938 76.839844 106.859375 70.742188 103.265625 C 63.296875 98.871094 57.78125 98.964844 51.691406 103.398438 C 49.449219 104.417969 47.324219 106.121094 45.183594 108.703125 C 38.339844 116.957031 35.34375 126.902344 33.847656 137.183594 C 33.648438 138.550781 33.492188 139.910156 33.355469 141.269531 C 33.03125 144.199219 32.882812 147.140625 32.886719 150.105469 C 32.886719 150.4375 32.898438 150.765625 32.898438 151.101562 C 32.910156 151.808594 32.921875 152.519531 32.949219 153.226562 C 32.960938 153.523438 32.980469 153.808594 32.992188 154.097656 C 33.164062 157.574219 33.527344 161.070312 34.089844 164.585938 C 35.527344 173.5 38.851562 181.746094 44.765625 188.785156 C 45.21875 189.324219 45.691406 189.84375 46.175781 190.347656 C 54.132812 200.15625 62.847656 200.757812 74.253906 192.835938 C 78.585938 189.828125 82.816406 186.667969 87.171875 183.703125 C 99.242188 175.476562 111.394531 175.414062 123.546875 183.527344 C 129.449219 187.464844 135.109375 191.804688 141.210938 195.386719 C 148.472656 199.648438 153.890625 199.660156 159.785156 195.554688 C 162.136719 194.566406 164.355469 192.828125 166.597656 190.144531 C 173.460938 181.910156 176.472656 171.960938 177.988281 161.6875 C 178.167969 160.460938 178.324219 159.238281 178.457031 158.015625 C 178.8125 154.9375 178.980469 151.84375 178.980469 148.722656 C 178.980469 148.300781 178.96875 147.878906 178.964844 147.460938 " clip-rule="nonzero"/></clipPath><clipPath id="9c27194ee5"><path d="M 54.042969 238.25 L 75.402344 238.25 L 75.402344 259.609375 L 54.042969 259.609375 Z M 54.042969 238.25 " clip-rule="nonzero"/></clipPath><clipPath id="7fde2577f3"><path d="M 64.722656 238.25 C 58.824219 238.25 54.042969 243.03125 54.042969 248.929688 C 54.042969 254.828125 58.824219 259.609375 64.722656 259.609375 C 70.621094 259.609375 75.402344 254.828125 75.402344 248.929688 C 75.402344 243.03125 70.621094 238.25 64.722656 238.25 " clip-rule="nonzero"/></clipPath><clipPath id="365704856f"><path d="M 133.601562 34.589844 L 154.960938 34.589844 L 154.960938 55.945312 L 133.601562 55.945312 Z M 133.601562 34.589844 " clip-rule="nonzero"/></clipPath><clipPath id="0c139a51ca"><path d="M 144.28125 34.589844 C 138.382812 34.589844 133.601562 39.367188 133.601562 45.265625 C 133.601562 51.164062 138.382812 55.945312 144.28125 55.945312 C 150.179688 55.945312 154.960938 51.164062 154.960938 45.265625 C 154.960938 39.367188 150.179688 34.589844 144.28125 34.589844 " clip-rule="nonzero"/></clipPath></defs><g clip-path="url(#fa1b482375)"><g clip-path="url(#67233d8f63)"><path fill="#ffffff" d="M 30 0 L 182.136719 0 L 182.136719 300.242188 L 30 300.242188 Z M 30 0 " fill-opacity="1" fill-rule="nonzero"/></g></g><g clip-path="url(#7a37519735)"><g clip-path="url(#4c321042bd)"><path fill="#ffffff" d="M 30 0 L 182.136719 0 L 182.136719 300.242188 L 30 300.242188 Z M 30 0 " fill-opacity="1" fill-rule="nonzero"/></g></g><g clip-path="url(#6b6070f461)"><g clip-path="url(#252091d02e)"><path fill="#ffffff" d="M 30 0 L 182.136719 0 L 182.136719 300.242188 L 30 300.242188 Z M 30 0 " fill-opacity="1" fill-rule="nonzero"/></g></g><g clip-path="url(#117dc701e0)"><g clip-path="url(#d797841a2f)"><path fill="#ffffff" d="M 30 0 L 182.136719 0 L 182.136719 300.242188 L 30 300.242188 Z M 30 0 " fill-opacity="1" fill-rule="nonzero"/></g></g><g clip-path="url(#436dcbc56b)"><g clip-path="url(#a3c3283906)"><path fill="#ffffff" d="M 30 0 L 182.136719 0 L 182.136719 300.242188 L 30 300.242188 Z M 30 0 " fill-opacity="1" fill-rule="nonzero"/></g></g><g clip-path="url(#646a1150a7)"><g clip-path="url(#99b2fc791f)"><path fill="#ffffff" d="M 30 0 L 182.136719 0 L 182.136719 300.242188 L 30 300.242188 Z M 30 0 " fill-opacity="1" fill-rule="nonzero"/></g></g><g clip-path="url(#2ef921c16a)"><g clip-path="url(#c7a1dec8b1)"><path fill="#ffffff" d="M 30 0 L 182.136719 0 L 182.136719 300.242188 L 30 300.242188 Z M 30 0 " fill-opacity="1" fill-rule="nonzero"/></g></g><g clip-path="url(#32e964cfa7)"><g clip-path="url(#793b0ee97d)"><path fill="#ffffff" d="M 30 0 L 182.136719 0 L 182.136719 300.242188 L 30 300.242188 Z M 30 0 " fill-opacity="1" fill-rule="nonzero"/></g></g><g clip-path="url(#600c8c954e)"><g clip-path="url(#b285672b60)"><path fill="#ffffff" d="M 30 0 L 182.136719 0 L 182.136719 300.242188 L 30 300.242188 Z M 30 0 " fill-opacity="1" fill-rule="nonzero"/></g></g><g clip-path="url(#4ec83b0d30)"><g clip-path="url(#b5ef21aa6e)"><path fill="#ffffff" d="M 30 0 L 182.136719 0 L 182.136719 300.242188 L 30 300.242188 Z M 30 0 " fill-opacity="1" fill-rule="nonzero"/></g></g><g clip-path="url(#4da31abd36)"><g clip-path="url(#aafc97b245)"><path fill="#ffffff" d="M 30 0 L 182.136719 0 L 182.136719 300.242188 L 30 300.242188 Z M 30 0 " fill-opacity="1" fill-rule="nonzero"/></g></g><g clip-path="url(#1070879ba6)"><g clip-path="url(#479fac322b)"><path fill="#ffffff" d="M 30 0 L 182.136719 0 L 182.136719 300.242188 L 30 300.242188 Z M 30 0 " fill-opacity="1" fill-rule="nonzero"/></g></g><g clip-path="url(#1ee24f4f08)"><g clip-path="url(#157500f6b1)"><path fill="#ffffff" d="M 30 0 L 182.136719 0 L 182.136719 300.242188 L 30 300.242188 Z M 30 0 " fill-opacity="1" fill-rule="nonzero"/></g></g><g clip-path="url(#8f5200777d)"><g clip-path="url(#eed4778f68)"><path fill="#ffffff" d="M 30 0 L 182.136719 0 L 182.136719 300.242188 L 30 300.242188 Z M 30 0 " fill-opacity="1" fill-rule="nonzero"/></g></g><g clip-path="url(#03420c6ab3)"><g clip-path="url(#53460d0d36)"><path fill="#ffffff" d="M 30 0 L 182.136719 0 L 182.136719 300.242188 L 30 300.242188 Z M 30 0 " fill-opacity="1" fill-rule="nonzero"/></g></g><g clip-path="url(#9c27194ee5)"><g clip-path="url(#7fde2577f3)"><path fill="#ffffff" d="M 54.042969 238.25 L 75.402344 238.25 L 75.402344 259.609375 L 54.042969 259.609375 Z M 54.042969 238.25 " fill-opacity="1" fill-rule="nonzero"/></g></g><g clip-path="url(#365704856f)"><g clip-path="url(#0c139a51ca)"><path fill="#ffffff" d="M 133.601562 34.589844 L 154.960938 34.589844 L 154.960938 55.945312 L 133.601562 55.945312 Z M 133.601562 34.589844 " fill-opacity="1" fill-rule="nonzero"/></g></g><g fill="#ffffff" fill-opacity="1"><g transform="translate(219.418869, 180.500998)"><g><path d="M 11.171875 -22 C 9.929688 -22 8.910156 -21.742188 8.109375 -21.234375 C 7.316406 -20.734375 6.921875 -19.96875 6.921875 -18.9375 C 6.921875 -17.914062 7.316406 -17.128906 8.109375 -16.578125 C 8.910156 -16.035156 10.609375 -15.453125 13.203125 -14.828125 C 15.804688 -14.203125 17.765625 -13.316406 19.078125 -12.171875 C 20.398438 -11.035156 21.0625 -9.363281 21.0625 -7.15625 C 21.0625 -4.945312 20.226562 -3.148438 18.5625 -1.765625 C 16.894531 -0.390625 14.707031 0.296875 12 0.296875 C 8.03125 0.296875 4.515625 -1.070312 1.453125 -3.8125 L 4.125 -7.03125 C 6.6875 -4.8125 9.347656 -3.703125 12.109375 -3.703125 C 13.484375 -3.703125 14.578125 -3.992188 15.390625 -4.578125 C 16.203125 -5.171875 16.609375 -5.957031 16.609375 -6.9375 C 16.609375 -7.914062 16.222656 -8.675781 15.453125 -9.21875 C 14.691406 -9.769531 13.378906 -10.265625 11.515625 -10.703125 C 9.660156 -11.148438 8.25 -11.5625 7.28125 -11.9375 C 6.320312 -12.3125 5.46875 -12.800781 4.71875 -13.40625 C 3.21875 -14.539062 2.46875 -16.28125 2.46875 -18.625 C 2.46875 -20.976562 3.316406 -22.785156 5.015625 -24.046875 C 6.722656 -25.316406 8.832031 -25.953125 11.34375 -25.953125 C 12.96875 -25.953125 14.578125 -25.6875 16.171875 -25.15625 C 17.765625 -24.625 19.140625 -23.875 20.296875 -22.90625 L 18.015625 -19.6875 C 17.265625 -20.363281 16.25 -20.914062 14.96875 -21.34375 C 13.6875 -21.78125 12.421875 -22 11.171875 -22 Z M 11.171875 -22 "/></g></g></g><g fill="#ffffff" fill-opacity="1"><g transform="translate(242.257029, 180.500998)"><g><path d="M 7.453125 -5.078125 C 8.597656 -3.910156 10.050781 -3.328125 11.8125 -3.328125 C 13.582031 -3.328125 15.039062 -3.910156 16.1875 -5.078125 C 17.332031 -6.253906 17.90625 -7.773438 17.90625 -9.640625 C 17.90625 -11.503906 17.332031 -13.019531 16.1875 -14.1875 C 15.039062 -15.363281 13.582031 -15.953125 11.8125 -15.953125 C 10.050781 -15.953125 8.597656 -15.363281 7.453125 -14.1875 C 6.304688 -13.019531 5.734375 -11.503906 5.734375 -9.640625 C 5.734375 -7.773438 6.304688 -6.253906 7.453125 -5.078125 Z M 19.0625 -2.578125 C 17.132812 -0.660156 14.71875 0.296875 11.8125 0.296875 C 8.914062 0.296875 6.5 -0.660156 4.5625 -2.578125 C 2.632812 -4.503906 1.671875 -6.859375 1.671875 -9.640625 C 1.671875 -12.421875 2.632812 -14.769531 4.5625 -16.6875 C 6.5 -18.613281 8.914062 -19.578125 11.8125 -19.578125 C 14.71875 -19.578125 17.132812 -18.613281 19.0625 -16.6875 C 21 -14.769531 21.96875 -12.421875 21.96875 -9.640625 C 21.96875 -6.859375 21 -4.503906 19.0625 -2.578125 Z M 19.0625 -2.578125 "/></g></g></g><g fill="#ffffff" fill-opacity="1"><g transform="translate(265.892708, 180.500998)"><g><path d="M 11.484375 0.296875 C 8.804688 0.296875 6.5 -0.613281 4.5625 -2.4375 C 2.632812 -4.269531 1.671875 -6.660156 1.671875 -9.609375 C 1.671875 -12.554688 2.675781 -14.953125 4.6875 -16.796875 C 6.707031 -18.648438 9.164062 -19.578125 12.0625 -19.578125 C 14.96875 -19.578125 17.425781 -18.570312 19.4375 -16.5625 L 17.03125 -13.625 C 15.363281 -15.082031 13.6875 -15.8125 12 -15.8125 C 10.3125 -15.8125 8.84375 -15.25 7.59375 -14.125 C 6.351562 -13 5.734375 -11.546875 5.734375 -9.765625 C 5.734375 -7.992188 6.347656 -6.488281 7.578125 -5.25 C 8.804688 -4.019531 10.320312 -3.40625 12.125 -3.40625 C 13.925781 -3.40625 15.625 -4.226562 17.21875 -5.875 L 19.609375 -3.265625 C 17.265625 -0.890625 14.554688 0.296875 11.484375 0.296875 Z M 11.484375 0.296875 "/></g></g></g><g fill="#ffffff" fill-opacity="1"><g transform="translate(286.773309, 180.500998)"><g><path d="M 7 0 L 2.9375 0 L 2.9375 -19.28125 L 7 -19.28125 Z M 3.1875 -23.125 C 2.675781 -23.632812 2.421875 -24.238281 2.421875 -24.9375 C 2.421875 -25.632812 2.675781 -26.238281 3.1875 -26.75 C 3.695312 -27.257812 4.300781 -27.515625 5 -27.515625 C 5.695312 -27.515625 6.300781 -27.257812 6.8125 -26.75 C 7.320312 -26.238281 7.578125 -25.632812 7.578125 -24.9375 C 7.578125 -24.238281 7.320312 -23.632812 6.8125 -23.125 C 6.300781 -22.613281 5.695312 -22.359375 5 -22.359375 C 4.300781 -22.359375 3.695312 -22.613281 3.1875 -23.125 Z M 3.1875 -23.125 "/></g></g></g><g fill="#ffffff" fill-opacity="1"><g transform="translate(296.706096, 180.500998)"><g><path d="M 20.875 -7.859375 L 5.765625 -7.859375 C 5.859375 -6.460938 6.5 -5.332031 7.6875 -4.46875 C 8.875 -3.613281 10.226562 -3.1875 11.75 -3.1875 C 14.164062 -3.1875 16 -3.945312 17.25 -5.46875 L 19.578125 -2.9375 C 17.492188 -0.78125 14.785156 0.296875 11.453125 0.296875 C 8.742188 0.296875 6.441406 -0.601562 4.546875 -2.40625 C 2.648438 -4.207031 1.703125 -6.625 1.703125 -9.65625 C 1.703125 -12.6875 2.664062 -15.097656 4.59375 -16.890625 C 6.53125 -18.679688 8.8125 -19.578125 11.4375 -19.578125 C 14.0625 -19.578125 16.289062 -18.785156 18.125 -17.203125 C 19.957031 -15.617188 20.875 -13.4375 20.875 -10.65625 Z M 5.765625 -11.0625 L 16.8125 -11.0625 C 16.8125 -12.675781 16.304688 -13.914062 15.296875 -14.78125 C 14.285156 -15.65625 13.035156 -16.09375 11.546875 -16.09375 C 10.054688 -16.09375 8.71875 -15.640625 7.53125 -14.734375 C 6.351562 -13.828125 5.765625 -12.601562 5.765625 -11.0625 Z M 5.765625 -11.0625 "/></g></g></g><g fill="#ffffff" fill-opacity="1"><g transform="translate(319.109239, 180.500998)"><g><path d="M 10.796875 0.296875 C 8.359375 0.296875 6.234375 -0.617188 4.421875 -2.453125 C 2.609375 -4.296875 1.703125 -6.710938 1.703125 -9.703125 C 1.703125 -12.703125 2.628906 -15.097656 4.484375 -16.890625 C 6.347656 -18.679688 8.566406 -19.578125 11.140625 -19.578125 C 13.710938 -19.578125 15.785156 -18.488281 17.359375 -16.3125 L 17.359375 -26.890625 L 21.421875 -26.890625 L 21.421875 0 L 17.359375 0 L 17.359375 -2.90625 C 15.859375 -0.769531 13.671875 0.296875 10.796875 0.296875 Z M 5.765625 -9.546875 C 5.765625 -7.703125 6.351562 -6.195312 7.53125 -5.03125 C 8.71875 -3.875 10.109375 -3.296875 11.703125 -3.296875 C 13.296875 -3.296875 14.648438 -3.878906 15.765625 -5.046875 C 16.878906 -6.222656 17.4375 -7.726562 17.4375 -9.5625 C 17.4375 -11.40625 16.878906 -12.941406 15.765625 -14.171875 C 14.648438 -15.398438 13.285156 -16.015625 11.671875 -16.015625 C 10.054688 -16.015625 8.664062 -15.398438 7.5 -14.171875 C 6.34375 -12.941406 5.765625 -11.398438 5.765625 -9.546875 Z M 5.765625 -9.546875 "/></g></g></g><g fill="#ffffff" fill-opacity="1"><g transform="translate(343.469941, 180.500998)"><g><path d="M 18.5625 0 L 14.859375 0 L 14.859375 -2.578125 C 13.265625 -0.660156 11.128906 0.296875 8.453125 0.296875 C 6.441406 0.296875 4.773438 -0.269531 3.453125 -1.40625 C 2.140625 -2.550781 1.484375 -4.070312 1.484375 -5.96875 C 1.484375 -7.863281 2.179688 -9.28125 3.578125 -10.21875 C 4.984375 -11.164062 6.882812 -11.640625 9.28125 -11.640625 L 14.53125 -11.640625 L 14.53125 -12.359375 C 14.53125 -14.921875 13.109375 -16.203125 10.265625 -16.203125 C 8.472656 -16.203125 6.609375 -15.550781 4.671875 -14.25 L 2.859375 -16.78125 C 5.203125 -18.644531 7.863281 -19.578125 10.84375 -19.578125 C 13.113281 -19.578125 14.96875 -19 16.40625 -17.84375 C 17.84375 -16.695312 18.5625 -14.894531 18.5625 -12.4375 Z M 14.5 -7.171875 L 14.5 -8.8125 L 9.9375 -8.8125 C 7.007812 -8.8125 5.546875 -7.890625 5.546875 -6.046875 C 5.546875 -5.109375 5.90625 -4.390625 6.625 -3.890625 C 7.351562 -3.398438 8.363281 -3.15625 9.65625 -3.15625 C 10.945312 -3.15625 12.078125 -3.515625 13.046875 -4.234375 C 14.015625 -4.960938 14.5 -5.941406 14.5 -7.171875 Z M 14.5 -7.171875 "/></g></g></g><g fill="#ffffff" fill-opacity="1"><g transform="translate(364.749302, 180.500998)"><g><path d="M 10.796875 0.296875 C 8.359375 0.296875 6.234375 -0.617188 4.421875 -2.453125 C 2.609375 -4.296875 1.703125 -6.710938 1.703125 -9.703125 C 1.703125 -12.703125 2.628906 -15.097656 4.484375 -16.890625 C 6.347656 -18.679688 8.566406 -19.578125 11.140625 -19.578125 C 13.710938 -19.578125 15.785156 -18.488281 17.359375 -16.3125 L 17.359375 -26.890625 L 21.421875 -26.890625 L 21.421875 0 L 17.359375 0 L 17.359375 -2.90625 C 15.859375 -0.769531 13.671875 0.296875 10.796875 0.296875 Z M 5.765625 -9.546875 C 5.765625 -7.703125 6.351562 -6.195312 7.53125 -5.03125 C 8.71875 -3.875 10.109375 -3.296875 11.703125 -3.296875 C 13.296875 -3.296875 14.648438 -3.878906 15.765625 -5.046875 C 16.878906 -6.222656 17.4375 -7.726562 17.4375 -9.5625 C 17.4375 -11.40625 16.878906 -12.941406 15.765625 -14.171875 C 14.648438 -15.398438 13.285156 -16.015625 11.671875 -16.015625 C 10.054688 -16.015625 8.664062 -15.398438 7.5 -14.171875 C 6.34375 -12.941406 5.765625 -11.398438 5.765625 -9.546875 Z M 5.765625 -9.546875 "/></g></g></g><g fill="#ffffff" fill-opacity="1"><g transform="translate(389.110013, 180.500998)"><g/></g></g><g fill="#ffffff" fill-opacity="1"><g transform="translate(399.042795, 180.500998)"><g><path d="M 7.796875 0 L 3.515625 0 L 3.515625 -25.34375 L 10.1875 -25.34375 L 17.828125 -9.421875 L 25.484375 -25.34375 L 32.125 -25.34375 L 32.125 0 L 27.84375 0 L 27.84375 -19.796875 L 19 -2.21875 L 16.609375 -2.21875 L 7.796875 -19.796875 Z M 7.796875 0 "/></g></g></g><g fill="#ffffff" fill-opacity="1"><g transform="translate(434.677574, 180.500998)"><g><path d="M 20.875 -7.859375 L 5.765625 -7.859375 C 5.859375 -6.460938 6.5 -5.332031 7.6875 -4.46875 C 8.875 -3.613281 10.226562 -3.1875 11.75 -3.1875 C 14.164062 -3.1875 16 -3.945312 17.25 -5.46875 L 19.578125 -2.9375 C 17.492188 -0.78125 14.785156 0.296875 11.453125 0.296875 C 8.742188 0.296875 6.441406 -0.601562 4.546875 -2.40625 C 2.648438 -4.207031 1.703125 -6.625 1.703125 -9.65625 C 1.703125 -12.6875 2.664062 -15.097656 4.59375 -16.890625 C 6.53125 -18.679688 8.8125 -19.578125 11.4375 -19.578125 C 14.0625 -19.578125 16.289062 -18.785156 18.125 -17.203125 C 19.957031 -15.617188 20.875 -13.4375 20.875 -10.65625 Z M 5.765625 -11.0625 L 16.8125 -11.0625 C 16.8125 -12.675781 16.304688 -13.914062 15.296875 -14.78125 C 14.285156 -15.65625 13.035156 -16.09375 11.546875 -16.09375 C 10.054688 -16.09375 8.71875 -15.640625 7.53125 -14.734375 C 6.351562 -13.828125 5.765625 -12.601562 5.765625 -11.0625 Z M 5.765625 -11.0625 "/></g></g></g><g fill="#ffffff" fill-opacity="1"><g transform="translate(457.080722, 180.500998)"><g><path d="M 6.015625 -19.28125 L 10.15625 -12.9375 L 14.421875 -19.28125 L 19.25 -19.28125 L 12.5 -9.859375 L 19.53125 0 L 14.53125 0 L 9.9375 -6.421875 L 5.4375 0 L 0.6875 0 L 7.546875 -9.828125 L 1.046875 -19.28125 Z M 6.015625 -19.28125 "/></g></g></g><g fill="#ffffff" fill-opacity="1"><g transform="translate(477.308809, 180.500998)"><g><path d="M 7 0 L 2.9375 0 L 2.9375 -19.28125 L 7 -19.28125 Z M 3.1875 -23.125 C 2.675781 -23.632812 2.421875 -24.238281 2.421875 -24.9375 C 2.421875 -25.632812 2.675781 -26.238281 3.1875 -26.75 C 3.695312 -27.257812 4.300781 -27.515625 5 -27.515625 C 5.695312 -27.515625 6.300781 -27.257812 6.8125 -26.75 C 7.320312 -26.238281 7.578125 -25.632812 7.578125 -24.9375 C 7.578125 -24.238281 7.320312 -23.632812 6.8125 -23.125 C 6.300781 -22.613281 5.695312 -22.359375 5 -22.359375 C 4.300781 -22.359375 3.695312 -22.613281 3.1875 -23.125 Z M 3.1875 -23.125 "/></g></g></g><g fill="#ffffff" fill-opacity="1"><g transform="translate(487.241591, 180.500998)"><g><path d="M 11.484375 0.296875 C 8.804688 0.296875 6.5 -0.613281 4.5625 -2.4375 C 2.632812 -4.269531 1.671875 -6.660156 1.671875 -9.609375 C 1.671875 -12.554688 2.675781 -14.953125 4.6875 -16.796875 C 6.707031 -18.648438 9.164062 -19.578125 12.0625 -19.578125 C 14.96875 -19.578125 17.425781 -18.570312 19.4375 -16.5625 L 17.03125 -13.625 C 15.363281 -15.082031 13.6875 -15.8125 12 -15.8125 C 10.3125 -15.8125 8.84375 -15.25 7.59375 -14.125 C 6.351562 -13 5.734375 -11.546875 5.734375 -9.765625 C 5.734375 -7.992188 6.347656 -6.488281 7.578125 -5.25 C 8.804688 -4.019531 10.320312 -3.40625 12.125 -3.40625 C 13.925781 -3.40625 15.625 -4.226562 17.21875 -5.875 L 19.609375 -3.265625 C 17.265625 -0.890625 14.554688 0.296875 11.484375 0.296875 Z M 11.484375 0.296875 "/></g></g></g><g fill="#ffffff" fill-opacity="1"><g transform="translate(508.122192, 180.500998)"><g><path d="M 18.5625 0 L 14.859375 0 L 14.859375 -2.578125 C 13.265625 -0.660156 11.128906 0.296875 8.453125 0.296875 C 6.441406 0.296875 4.773438 -0.269531 3.453125 -1.40625 C 2.140625 -2.550781 1.484375 -4.070312 1.484375 -5.96875 C 1.484375 -7.863281 2.179688 -9.28125 3.578125 -10.21875 C 4.984375 -11.164062 6.882812 -11.640625 9.28125 -11.640625 L 14.53125 -11.640625 L 14.53125 -12.359375 C 14.53125 -14.921875 13.109375 -16.203125 10.265625 -16.203125 C 8.472656 -16.203125 6.609375 -15.550781 4.671875 -14.25 L 2.859375 -16.78125 C 5.203125 -18.644531 7.863281 -19.578125 10.84375 -19.578125 C 13.113281 -19.578125 14.96875 -19 16.40625 -17.84375 C 17.84375 -16.695312 18.5625 -14.894531 18.5625 -12.4375 Z M 14.5 -7.171875 L 14.5 -8.8125 L 9.9375 -8.8125 C 7.007812 -8.8125 5.546875 -7.890625 5.546875 -6.046875 C 5.546875 -5.109375 5.90625 -4.390625 6.625 -3.890625 C 7.351562 -3.398438 8.363281 -3.15625 9.65625 -3.15625 C 10.945312 -3.15625 12.078125 -3.515625 13.046875 -4.234375 C 14.015625 -4.960938 14.5 -5.941406 14.5 -7.171875 Z M 14.5 -7.171875 "/></g></g></g><g fill="#ffffff" fill-opacity="1"><g transform="translate(529.401553, 180.500998)"><g><path d="M 7 -10.4375 L 7 0 L 2.9375 0 L 2.9375 -19.28125 L 7 -19.28125 L 7 -15.765625 C 7.644531 -16.953125 8.539062 -17.882812 9.6875 -18.5625 C 10.84375 -19.238281 12.082031 -19.578125 13.40625 -19.578125 C 15.582031 -19.578125 17.34375 -18.910156 18.6875 -17.578125 C 20.03125 -16.253906 20.703125 -14.332031 20.703125 -11.8125 L 20.703125 0 L 16.640625 0 L 16.640625 -10.578125 C 16.640625 -14.128906 15.164062 -15.90625 12.21875 -15.90625 C 10.8125 -15.90625 9.585938 -15.441406 8.546875 -14.515625 C 7.515625 -13.585938 7 -12.226562 7 -10.4375 Z M 7 -10.4375 "/></g></g></g><g fill="#ffffff" fill-opacity="1"><g transform="translate(552.81972, 180.500998)"><g><path d="M 18.5625 0 L 14.859375 0 L 14.859375 -2.578125 C 13.265625 -0.660156 11.128906 0.296875 8.453125 0.296875 C 6.441406 0.296875 4.773438 -0.269531 3.453125 -1.40625 C 2.140625 -2.550781 1.484375 -4.070312 1.484375 -5.96875 C 1.484375 -7.863281 2.179688 -9.28125 3.578125 -10.21875 C 4.984375 -11.164062 6.882812 -11.640625 9.28125 -11.640625 L 14.53125 -11.640625 L 14.53125 -12.359375 C 14.53125 -14.921875 13.109375 -16.203125 10.265625 -16.203125 C 8.472656 -16.203125 6.609375 -15.550781 4.671875 -14.25 L 2.859375 -16.78125 C 5.203125 -18.644531 7.863281 -19.578125 10.84375 -19.578125 C 13.113281 -19.578125 14.96875 -19 16.40625 -17.84375 C 17.84375 -16.695312 18.5625 -14.894531 18.5625 -12.4375 Z M 14.5 -7.171875 L 14.5 -8.8125 L 9.9375 -8.8125 C 7.007812 -8.8125 5.546875 -7.890625 5.546875 -6.046875 C 5.546875 -5.109375 5.90625 -4.390625 6.625 -3.890625 C 7.351562 -3.398438 8.363281 -3.15625 9.65625 -3.15625 C 10.945312 -3.15625 12.078125 -3.515625 13.046875 -4.234375 C 14.015625 -4.960938 14.5 -5.941406 14.5 -7.171875 Z M 14.5 -7.171875 "/></g></g></g><g fill="#ffffff" fill-opacity="1"><g transform="translate(574.099061, 180.500998)"><g/></g></g><g fill="#ffffff" fill-opacity="1"><g transform="translate(584.031863, 180.500998)"><g><path d="M 10.796875 0.296875 C 8.359375 0.296875 6.234375 -0.617188 4.421875 -2.453125 C 2.609375 -4.296875 1.703125 -6.710938 1.703125 -9.703125 C 1.703125 -12.703125 2.628906 -15.097656 4.484375 -16.890625 C 6.347656 -18.679688 8.566406 -19.578125 11.140625 -19.578125 C 13.710938 -19.578125 15.785156 -18.488281 17.359375 -16.3125 L 17.359375 -26.890625 L 21.421875 -26.890625 L 21.421875 0 L 17.359375 0 L 17.359375 -2.90625 C 15.859375 -0.769531 13.671875 0.296875 10.796875 0.296875 Z M 5.765625 -9.546875 C 5.765625 -7.703125 6.351562 -6.195312 7.53125 -5.03125 C 8.71875 -3.875 10.109375 -3.296875 11.703125 -3.296875 C 13.296875 -3.296875 14.648438 -3.878906 15.765625 -5.046875 C 16.878906 -6.222656 17.4375 -7.726562 17.4375 -9.5625 C 17.4375 -11.40625 16.878906 -12.941406 15.765625 -14.171875 C 14.648438 -15.398438 13.285156 -16.015625 11.671875 -16.015625 C 10.054688 -16.015625 8.664062 -15.398438 7.5 -14.171875 C 6.34375 -12.941406 5.765625 -11.398438 5.765625 -9.546875 Z M 5.765625 -9.546875 "/></g></g></g><g fill="#ffffff" fill-opacity="1"><g transform="translate(608.392574, 180.500998)"><g><path d="M 20.875 -7.859375 L 5.765625 -7.859375 C 5.859375 -6.460938 6.5 -5.332031 7.6875 -4.46875 C 8.875 -3.613281 10.226562 -3.1875 11.75 -3.1875 C 14.164062 -3.1875 16 -3.945312 17.25 -5.46875 L 19.578125 -2.9375 C 17.492188 -0.78125 14.785156 0.296875 11.453125 0.296875 C 8.742188 0.296875 6.441406 -0.601562 4.546875 -2.40625 C 2.648438 -4.207031 1.703125 -6.625 1.703125 -9.65625 C 1.703125 -12.6875 2.664062 -15.097656 4.59375 -16.890625 C 6.53125 -18.679688 8.8125 -19.578125 11.4375 -19.578125 C 14.0625 -19.578125 16.289062 -18.785156 18.125 -17.203125 C 19.957031 -15.617188 20.875 -13.4375 20.875 -10.65625 Z M 5.765625 -11.0625 L 16.8125 -11.0625 C 16.8125 -12.675781 16.304688 -13.914062 15.296875 -14.78125 C 14.285156 -15.65625 13.035156 -16.09375 11.546875 -16.09375 C 10.054688 -16.09375 8.71875 -15.640625 7.53125 -14.734375 C 6.351562 -13.828125 5.765625 -12.601562 5.765625 -11.0625 Z M 5.765625 -11.0625 "/></g></g></g><g fill="#ffffff" fill-opacity="1"><g transform="translate(630.795124, 180.500998)"><g/></g></g><g fill="#ffffff" fill-opacity="1"><g transform="translate(219.418869, 134.422882)"><g><path d="M 19.046875 -6.453125 C 22.628906 -6.453125 25.554688 -7.875 27.828125 -10.71875 L 32.515625 -5.890625 C 28.804688 -1.710938 24.429688 0.375 19.390625 0.375 C 14.347656 0.375 10.195312 -1.210938 6.9375 -4.390625 C 3.6875 -7.578125 2.0625 -11.59375 2.0625 -16.4375 C 2.0625 -21.289062 3.71875 -25.335938 7.03125 -28.578125 C 10.351562 -31.828125 14.421875 -33.453125 19.234375 -33.453125 C 24.597656 -33.453125 29.085938 -31.40625 32.703125 -27.3125 L 28.15625 -22.171875 C 25.851562 -25.046875 22.984375 -26.484375 19.546875 -26.484375 C 16.804688 -26.484375 14.460938 -25.582031 12.515625 -23.78125 C 10.566406 -21.988281 9.59375 -19.570312 9.59375 -16.53125 C 9.59375 -13.488281 10.507812 -11.046875 12.34375 -9.203125 C 14.1875 -7.367188 16.421875 -6.453125 19.046875 -6.453125 Z M 19.046875 -6.453125 "/></g></g></g><g fill="#ffffff" fill-opacity="1"><g transform="translate(253.666514, 134.422882)"><g><path d="M 27.3125 0 L 24.28125 -7.0625 L 10.578125 -7.0625 L 7.53125 0 L -0.234375 0 L 13.890625 -32.703125 L 20.953125 -32.703125 L 35.09375 0 Z M 17.453125 -22.96875 L 13.328125 -13.46875 L 21.515625 -13.46875 Z M 17.453125 -22.96875 "/></g></g></g><g fill="#ffffff" fill-opacity="1"><g transform="translate(288.522382, 134.422882)"><g><path d="M 15.578125 -32.703125 C 20.597656 -32.703125 24.253906 -31.726562 26.546875 -29.78125 C 28.835938 -27.832031 29.984375 -24.835938 29.984375 -20.796875 C 29.984375 -16.753906 28.804688 -13.796875 26.453125 -11.921875 C 24.097656 -10.054688 20.503906 -9.125 15.671875 -9.125 L 11.328125 -9.125 L 11.328125 0 L 4.015625 0 L 4.015625 -32.703125 Z M 16.234375 -15.4375 C 18.660156 -15.4375 20.3125 -15.925781 21.1875 -16.90625 C 22.0625 -17.894531 22.5 -19.332031 22.5 -21.21875 C 22.5 -23.101562 21.929688 -24.441406 20.796875 -25.234375 C 19.660156 -26.035156 17.890625 -26.4375 15.484375 -26.4375 L 11.328125 -26.4375 L 11.328125 -15.4375 Z M 16.234375 -15.4375 "/></g></g></g><g fill="#ffffff" fill-opacity="1"><g transform="translate(320.196775, 134.422882)"><g><path d="M 4.015625 -32.703125 L 11.328125 -32.703125 L 11.328125 0 L 4.015625 0 Z M 11.046875 -36.0625 L 4.34375 -36.0625 L 10.296875 -44.34375 L 17.546875 -41.3125 Z M 11.046875 -36.0625 "/></g></g></g><g fill="#ffffff" fill-opacity="1"><g transform="translate(335.54271, 134.422882)"><g><path d="M 17.875 -26.390625 L 17.875 0 L 10.578125 0 L 10.578125 -26.390625 L 1.3125 -26.390625 L 1.3125 -32.703125 L 27.140625 -32.703125 L 27.140625 -26.390625 Z M 17.875 -26.390625 "/></g></g></g><g fill="#ffffff" fill-opacity="1"><g transform="translate(363.988846, 134.422882)"><g><path d="M 12.671875 -8.4375 C 13.890625 -6.925781 15.523438 -6.171875 17.578125 -6.171875 C 19.640625 -6.171875 21.269531 -6.925781 22.46875 -8.4375 C 23.675781 -9.957031 24.28125 -12.023438 24.28125 -14.640625 L 24.28125 -32.703125 L 31.578125 -32.703125 L 31.578125 -14.40625 C 31.578125 -9.664062 30.265625 -6.023438 27.640625 -3.484375 C 25.023438 -0.941406 21.675781 0.328125 17.59375 0.328125 C 13.507812 0.328125 10.148438 -0.945312 7.515625 -3.5 C 4.878906 -6.0625 3.5625 -9.695312 3.5625 -14.40625 L 3.5625 -32.703125 L 10.859375 -32.703125 L 10.859375 -14.640625 C 10.859375 -12.023438 11.460938 -9.957031 12.671875 -8.4375 Z M 12.671875 -8.4375 "/></g></g></g><g fill="#ffffff" fill-opacity="1"><g transform="translate(399.125434, 134.422882)"><g><path d="M 4.015625 0 L 4.015625 -32.703125 L 11.328125 -32.703125 L 11.328125 -6.5 L 25.265625 -6.5 L 25.265625 0 Z M 4.015625 0 "/></g></g></g><g fill="#ffffff" fill-opacity="1"><g transform="translate(425.700116, 134.422882)"><g><path d="M 29.046875 -16.53125 C 29.046875 -19.445312 28.109375 -21.9375 26.234375 -24 C 24.367188 -26.0625 22.070312 -27.09375 19.34375 -27.09375 C 16.613281 -27.09375 14.3125 -26.0625 12.4375 -24 C 10.570312 -21.9375 9.640625 -19.445312 9.640625 -16.53125 C 9.640625 -13.613281 10.570312 -11.132812 12.4375 -9.09375 C 14.3125 -7.050781 16.613281 -6.03125 19.34375 -6.03125 C 22.070312 -6.03125 24.367188 -7.050781 26.234375 -9.09375 C 28.109375 -11.132812 29.046875 -13.613281 29.046875 -16.53125 Z M 31.53125 -4.515625 C 28.226562 -1.285156 24.15625 0.328125 19.3125 0.328125 C 14.476562 0.328125 10.410156 -1.285156 7.109375 -4.515625 C 3.804688 -7.742188 2.15625 -11.757812 2.15625 -16.5625 C 2.15625 -21.363281 3.804688 -25.378906 7.109375 -28.609375 C 10.410156 -31.835938 14.476562 -33.453125 19.3125 -33.453125 C 24.15625 -33.453125 28.226562 -31.835938 31.53125 -28.609375 C 34.832031 -25.378906 36.484375 -21.363281 36.484375 -16.5625 C 36.484375 -11.757812 34.832031 -7.742188 31.53125 -4.515625 Z M 31.53125 -4.515625 "/></g></g></g><g fill="#ffffff" fill-opacity="1"><g transform="translate(464.345692, 134.422882)"><g/></g></g><g fill="#ffffff" fill-opacity="1"><g transform="translate(476.697292, 134.422882)"><g><path d="M 26.90625 -32.703125 L 34.203125 -32.703125 L 34.203125 0 L 26.90625 0 L 11.328125 -20.484375 L 11.328125 0 L 4.015625 0 L 4.015625 -32.703125 L 10.859375 -32.703125 L 26.90625 -11.65625 Z M 26.90625 -32.703125 "/></g></g></g><g fill="#ffffff" fill-opacity="1"><g transform="translate(514.92179, 134.422882)"><g><path d="M 29.046875 -16.53125 C 29.046875 -19.445312 28.109375 -21.9375 26.234375 -24 C 24.367188 -26.0625 22.070312 -27.09375 19.34375 -27.09375 C 16.613281 -27.09375 14.3125 -26.0625 12.4375 -24 C 10.570312 -21.9375 9.640625 -19.445312 9.640625 -16.53125 C 9.640625 -13.613281 10.570312 -11.132812 12.4375 -9.09375 C 14.3125 -7.050781 16.613281 -6.03125 19.34375 -6.03125 C 22.070312 -6.03125 24.367188 -7.050781 26.234375 -9.09375 C 28.109375 -11.132812 29.046875 -13.613281 29.046875 -16.53125 Z M 31.53125 -4.515625 C 28.226562 -1.285156 24.15625 0.328125 19.3125 0.328125 C 14.476562 0.328125 10.410156 -1.285156 7.109375 -4.515625 C 3.804688 -7.742188 2.15625 -11.757812 2.15625 -16.5625 C 2.15625 -21.363281 3.804688 -25.378906 7.109375 -28.609375 C 10.410156 -31.835938 14.476562 -33.453125 19.3125 -33.453125 C 24.15625 -33.453125 28.226562 -31.835938 31.53125 -28.609375 C 34.832031 -25.378906 36.484375 -21.363281 36.484375 -16.5625 C 36.484375 -11.757812 34.832031 -7.742188 31.53125 -4.515625 Z M 31.53125 -4.515625 "/></g></g></g><g fill="#ffffff" fill-opacity="1"><g transform="translate(553.567348, 134.422882)"><g><path d="M 30.546875 -21.84375 C 30.546875 -16.601562 28.472656 -13.222656 24.328125 -11.703125 L 32.609375 0 L 23.625 0 L 16.375 -10.4375 L 11.328125 -10.4375 L 11.328125 0 L 4.015625 0 L 4.015625 -32.703125 L 16.421875 -32.703125 C 21.503906 -32.703125 25.128906 -31.84375 27.296875 -30.125 C 29.460938 -28.40625 30.546875 -25.644531 30.546875 -21.84375 Z M 16.65625 -16.75 C 19.144531 -16.75 20.84375 -17.15625 21.75 -17.96875 C 22.65625 -18.78125 23.109375 -20.066406 23.109375 -21.828125 C 23.109375 -23.585938 22.640625 -24.796875 21.703125 -25.453125 C 20.765625 -26.109375 19.128906 -26.4375 16.796875 -26.4375 L 11.328125 -26.4375 L 11.328125 -16.75 Z M 16.65625 -16.75 "/></g></g></g><g fill="#ffffff" fill-opacity="1"><g transform="translate(587.581064, 134.422882)"><g><path d="M 27.59375 -32.703125 L 27.59375 -26.203125 L 11.328125 -26.203125 L 11.328125 -19.46875 L 25.96875 -19.46875 L 25.96875 -13.234375 L 11.328125 -13.234375 L 11.328125 -6.453125 L 28.109375 -6.453125 L 28.109375 0 L 4.015625 0 L 4.015625 -32.703125 Z M 27.59375 -32.703125 "/></g></g></g><g fill="#ffffff" fill-opacity="1"><g transform="translate(618.17936, 134.422882)"><g><path d="M 14.546875 -27.046875 C 13.328125 -27.046875 12.367188 -26.753906 11.671875 -26.171875 C 10.972656 -25.597656 10.625 -24.832031 10.625 -23.875 C 10.625 -22.925781 11.050781 -22.171875 11.90625 -21.609375 C 12.757812 -21.046875 14.738281 -20.382812 17.84375 -19.625 C 20.945312 -18.863281 23.351562 -17.71875 25.0625 -16.1875 C 26.78125 -14.65625 27.640625 -12.421875 27.640625 -9.484375 C 27.640625 -6.554688 26.539062 -4.179688 24.34375 -2.359375 C 22.144531 -0.535156 19.253906 0.375 15.671875 0.375 C 10.492188 0.375 5.832031 -1.539062 1.6875 -5.375 L 6.03125 -10.71875 C 9.5625 -7.625 12.820312 -6.078125 15.8125 -6.078125 C 17.15625 -6.078125 18.207031 -6.363281 18.96875 -6.9375 C 19.726562 -7.519531 20.109375 -8.300781 20.109375 -9.28125 C 20.109375 -10.269531 19.703125 -11.050781 18.890625 -11.625 C 18.085938 -12.195312 16.484375 -12.78125 14.078125 -13.375 C 10.273438 -14.28125 7.492188 -15.457031 5.734375 -16.90625 C 3.972656 -18.363281 3.09375 -20.640625 3.09375 -23.734375 C 3.09375 -26.835938 4.207031 -29.234375 6.4375 -30.921875 C 8.664062 -32.609375 11.445312 -33.453125 14.78125 -33.453125 C 16.96875 -33.453125 19.148438 -33.078125 21.328125 -32.328125 C 23.515625 -31.578125 25.421875 -30.515625 27.046875 -29.140625 L 23.34375 -23.8125 C 20.507812 -25.96875 17.578125 -27.046875 14.546875 -27.046875 Z M 14.546875 -27.046875 "/></g></g></g><g fill="#ffffff" fill-opacity="1"><g transform="translate(648.029091, 134.422882)"><g><path d="M 17.875 -26.390625 L 17.875 0 L 10.578125 0 L 10.578125 -26.390625 L 1.3125 -26.390625 L 1.3125 -32.703125 L 27.140625 -32.703125 L 27.140625 -26.390625 Z M 17.875 -26.390625 "/></g></g></g><g fill="#ffffff" fill-opacity="1"><g transform="translate(676.475217, 134.422882)"><g><path d="M 27.59375 -32.703125 L 27.59375 -26.203125 L 11.328125 -26.203125 L 11.328125 -19.46875 L 25.96875 -19.46875 L 25.96875 -13.234375 L 11.328125 -13.234375 L 11.328125 -6.453125 L 28.109375 -6.453125 L 28.109375 0 L 4.015625 0 L 4.015625 -32.703125 Z M 27.59375 -32.703125 "/></g></g></g><g fill="#ffffff" fill-opacity="1"><g transform="translate(219.418869, 223.707558)"><g><path d="M 22.515625 -25.34375 L 26.78125 -25.34375 L 26.78125 0 L 22.15625 0 L 7.796875 -18.484375 L 7.796875 0 L 3.515625 0 L 3.515625 -25.34375 L 7.796875 -25.34375 L 22.515625 -6.421875 Z M 22.515625 -25.34375 "/></g></g></g><g fill="#ffffff" fill-opacity="1"><g transform="translate(249.724743, 223.707558)"><g><path d="M 16.421875 -8.84375 L 16.421875 -19.28125 L 20.484375 -19.28125 L 20.484375 0 L 16.421875 0 L 16.421875 -3.515625 C 15.765625 -2.328125 14.863281 -1.394531 13.71875 -0.71875 C 12.570312 -0.0390625 11.332031 0.296875 10 0.296875 C 7.832031 0.296875 6.078125 -0.367188 4.734375 -1.703125 C 3.390625 -3.035156 2.71875 -4.957031 2.71875 -7.46875 L 2.71875 -19.28125 L 6.78125 -19.28125 L 6.78125 -8.703125 C 6.78125 -5.148438 8.253906 -3.375 11.203125 -3.375 C 12.597656 -3.375 13.816406 -3.835938 14.859375 -4.765625 C 15.898438 -5.691406 16.421875 -7.050781 16.421875 -8.84375 Z M 16.421875 -8.84375 "/></g></g></g><g fill="#ffffff" fill-opacity="1"><g transform="translate(273.142919, 223.707558)"><g><path d="M 7.9375 -16.015625 L 7.9375 -6.234375 C 7.9375 -5.316406 8.175781 -4.582031 8.65625 -4.03125 C 9.144531 -3.488281 9.820312 -3.21875 10.6875 -3.21875 C 11.5625 -3.21875 12.394531 -3.644531 13.1875 -4.5 L 14.859375 -1.625 C 13.429688 -0.34375 11.851562 0.296875 10.125 0.296875 C 8.40625 0.296875 6.929688 -0.300781 5.703125 -1.5 C 4.484375 -2.695312 3.875 -4.3125 3.875 -6.34375 L 3.875 -16.015625 L 1.453125 -16.015625 L 1.453125 -19.28125 L 3.875 -19.28125 L 3.875 -25.34375 L 7.9375 -25.34375 L 7.9375 -19.28125 L 13.015625 -19.28125 L 13.015625 -16.015625 Z M 7.9375 -16.015625 "/></g></g></g><g fill="#ffffff" fill-opacity="1"><g transform="translate(288.295856, 223.707558)"><g><path d="M 13.046875 -15.484375 C 11.046875 -15.484375 9.535156 -14.828125 8.515625 -13.515625 C 7.503906 -12.210938 7 -10.460938 7 -8.265625 L 7 0 L 2.9375 0 L 2.9375 -19.28125 L 7 -19.28125 L 7 -15.40625 C 7.644531 -16.613281 8.53125 -17.601562 9.65625 -18.375 C 10.78125 -19.144531 11.972656 -19.546875 13.234375 -19.578125 L 13.265625 -15.484375 C 13.191406 -15.484375 13.117188 -15.484375 13.046875 -15.484375 Z M 13.046875 -15.484375 "/></g></g></g><g fill="#ffffff" fill-opacity="1"><g transform="translate(302.68752, 223.707558)"><g><path d="M 7 0 L 2.9375 0 L 2.9375 -19.28125 L 7 -19.28125 Z M 3.1875 -23.125 C 2.675781 -23.632812 2.421875 -24.238281 2.421875 -24.9375 C 2.421875 -25.632812 2.675781 -26.238281 3.1875 -26.75 C 3.695312 -27.257812 4.300781 -27.515625 5 -27.515625 C 5.695312 -27.515625 6.300781 -27.257812 6.8125 -26.75 C 7.320312 -26.238281 7.578125 -25.632812 7.578125 -24.9375 C 7.578125 -24.238281 7.320312 -23.632812 6.8125 -23.125 C 6.300781 -22.613281 5.695312 -22.359375 5 -22.359375 C 4.300781 -22.359375 3.695312 -22.613281 3.1875 -23.125 Z M 3.1875 -23.125 "/></g></g></g><g fill="#ffffff" fill-opacity="1"><g transform="translate(312.620301, 223.707558)"><g><path d="M 11.484375 0.296875 C 8.804688 0.296875 6.5 -0.613281 4.5625 -2.4375 C 2.632812 -4.269531 1.671875 -6.660156 1.671875 -9.609375 C 1.671875 -12.554688 2.675781 -14.953125 4.6875 -16.796875 C 6.707031 -18.648438 9.164062 -19.578125 12.0625 -19.578125 C 14.96875 -19.578125 17.425781 -18.570312 19.4375 -16.5625 L 17.03125 -13.625 C 15.363281 -15.082031 13.6875 -15.8125 12 -15.8125 C 10.3125 -15.8125 8.84375 -15.25 7.59375 -14.125 C 6.351562 -13 5.734375 -11.546875 5.734375 -9.765625 C 5.734375 -7.992188 6.347656 -6.488281 7.578125 -5.25 C 8.804688 -4.019531 10.320312 -3.40625 12.125 -3.40625 C 13.925781 -3.40625 15.625 -4.226562 17.21875 -5.875 L 19.609375 -3.265625 C 17.265625 -0.890625 14.554688 0.296875 11.484375 0.296875 Z M 11.484375 0.296875 "/></g></g></g><g fill="#ffffff" fill-opacity="1"><g transform="translate(333.500903, 223.707558)"><g><path d="M 7 0 L 2.9375 0 L 2.9375 -19.28125 L 7 -19.28125 Z M 3.1875 -23.125 C 2.675781 -23.632812 2.421875 -24.238281 2.421875 -24.9375 C 2.421875 -25.632812 2.675781 -26.238281 3.1875 -26.75 C 3.695312 -27.257812 4.300781 -27.515625 5 -27.515625 C 5.695312 -27.515625 6.300781 -27.257812 6.8125 -26.75 C 7.320312 -26.238281 7.578125 -25.632812 7.578125 -24.9375 C 7.578125 -24.238281 7.320312 -23.632812 6.8125 -23.125 C 6.300781 -22.613281 5.695312 -22.359375 5 -22.359375 C 4.300781 -22.359375 3.695312 -22.613281 3.1875 -23.125 Z M 3.1875 -23.125 "/></g></g></g><g fill="#ffffff" fill-opacity="1"><g transform="translate(343.433685, 223.707558)"><g><path d="M 7.453125 -5.078125 C 8.597656 -3.910156 10.050781 -3.328125 11.8125 -3.328125 C 13.582031 -3.328125 15.039062 -3.910156 16.1875 -5.078125 C 17.332031 -6.253906 17.90625 -7.773438 17.90625 -9.640625 C 17.90625 -11.503906 17.332031 -13.019531 16.1875 -14.1875 C 15.039062 -15.363281 13.582031 -15.953125 11.8125 -15.953125 C 10.050781 -15.953125 8.597656 -15.363281 7.453125 -14.1875 C 6.304688 -13.019531 5.734375 -11.503906 5.734375 -9.640625 C 5.734375 -7.773438 6.304688 -6.253906 7.453125 -5.078125 Z M 19.0625 -2.578125 C 17.132812 -0.660156 14.71875 0.296875 11.8125 0.296875 C 8.914062 0.296875 6.5 -0.660156 4.5625 -2.578125 C 2.632812 -4.503906 1.671875 -6.859375 1.671875 -9.640625 C 1.671875 -12.421875 2.632812 -14.769531 4.5625 -16.6875 C 6.5 -18.613281 8.914062 -19.578125 11.8125 -19.578125 C 14.71875 -19.578125 17.132812 -18.613281 19.0625 -16.6875 C 21 -14.769531 21.96875 -12.421875 21.96875 -9.640625 C 21.96875 -6.859375 21 -4.503906 19.0625 -2.578125 Z M 13.671875 -21.75 L 9.96875 -21.75 L 13.8125 -27 L 18.09375 -25.234375 Z M 13.671875 -21.75 "/></g></g></g><g fill="#ffffff" fill-opacity="1"><g transform="translate(367.069369, 223.707558)"><g><path d="M 7 -10.4375 L 7 0 L 2.9375 0 L 2.9375 -19.28125 L 7 -19.28125 L 7 -15.765625 C 7.644531 -16.953125 8.539062 -17.882812 9.6875 -18.5625 C 10.84375 -19.238281 12.082031 -19.578125 13.40625 -19.578125 C 15.582031 -19.578125 17.34375 -18.910156 18.6875 -17.578125 C 20.03125 -16.253906 20.703125 -14.332031 20.703125 -11.8125 L 20.703125 0 L 16.640625 0 L 16.640625 -10.578125 C 16.640625 -14.128906 15.164062 -15.90625 12.21875 -15.90625 C 10.8125 -15.90625 9.585938 -15.441406 8.546875 -14.515625 C 7.515625 -13.585938 7 -12.226562 7 -10.4375 Z M 7 -10.4375 "/></g></g></g><g fill="#ffffff" fill-opacity="1"><g transform="translate(390.487555, 223.707558)"><g/></g></g><g fill="#ffffff" fill-opacity="1"><g transform="translate(400.420337, 223.707558)"><g><path d="M 5.359375 7.6875 C 3.597656 7.6875 2.003906 7.046875 0.578125 5.765625 L 2.421875 2.46875 C 3.273438 3.257812 4.15625 3.65625 5.0625 3.65625 C 5.96875 3.65625 6.703125 3.328125 7.265625 2.671875 C 7.835938 2.023438 8.125 1.316406 8.125 0.546875 C 8.125 0.203125 5.523438 -6.40625 0.328125 -19.28125 L 4.671875 -19.28125 L 10.4375 -5.078125 L 16.203125 -19.28125 L 20.546875 -19.28125 L 11.203125 3.625 C 10.648438 4.882812 9.851562 5.875 8.8125 6.59375 C 7.769531 7.320312 6.617188 7.6875 5.359375 7.6875 Z M 5.359375 7.6875 "/></g></g></g><g fill="#ffffff" fill-opacity="1"><g transform="translate(421.228425, 223.707558)"><g/></g></g><g fill="#ffffff" fill-opacity="1"><g transform="translate(431.161207, 223.707558)"><g><path d="M 21.3125 -25.34375 L 21.3125 -21.3125 L 7.796875 -21.3125 L 7.796875 -14.609375 L 19.9375 -14.609375 L 19.9375 -10.796875 L 7.796875 -10.796875 L 7.796875 -4.03125 L 21.75 -4.03125 L 21.75 0 L 3.515625 0 L 3.515625 -25.34375 Z M 21.3125 -25.34375 "/></g></g></g><g fill="#ffffff" fill-opacity="1"><g transform="translate(454.869384, 223.707558)"><g><path d="M 7 -10.4375 L 7 0 L 2.9375 0 L 2.9375 -19.28125 L 7 -19.28125 L 7 -15.765625 C 7.644531 -16.953125 8.539062 -17.882812 9.6875 -18.5625 C 10.84375 -19.238281 12.082031 -19.578125 13.40625 -19.578125 C 15.582031 -19.578125 17.34375 -18.910156 18.6875 -17.578125 C 20.03125 -16.253906 20.703125 -14.332031 20.703125 -11.8125 L 20.703125 0 L 16.640625 0 L 16.640625 -10.578125 C 16.640625 -14.128906 15.164062 -15.90625 12.21875 -15.90625 C 10.8125 -15.90625 9.585938 -15.441406 8.546875 -14.515625 C 7.515625 -13.585938 7 -12.226562 7 -10.4375 Z M 7 -10.4375 "/></g></g></g><g fill="#ffffff" fill-opacity="1"><g transform="translate(478.287571, 223.707558)"><g><path d="M 10.796875 0.296875 C 8.359375 0.296875 6.234375 -0.617188 4.421875 -2.453125 C 2.609375 -4.296875 1.703125 -6.710938 1.703125 -9.703125 C 1.703125 -12.703125 2.628906 -15.097656 4.484375 -16.890625 C 6.347656 -18.679688 8.566406 -19.578125 11.140625 -19.578125 C 13.710938 -19.578125 15.785156 -18.488281 17.359375 -16.3125 L 17.359375 -26.890625 L 21.421875 -26.890625 L 21.421875 0 L 17.359375 0 L 17.359375 -2.90625 C 15.859375 -0.769531 13.671875 0.296875 10.796875 0.296875 Z M 5.765625 -9.546875 C 5.765625 -7.703125 6.351562 -6.195312 7.53125 -5.03125 C 8.71875 -3.875 10.109375 -3.296875 11.703125 -3.296875 C 13.296875 -3.296875 14.648438 -3.878906 15.765625 -5.046875 C 16.878906 -6.222656 17.4375 -7.726562 17.4375 -9.5625 C 17.4375 -11.40625 16.878906 -12.941406 15.765625 -14.171875 C 14.648438 -15.398438 13.285156 -16.015625 11.671875 -16.015625 C 10.054688 -16.015625 8.664062 -15.398438 7.5 -14.171875 C 6.34375 -12.941406 5.765625 -11.398438 5.765625 -9.546875 Z M 5.765625 -9.546875 "/></g></g></g><g fill="#ffffff" fill-opacity="1"><g transform="translate(502.648282, 223.707558)"><g><path d="M 7.453125 -5.078125 C 8.597656 -3.910156 10.050781 -3.328125 11.8125 -3.328125 C 13.582031 -3.328125 15.039062 -3.910156 16.1875 -5.078125 C 17.332031 -6.253906 17.90625 -7.773438 17.90625 -9.640625 C 17.90625 -11.503906 17.332031 -13.019531 16.1875 -14.1875 C 15.039062 -15.363281 13.582031 -15.953125 11.8125 -15.953125 C 10.050781 -15.953125 8.597656 -15.363281 7.453125 -14.1875 C 6.304688 -13.019531 5.734375 -11.503906 5.734375 -9.640625 C 5.734375 -7.773438 6.304688 -6.253906 7.453125 -5.078125 Z M 19.0625 -2.578125 C 17.132812 -0.660156 14.71875 0.296875 11.8125 0.296875 C 8.914062 0.296875 6.5 -0.660156 4.5625 -2.578125 C 2.632812 -4.503906 1.671875 -6.859375 1.671875 -9.640625 C 1.671875 -12.421875 2.632812 -14.769531 4.5625 -16.6875 C 6.5 -18.613281 8.914062 -19.578125 11.8125 -19.578125 C 14.71875 -19.578125 17.132812 -18.613281 19.0625 -16.6875 C 21 -14.769531 21.96875 -12.421875 21.96875 -9.640625 C 21.96875 -6.859375 21 -4.503906 19.0625 -2.578125 Z M 19.0625 -2.578125 "/></g></g></g><g fill="#ffffff" fill-opacity="1"><g transform="translate(526.283966, 223.707558)"><g><path d="M 11.484375 0.296875 C 8.804688 0.296875 6.5 -0.613281 4.5625 -2.4375 C 2.632812 -4.269531 1.671875 -6.660156 1.671875 -9.609375 C 1.671875 -12.554688 2.675781 -14.953125 4.6875 -16.796875 C 6.707031 -18.648438 9.164062 -19.578125 12.0625 -19.578125 C 14.96875 -19.578125 17.425781 -18.570312 19.4375 -16.5625 L 17.03125 -13.625 C 15.363281 -15.082031 13.6875 -15.8125 12 -15.8125 C 10.3125 -15.8125 8.84375 -15.25 7.59375 -14.125 C 6.351562 -13 5.734375 -11.546875 5.734375 -9.765625 C 5.734375 -7.992188 6.347656 -6.488281 7.578125 -5.25 C 8.804688 -4.019531 10.320312 -3.40625 12.125 -3.40625 C 13.925781 -3.40625 15.625 -4.226562 17.21875 -5.875 L 19.609375 -3.265625 C 17.265625 -0.890625 14.554688 0.296875 11.484375 0.296875 Z M 11.484375 0.296875 "/></g></g></g><g fill="#ffffff" fill-opacity="1"><g transform="translate(547.164568, 223.707558)"><g><path d="M 13.046875 -15.484375 C 11.046875 -15.484375 9.535156 -14.828125 8.515625 -13.515625 C 7.503906 -12.210938 7 -10.460938 7 -8.265625 L 7 0 L 2.9375 0 L 2.9375 -19.28125 L 7 -19.28125 L 7 -15.40625 C 7.644531 -16.613281 8.53125 -17.601562 9.65625 -18.375 C 10.78125 -19.144531 11.972656 -19.546875 13.234375 -19.578125 L 13.265625 -15.484375 C 13.191406 -15.484375 13.117188 -15.484375 13.046875 -15.484375 Z M 13.046875 -15.484375 "/></g></g></g><g fill="#ffffff" fill-opacity="1"><g transform="translate(561.556241, 223.707558)"><g><path d="M 7 0 L 2.9375 0 L 2.9375 -19.28125 L 7 -19.28125 Z M 3.1875 -23.125 C 2.675781 -23.632812 2.421875 -24.238281 2.421875 -24.9375 C 2.421875 -25.632812 2.675781 -26.238281 3.1875 -26.75 C 3.695312 -27.257812 4.300781 -27.515625 5 -27.515625 C 5.695312 -27.515625 6.300781 -27.257812 6.8125 -26.75 C 7.320312 -26.238281 7.578125 -25.632812 7.578125 -24.9375 C 7.578125 -24.238281 7.320312 -23.632812 6.8125 -23.125 C 6.300781 -22.613281 5.695312 -22.359375 5 -22.359375 C 4.300781 -22.359375 3.695312 -22.613281 3.1875 -23.125 Z M 3.1875 -23.125 "/></g></g></g><g fill="#ffffff" fill-opacity="1"><g transform="translate(571.489043, 223.707558)"><g><path d="M 7 -10.4375 L 7 0 L 2.9375 0 L 2.9375 -19.28125 L 7 -19.28125 L 7 -15.765625 C 7.644531 -16.953125 8.539062 -17.882812 9.6875 -18.5625 C 10.84375 -19.238281 12.082031 -19.578125 13.40625 -19.578125 C 15.582031 -19.578125 17.34375 -18.910156 18.6875 -17.578125 C 20.03125 -16.253906 20.703125 -14.332031 20.703125 -11.8125 L 20.703125 0 L 16.640625 0 L 16.640625 -10.578125 C 16.640625 -14.128906 15.164062 -15.90625 12.21875 -15.90625 C 10.8125 -15.90625 9.585938 -15.441406 8.546875 -14.515625 C 7.515625 -13.585938 7 -12.226562 7 -10.4375 Z M 7 -10.4375 "/></g></g></g><g fill="#ffffff" fill-opacity="1"><g transform="translate(594.907209, 223.707558)"><g><path d="M 7.453125 -5.078125 C 8.597656 -3.910156 10.050781 -3.328125 11.8125 -3.328125 C 13.582031 -3.328125 15.039062 -3.910156 16.1875 -5.078125 C 17.332031 -6.253906 17.90625 -7.773438 17.90625 -9.640625 C 17.90625 -11.503906 17.332031 -13.019531 16.1875 -14.1875 C 15.039062 -15.363281 13.582031 -15.953125 11.8125 -15.953125 C 10.050781 -15.953125 8.597656 -15.363281 7.453125 -14.1875 C 6.304688 -13.019531 5.734375 -11.503906 5.734375 -9.640625 C 5.734375 -7.773438 6.304688 -6.253906 7.453125 -5.078125 Z M 19.0625 -2.578125 C 17.132812 -0.660156 14.71875 0.296875 11.8125 0.296875 C 8.914062 0.296875 6.5 -0.660156 4.5625 -2.578125 C 2.632812 -4.503906 1.671875 -6.859375 1.671875 -9.640625 C 1.671875 -12.421875 2.632812 -14.769531 4.5625 -16.6875 C 6.5 -18.613281 8.914062 -19.578125 11.8125 -19.578125 C 14.71875 -19.578125 17.132812 -18.613281 19.0625 -16.6875 C 21 -14.769531 21.96875 -12.421875 21.96875 -9.640625 C 21.96875 -6.859375 21 -4.503906 19.0625 -2.578125 Z M 19.0625 -2.578125 "/></g></g></g><g fill="#ffffff" fill-opacity="1"><g transform="translate(618.542874, 223.707558)"><g><path d="M 7 0 L 2.9375 0 L 2.9375 -26.890625 L 7 -26.890625 Z M 7 0 "/></g></g></g><g fill="#ffffff" fill-opacity="1"><g transform="translate(628.475675, 223.707558)"><g><path d="M 7.453125 -5.078125 C 8.597656 -3.910156 10.050781 -3.328125 11.8125 -3.328125 C 13.582031 -3.328125 15.039062 -3.910156 16.1875 -5.078125 C 17.332031 -6.253906 17.90625 -7.773438 17.90625 -9.640625 C 17.90625 -11.503906 17.332031 -13.019531 16.1875 -14.1875 C 15.039062 -15.363281 13.582031 -15.953125 11.8125 -15.953125 C 10.050781 -15.953125 8.597656 -15.363281 7.453125 -14.1875 C 6.304688 -13.019531 5.734375 -11.503906 5.734375 -9.640625 C 5.734375 -7.773438 6.304688 -6.253906 7.453125 -5.078125 Z M 19.0625 -2.578125 C 17.132812 -0.660156 14.71875 0.296875 11.8125 0.296875 C 8.914062 0.296875 6.5 -0.660156 4.5625 -2.578125 C 2.632812 -4.503906 1.671875 -6.859375 1.671875 -9.640625 C 1.671875 -12.421875 2.632812 -14.769531 4.5625 -16.6875 C 6.5 -18.613281 8.914062 -19.578125 11.8125 -19.578125 C 14.71875 -19.578125 17.132812 -18.613281 19.0625 -16.6875 C 21 -14.769531 21.96875 -12.421875 21.96875 -9.640625 C 21.96875 -6.859375 21 -4.503906 19.0625 -2.578125 Z M 19.0625 -2.578125 "/></g></g></g><g fill="#ffffff" fill-opacity="1"><g transform="translate(652.11134, 223.707558)"><g><path d="M 20.765625 -19.28125 L 20.765625 -2.46875 C 20.765625 0.9375 19.835938 3.488281 17.984375 5.1875 C 16.140625 6.894531 13.769531 7.75 10.875 7.75 C 7.976562 7.75 5.359375 6.84375 3.015625 5.03125 L 4.9375 1.953125 C 6.8125 3.378906 8.707031 4.09375 10.625 4.09375 C 12.550781 4.09375 14.078125 3.597656 15.203125 2.609375 C 16.328125 1.617188 16.890625 0.0351562 16.890625 -2.140625 L 16.890625 -4.609375 C 16.285156 -3.472656 15.421875 -2.566406 14.296875 -1.890625 C 13.171875 -1.210938 11.910156 -0.875 10.515625 -0.875 C 7.953125 -0.875 5.847656 -1.765625 4.203125 -3.546875 C 2.554688 -5.335938 1.734375 -7.5625 1.734375 -10.21875 C 1.734375 -12.875 2.554688 -15.097656 4.203125 -16.890625 C 5.847656 -18.679688 7.941406 -19.578125 10.484375 -19.578125 C 13.035156 -19.578125 15.113281 -18.523438 16.71875 -16.421875 L 16.71875 -19.28125 Z M 5.734375 -10.390625 C 5.734375 -8.804688 6.21875 -7.4375 7.1875 -6.28125 C 8.164062 -5.132812 9.484375 -4.5625 11.140625 -4.5625 C 12.796875 -4.5625 14.140625 -5.117188 15.171875 -6.234375 C 16.203125 -7.347656 16.71875 -8.734375 16.71875 -10.390625 C 16.71875 -12.046875 16.195312 -13.445312 15.15625 -14.59375 C 14.113281 -15.738281 12.769531 -16.3125 11.125 -16.3125 C 9.476562 -16.3125 8.164062 -15.71875 7.1875 -14.53125 C 6.21875 -13.351562 5.734375 -11.972656 5.734375 -10.390625 Z M 5.734375 -10.390625 "/></g></g></g><g fill="#ffffff" fill-opacity="1"><g transform="translate(675.819517, 223.707558)"><g><path d="M 6.890625 -21.75 L 3.484375 -21.75 L 7.328125 -26.828125 L 11.3125 -25.046875 Z M 2.9375 -19.28125 L 7 -19.28125 L 7 0 L 2.9375 0 Z M 2.9375 -19.28125 "/></g></g></g><g fill="#ffffff" fill-opacity="1"><g transform="translate(685.752319, 223.707558)"><g><path d="M 18.5625 0 L 14.859375 0 L 14.859375 -2.578125 C 13.265625 -0.660156 11.128906 0.296875 8.453125 0.296875 C 6.441406 0.296875 4.773438 -0.269531 3.453125 -1.40625 C 2.140625 -2.550781 1.484375 -4.070312 1.484375 -5.96875 C 1.484375 -7.863281 2.179688 -9.28125 3.578125 -10.21875 C 4.984375 -11.164062 6.882812 -11.640625 9.28125 -11.640625 L 14.53125 -11.640625 L 14.53125 -12.359375 C 14.53125 -14.921875 13.109375 -16.203125 10.265625 -16.203125 C 8.472656 -16.203125 6.609375 -15.550781 4.671875 -14.25 L 2.859375 -16.78125 C 5.203125 -18.644531 7.863281 -19.578125 10.84375 -19.578125 C 13.113281 -19.578125 14.96875 -19 16.40625 -17.84375 C 17.84375 -16.695312 18.5625 -14.894531 18.5625 -12.4375 Z M 14.5 -7.171875 L 14.5 -8.8125 L 9.9375 -8.8125 C 7.007812 -8.8125 5.546875 -7.890625 5.546875 -6.046875 C 5.546875 -5.109375 5.90625 -4.390625 6.625 -3.890625 C 7.351562 -3.398438 8.363281 -3.15625 9.65625 -3.15625 C 10.945312 -3.15625 12.078125 -3.515625 13.046875 -4.234375 C 14.015625 -4.960938 14.5 -5.941406 14.5 -7.171875 Z M 14.5 -7.171875 "/></g></g></g></svg>