<svg xmlns="http://www.w3.org/2000/svg" xmlns:xlink="http://www.w3.org/1999/xlink" width="200" zoomAndPan="magnify" viewBox="0 0 150 149.999998" height="200" preserveAspectRatio="xMidYMid meet" version="1.0"><defs><g/><clipPath id="c8c297e7e6"><path d="M 30.054688 53 L 34.3125 53 L 34.3125 57 L 30.054688 57 Z M 30.054688 53 " clip-rule="nonzero"/></clipPath><clipPath id="dc04295d8a"><path d="M 34.039062 55.503906 C 33.792969 56.53125 32.761719 57.160156 31.738281 56.917969 C 30.714844 56.671875 30.082031 55.640625 30.328125 54.617188 C 30.570312 53.589844 31.601562 52.960938 32.625 53.207031 C 33.652344 53.453125 34.28125 54.480469 34.039062 55.503906 " clip-rule="nonzero"/></clipPath><clipPath id="45360aef73"><path d="M 30.789062 86.203125 L 35 86.203125 L 35 90.605469 L 30.789062 90.605469 Z M 30.789062 86.203125 " clip-rule="nonzero"/></clipPath><clipPath id="2140bd5ecc"><path d="M 32.527344 90.3125 C 31.472656 90.089844 30.796875 89.050781 31.019531 87.996094 C 31.246094 86.941406 32.28125 86.265625 33.339844 86.488281 C 34.394531 86.714844 35.070312 87.75 34.847656 88.804688 C 34.621094 89.863281 33.585938 90.539062 32.527344 90.3125 " clip-rule="nonzero"/></clipPath><clipPath id="b032b2faf0"><path d="M 14.707031 91.707031 L 19 91.707031 L 19 96 L 14.707031 96 Z M 14.707031 91.707031 " clip-rule="nonzero"/></clipPath><clipPath id="b90d52ae0a"><path d="M 15.042969 93.289062 C 15.351562 92.28125 16.414062 91.710938 17.421875 92.019531 C 18.429688 92.324219 19 93.390625 18.691406 94.398438 C 18.386719 95.40625 17.320312 95.976562 16.3125 95.667969 C 15.304688 95.359375 14.734375 94.296875 15.042969 93.289062 " clip-rule="nonzero"/></clipPath><clipPath id="51ac93ee6c"><path d="M 27.628906 55.21875 L 31.667969 55.21875 L 31.667969 60.652344 L 27.628906 60.652344 Z M 27.628906 55.21875 " clip-rule="nonzero"/></clipPath><clipPath id="2cebb83a10"><path d="M 30.898438 55.28125 L 27.675781 60.105469 L 28.445312 60.617188 L 31.667969 55.792969 L 30.898438 55.28125 " clip-rule="nonzero"/></clipPath><clipPath id="6778dab45e"><path d="M 16.175781 52.429688 L 26.675781 52.429688 L 26.675781 64 L 16.175781 64 Z M 16.175781 52.429688 " clip-rule="nonzero"/></clipPath><clipPath id="62c57634a8"><path d="M 16.175781 53.285156 L 25.695312 63.960938 L 26.644531 63.117188 L 17.125 52.4375 L 16.175781 53.285156 " clip-rule="nonzero"/></clipPath><clipPath id="ae4527bbc7"><path d="M 22.710938 49.710938 L 31.226562 49.710938 L 31.226562 55.363281 L 22.710938 55.363281 Z M 22.710938 49.710938 " clip-rule="nonzero"/></clipPath><clipPath id="5e4616eb9a"><path d="M 30.796875 55.292969 L 31.214844 54.464844 L 27.679688 52.671875 C 27.855469 51.375 26.957031 50.171875 25.660156 49.976562 C 24.347656 49.78125 23.128906 50.683594 22.933594 51.996094 C 22.738281 53.304688 23.640625 54.523438 24.949219 54.71875 C 25.949219 54.867188 26.894531 54.378906 27.375 53.554688 L 30.796875 55.292969 " clip-rule="nonzero"/></clipPath><clipPath id="7a43888611"><path d="M 19.40625 56.246094 L 30 56.246094 L 30 67 L 19.40625 67 Z M 19.40625 56.246094 " clip-rule="nonzero"/></clipPath><clipPath id="bf44865ee1"><path d="M 25.945312 56.890625 C 23.332031 56.265625 20.710938 57.875 20.085938 60.488281 C 19.460938 63.097656 21.070312 65.71875 23.683594 66.34375 C 26.292969 66.96875 28.917969 65.359375 29.539062 62.75 C 30.164062 60.136719 28.554688 57.515625 25.945312 56.890625 " clip-rule="nonzero"/></clipPath><clipPath id="0c5c6c49ff"><path d="M 11 47 L 20 47 L 20 56 L 11 56 Z M 11 47 " clip-rule="nonzero"/></clipPath><clipPath id="a5824df769"><path d="M 16.167969 47.238281 C 13.800781 46.882812 11.601562 48.515625 11.246094 50.878906 C 10.894531 53.242188 12.523438 55.445312 14.886719 55.796875 C 17.25 56.152344 19.453125 54.519531 19.804688 52.15625 C 20.160156 49.792969 18.53125 47.589844 16.167969 47.238281 " clip-rule="nonzero"/></clipPath><clipPath id="cbde7cf62a"><path d="M 17.425781 88.476562 L 21.683594 88.476562 L 21.683594 93.765625 L 17.425781 93.765625 Z M 17.425781 88.476562 " clip-rule="nonzero"/></clipPath><clipPath id="106bb949c4"><path d="M 21.671875 89.082031 L 20.933594 88.523438 L 17.425781 93.144531 L 18.164062 93.703125 L 21.671875 89.082031 " clip-rule="nonzero"/></clipPath><clipPath id="7cd9df160b"><path d="M 22.5625 85.6875 L 32.328125 85.6875 L 32.328125 97.65625 L 22.5625 97.65625 Z M 22.5625 85.6875 " clip-rule="nonzero"/></clipPath><clipPath id="e4d5511dc5"><path d="M 23.40625 85.726562 L 22.574219 86.382812 L 31.425781 97.617188 L 32.257812 96.960938 L 23.40625 85.726562 " clip-rule="nonzero"/></clipPath><clipPath id="69901d1f7f"><path d="M 17.792969 93.691406 L 26 93.691406 L 26 99.636719 L 17.792969 99.636719 Z M 17.792969 93.691406 " clip-rule="nonzero"/></clipPath><clipPath id="b97d4cdfb7"><path d="M 24.066406 94.621094 C 23.078125 94.410156 22.105469 94.84375 21.574219 95.636719 L 18.265625 93.695312 L 17.796875 94.496094 L 21.21875 96.5 C 20.964844 97.785156 21.789062 99.039062 23.074219 99.3125 C 24.367188 99.585938 25.640625 98.757812 25.914062 97.460938 C 26.191406 96.167969 25.363281 94.894531 24.066406 94.621094 " clip-rule="nonzero"/></clipPath><clipPath id="1085e73048"><path d="M 14.414062 59 L 18.746094 59 L 18.746094 63.222656 L 14.414062 63.222656 Z M 14.414062 59 " clip-rule="nonzero"/></clipPath><clipPath id="74f3a45636"><path d="M 16.1875 62.980469 C 15.132812 62.757812 14.457031 61.71875 14.679688 60.664062 C 14.90625 59.605469 15.941406 58.933594 16.996094 59.15625 C 18.054688 59.378906 18.730469 60.417969 18.503906 61.472656 C 18.28125 62.527344 17.242188 63.203125 16.1875 62.980469 " clip-rule="nonzero"/></clipPath><clipPath id="dfa1ad4da2"><path d="M 19.1875 82.308594 L 30 82.308594 L 30 93 L 19.1875 93 Z M 19.1875 82.308594 " clip-rule="nonzero"/></clipPath><clipPath id="3725da5db4"><path d="M 26.035156 83.09375 C 23.464844 82.3125 20.75 83.761719 19.96875 86.328125 C 19.1875 88.898438 20.636719 91.613281 23.203125 92.394531 C 25.773438 93.175781 28.488281 91.726562 29.269531 89.160156 C 30.050781 86.589844 28.601562 83.875 26.035156 83.09375 " clip-rule="nonzero"/></clipPath><clipPath id="2d055c3ab7"><path d="M 28.511719 94 L 38 94 L 38 103 L 28.511719 103 Z M 28.511719 94 " clip-rule="nonzero"/></clipPath><clipPath id="5c517a48d3"><path d="M 34.175781 94.152344 C 31.839844 93.65625 29.539062 95.152344 29.046875 97.488281 C 28.550781 99.828125 30.046875 102.125 32.382812 102.621094 C 34.71875 103.113281 37.019531 101.621094 37.511719 99.28125 C 38.007812 96.945312 36.515625 94.648438 34.175781 94.152344 " clip-rule="nonzero"/></clipPath><clipPath id="2e5beee915"><path d="M 10.816406 65.054688 L 38.789062 65.054688 L 38.789062 84.734375 L 10.816406 84.734375 Z M 10.816406 65.054688 " clip-rule="nonzero"/></clipPath><clipPath id="b836ebb81b"><path d="M 38.769531 74.515625 C 38.769531 74.398438 38.769531 74.285156 38.761719 74.171875 C 38.761719 74.097656 38.753906 74.023438 38.753906 73.949219 C 38.71875 73.285156 38.648438 72.613281 38.539062 71.941406 C 38.261719 70.238281 37.621094 68.664062 36.488281 67.320312 C 36.390625 67.207031 36.289062 67.097656 36.183594 66.988281 C 34.683594 65.1875 33.035156 65.09375 30.882812 66.582031 C 30.054688 67.15625 29.246094 67.757812 28.410156 68.324219 C 26.101562 69.890625 23.78125 69.898438 21.460938 68.339844 C 20.335938 67.585938 19.253906 66.753906 18.089844 66.070312 C 16.667969 65.230469 15.613281 65.246094 14.449219 66.09375 C 14.019531 66.289062 13.613281 66.613281 13.203125 67.109375 C 11.898438 68.683594 11.324219 70.585938 11.039062 72.550781 C 11 72.8125 10.96875 73.070312 10.945312 73.332031 C 10.882812 73.890625 10.855469 74.453125 10.855469 75.019531 C 10.855469 75.082031 10.855469 75.148438 10.855469 75.210938 C 10.859375 75.347656 10.863281 75.480469 10.867188 75.617188 C 10.867188 75.671875 10.871094 75.726562 10.875 75.78125 C 10.90625 76.445312 10.976562 77.117188 11.085938 77.789062 C 11.359375 79.492188 11.996094 81.066406 13.125 82.410156 C 13.210938 82.515625 13.300781 82.613281 13.394531 82.710938 C 14.914062 84.585938 16.582031 84.699219 18.761719 83.1875 C 19.589844 82.609375 20.398438 82.007812 21.230469 81.441406 C 23.535156 79.867188 25.859375 79.855469 28.179688 81.40625 C 29.308594 82.160156 30.390625 82.988281 31.554688 83.675781 C 32.945312 84.488281 33.980469 84.488281 35.105469 83.707031 C 35.554688 83.515625 35.980469 83.183594 36.40625 82.671875 C 37.71875 81.097656 38.296875 79.195312 38.585938 77.234375 C 38.617188 77 38.648438 76.765625 38.675781 76.53125 C 38.742188 75.945312 38.773438 75.351562 38.773438 74.753906 C 38.773438 74.675781 38.773438 74.59375 38.769531 74.515625 " clip-rule="nonzero"/></clipPath><clipPath id="635b1f0035"><path d="M 14.898438 91.863281 L 18.980469 91.863281 L 18.980469 95.945312 L 14.898438 95.945312 Z M 14.898438 91.863281 " clip-rule="nonzero"/></clipPath><clipPath id="ee54560e86"><path d="M 16.9375 91.863281 C 15.8125 91.863281 14.898438 92.777344 14.898438 93.90625 C 14.898438 95.03125 15.8125 95.945312 16.9375 95.945312 C 18.066406 95.945312 18.980469 95.03125 18.980469 93.90625 C 18.980469 92.777344 18.066406 91.863281 16.9375 91.863281 " clip-rule="nonzero"/></clipPath><clipPath id="e1c028d25c"><path d="M 30.101562 52.945312 L 34.183594 52.945312 L 34.183594 57.027344 L 30.101562 57.027344 Z M 30.101562 52.945312 " clip-rule="nonzero"/></clipPath><clipPath id="eee112648b"><path d="M 32.144531 52.945312 C 31.015625 52.945312 30.101562 53.859375 30.101562 54.984375 C 30.101562 56.113281 31.015625 57.027344 32.144531 57.027344 C 33.269531 57.027344 34.183594 56.113281 34.183594 54.984375 C 34.183594 53.859375 33.269531 52.945312 32.144531 52.945312 " clip-rule="nonzero"/></clipPath></defs><g clip-path="url(#c8c297e7e6)"><g clip-path="url(#dc04295d8a)"><path fill="#002b49" d="M 10.304688 46.332031 L 39.304688 46.332031 L 39.304688 103.675781 L 10.304688 103.675781 Z M 10.304688 46.332031 " fill-opacity="1" fill-rule="nonzero"/></g></g><g clip-path="url(#45360aef73)"><g clip-path="url(#2140bd5ecc)"><path fill="#9bd3dd" d="M 10.304688 46.332031 L 39.304688 46.332031 L 39.304688 103.675781 L 10.304688 103.675781 Z M 10.304688 46.332031 " fill-opacity="1" fill-rule="nonzero"/></g></g><g clip-path="url(#b032b2faf0)"><g clip-path="url(#b90d52ae0a)"><path fill="#002b49" d="M 10.304688 46.332031 L 39.304688 46.332031 L 39.304688 103.675781 L 10.304688 103.675781 Z M 10.304688 46.332031 " fill-opacity="1" fill-rule="nonzero"/></g></g><g clip-path="url(#51ac93ee6c)"><g clip-path="url(#2cebb83a10)"><path fill="#5489a3" d="M 10.304688 46.332031 L 39.304688 46.332031 L 39.304688 103.675781 L 10.304688 103.675781 Z M 10.304688 46.332031 " fill-opacity="1" fill-rule="nonzero"/></g></g><g clip-path="url(#6778dab45e)"><g clip-path="url(#62c57634a8)"><path fill="#5489a3" d="M 10.304688 46.332031 L 39.304688 46.332031 L 39.304688 103.675781 L 10.304688 103.675781 Z M 10.304688 46.332031 " fill-opacity="1" fill-rule="nonzero"/></g></g><g clip-path="url(#ae4527bbc7)"><g clip-path="url(#5e4616eb9a)"><path fill="#5489a3" d="M 10.304688 46.332031 L 39.304688 46.332031 L 39.304688 103.675781 L 10.304688 103.675781 Z M 10.304688 46.332031 " fill-opacity="1" fill-rule="nonzero"/></g></g><g clip-path="url(#7a43888611)"><g clip-path="url(#bf44865ee1)"><path fill="#01426a" d="M 10.304688 46.332031 L 39.304688 46.332031 L 39.304688 103.675781 L 10.304688 103.675781 Z M 10.304688 46.332031 " fill-opacity="1" fill-rule="nonzero"/></g></g><g clip-path="url(#0c5c6c49ff)"><g clip-path="url(#a5824df769)"><path fill="#01426a" d="M 10.304688 46.332031 L 39.304688 46.332031 L 39.304688 103.675781 L 10.304688 103.675781 Z M 10.304688 46.332031 " fill-opacity="1" fill-rule="nonzero"/></g></g><g clip-path="url(#cbde7cf62a)"><g clip-path="url(#106bb949c4)"><path fill="#5489a3" d="M 10.304688 46.332031 L 39.304688 46.332031 L 39.304688 103.675781 L 10.304688 103.675781 Z M 10.304688 46.332031 " fill-opacity="1" fill-rule="nonzero"/></g></g><g clip-path="url(#7cd9df160b)"><g clip-path="url(#e4d5511dc5)"><path fill="#5489a3" d="M 10.304688 46.332031 L 39.304688 46.332031 L 39.304688 103.675781 L 10.304688 103.675781 Z M 10.304688 46.332031 " fill-opacity="1" fill-rule="nonzero"/></g></g><g clip-path="url(#69901d1f7f)"><g clip-path="url(#b97d4cdfb7)"><path fill="#5489a3" d="M 10.304688 46.332031 L 39.304688 46.332031 L 39.304688 103.675781 L 10.304688 103.675781 Z M 10.304688 46.332031 " fill-opacity="1" fill-rule="nonzero"/></g></g><g clip-path="url(#1085e73048)"><g clip-path="url(#74f3a45636)"><path fill="#9bd3dd" d="M 10.304688 46.332031 L 39.304688 46.332031 L 39.304688 103.675781 L 10.304688 103.675781 Z M 10.304688 46.332031 " fill-opacity="1" fill-rule="nonzero"/></g></g><g clip-path="url(#dfa1ad4da2)"><g clip-path="url(#3725da5db4)"><path fill="#01426a" d="M 10.304688 46.332031 L 39.304688 46.332031 L 39.304688 103.675781 L 10.304688 103.675781 Z M 10.304688 46.332031 " fill-opacity="1" fill-rule="nonzero"/></g></g><g clip-path="url(#2d055c3ab7)"><g clip-path="url(#5c517a48d3)"><path fill="#01426a" d="M 10.304688 46.332031 L 39.304688 46.332031 L 39.304688 103.675781 L 10.304688 103.675781 Z M 10.304688 46.332031 " fill-opacity="1" fill-rule="nonzero"/></g></g><g clip-path="url(#2e5beee915)"><g clip-path="url(#b836ebb81b)"><path fill="#002b49" d="M 10.304688 46.332031 L 39.304688 46.332031 L 39.304688 103.675781 L 10.304688 103.675781 Z M 10.304688 46.332031 " fill-opacity="1" fill-rule="nonzero"/></g></g><g clip-path="url(#635b1f0035)"><g clip-path="url(#ee54560e86)"><path fill="#002b49" d="M 14.898438 91.863281 L 18.980469 91.863281 L 18.980469 95.945312 L 14.898438 95.945312 Z M 14.898438 91.863281 " fill-opacity="1" fill-rule="nonzero"/></g></g><g clip-path="url(#e1c028d25c)"><g clip-path="url(#eee112648b)"><path fill="#002b49" d="M 30.101562 52.945312 L 34.183594 52.945312 L 34.183594 57.027344 L 30.101562 57.027344 Z M 30.101562 52.945312 " fill-opacity="1" fill-rule="nonzero"/></g></g><g fill="#5389a3" fill-opacity="1"><g transform="translate(46.502324, 80.828953)"><g><path d="M 2.125 -4.203125 C 1.894531 -4.203125 1.703125 -4.148438 1.546875 -4.046875 C 1.398438 -3.953125 1.328125 -3.804688 1.328125 -3.609375 C 1.328125 -3.421875 1.398438 -3.273438 1.546875 -3.171875 C 1.703125 -3.066406 2.023438 -2.953125 2.515625 -2.828125 C 3.015625 -2.710938 3.390625 -2.546875 3.640625 -2.328125 C 3.890625 -2.109375 4.015625 -1.785156 4.015625 -1.359375 C 4.015625 -0.941406 3.851562 -0.597656 3.53125 -0.328125 C 3.21875 -0.0664062 2.804688 0.0625 2.296875 0.0625 C 1.535156 0.0625 0.863281 -0.203125 0.28125 -0.734375 L 0.796875 -1.34375 C 1.273438 -0.914062 1.78125 -0.703125 2.3125 -0.703125 C 2.570312 -0.703125 2.78125 -0.757812 2.9375 -0.875 C 3.09375 -0.988281 3.171875 -1.140625 3.171875 -1.328125 C 3.171875 -1.515625 3.097656 -1.660156 2.953125 -1.765625 C 2.804688 -1.867188 2.554688 -1.960938 2.203125 -2.046875 C 1.847656 -2.128906 1.578125 -2.207031 1.390625 -2.28125 C 1.203125 -2.351562 1.039062 -2.445312 0.90625 -2.5625 C 0.613281 -2.78125 0.46875 -3.113281 0.46875 -3.5625 C 0.46875 -4.007812 0.628906 -4.351562 0.953125 -4.59375 C 1.285156 -4.832031 1.691406 -4.953125 2.171875 -4.953125 C 2.472656 -4.953125 2.773438 -4.898438 3.078125 -4.796875 C 3.390625 -4.703125 3.65625 -4.5625 3.875 -4.375 L 3.4375 -3.765625 C 3.289062 -3.890625 3.09375 -3.992188 2.84375 -4.078125 C 2.601562 -4.160156 2.363281 -4.203125 2.125 -4.203125 Z M 2.125 -4.203125 "/></g></g></g><g fill="#5389a3" fill-opacity="1"><g transform="translate(50.866858, 80.828953)"><g><path d="M 1.421875 -0.96875 C 1.640625 -0.75 1.914062 -0.640625 2.25 -0.640625 C 2.59375 -0.640625 2.875 -0.75 3.09375 -0.96875 C 3.3125 -1.195312 3.421875 -1.488281 3.421875 -1.84375 C 3.421875 -2.195312 3.3125 -2.484375 3.09375 -2.703125 C 2.875 -2.929688 2.59375 -3.046875 2.25 -3.046875 C 1.914062 -3.046875 1.640625 -2.929688 1.421875 -2.703125 C 1.203125 -2.484375 1.09375 -2.195312 1.09375 -1.84375 C 1.09375 -1.488281 1.203125 -1.195312 1.421875 -0.96875 Z M 3.640625 -0.484375 C 3.273438 -0.117188 2.8125 0.0625 2.25 0.0625 C 1.695312 0.0625 1.234375 -0.117188 0.859375 -0.484375 C 0.492188 -0.859375 0.3125 -1.3125 0.3125 -1.84375 C 0.3125 -2.375 0.492188 -2.820312 0.859375 -3.1875 C 1.234375 -3.550781 1.695312 -3.734375 2.25 -3.734375 C 2.8125 -3.734375 3.273438 -3.550781 3.640625 -3.1875 C 4.003906 -2.820312 4.1875 -2.375 4.1875 -1.84375 C 4.1875 -1.3125 4.003906 -0.859375 3.640625 -0.484375 Z M 3.640625 -0.484375 "/></g></g></g><g fill="#5389a3" fill-opacity="1"><g transform="translate(55.383803, 80.828953)"><g><path d="M 2.1875 0.0625 C 1.675781 0.0625 1.234375 -0.109375 0.859375 -0.453125 C 0.492188 -0.804688 0.3125 -1.265625 0.3125 -1.828125 C 0.3125 -2.390625 0.503906 -2.847656 0.890625 -3.203125 C 1.273438 -3.554688 1.742188 -3.734375 2.296875 -3.734375 C 2.859375 -3.734375 3.328125 -3.539062 3.703125 -3.15625 L 3.25 -2.609375 C 2.9375 -2.878906 2.617188 -3.015625 2.296875 -3.015625 C 1.972656 -3.015625 1.691406 -2.90625 1.453125 -2.6875 C 1.210938 -2.476562 1.09375 -2.203125 1.09375 -1.859375 C 1.09375 -1.523438 1.207031 -1.238281 1.4375 -1 C 1.675781 -0.769531 1.96875 -0.65625 2.3125 -0.65625 C 2.65625 -0.65625 2.976562 -0.8125 3.28125 -1.125 L 3.75 -0.625 C 3.300781 -0.164062 2.78125 0.0625 2.1875 0.0625 Z M 2.1875 0.0625 "/></g></g></g><g fill="#5389a3" fill-opacity="1"><g transform="translate(59.374234, 80.828953)"><g><path d="M 1.328125 0 L 0.5625 0 L 0.5625 -3.6875 L 1.328125 -3.6875 Z M 0.609375 -4.40625 C 0.515625 -4.507812 0.46875 -4.628906 0.46875 -4.765625 C 0.46875 -4.898438 0.515625 -5.015625 0.609375 -5.109375 C 0.703125 -5.203125 0.816406 -5.25 0.953125 -5.25 C 1.085938 -5.25 1.203125 -5.203125 1.296875 -5.109375 C 1.398438 -5.015625 1.453125 -4.898438 1.453125 -4.765625 C 1.453125 -4.628906 1.398438 -4.507812 1.296875 -4.40625 C 1.203125 -4.3125 1.085938 -4.265625 0.953125 -4.265625 C 0.816406 -4.265625 0.703125 -4.3125 0.609375 -4.40625 Z M 0.609375 -4.40625 "/></g></g></g><g fill="#5389a3" fill-opacity="1"><g transform="translate(61.27246, 80.828953)"><g><path d="M 3.984375 -1.5 L 1.09375 -1.5 C 1.113281 -1.226562 1.238281 -1.007812 1.46875 -0.84375 C 1.695312 -0.6875 1.957031 -0.609375 2.25 -0.609375 C 2.707031 -0.609375 3.054688 -0.753906 3.296875 -1.046875 L 3.734375 -0.5625 C 3.335938 -0.144531 2.820312 0.0625 2.1875 0.0625 C 1.664062 0.0625 1.222656 -0.109375 0.859375 -0.453125 C 0.503906 -0.796875 0.328125 -1.257812 0.328125 -1.84375 C 0.328125 -2.425781 0.507812 -2.882812 0.875 -3.21875 C 1.25 -3.5625 1.6875 -3.734375 2.1875 -3.734375 C 2.6875 -3.734375 3.109375 -3.582031 3.453125 -3.28125 C 3.804688 -2.976562 3.984375 -2.5625 3.984375 -2.03125 Z M 1.09375 -2.109375 L 3.21875 -2.109375 C 3.21875 -2.421875 3.117188 -2.660156 2.921875 -2.828125 C 2.722656 -2.992188 2.484375 -3.078125 2.203125 -3.078125 C 1.921875 -3.078125 1.664062 -2.988281 1.4375 -2.8125 C 1.207031 -2.632812 1.09375 -2.398438 1.09375 -2.109375 Z M 1.09375 -2.109375 "/></g></g></g><g fill="#5389a3" fill-opacity="1"><g transform="translate(65.553859, 80.828953)"><g><path d="M 2.0625 0.0625 C 1.59375 0.0625 1.1875 -0.113281 0.84375 -0.46875 C 0.5 -0.820312 0.328125 -1.285156 0.328125 -1.859375 C 0.328125 -2.429688 0.503906 -2.882812 0.859375 -3.21875 C 1.210938 -3.5625 1.632812 -3.734375 2.125 -3.734375 C 2.613281 -3.734375 3.007812 -3.523438 3.3125 -3.109375 L 3.3125 -5.140625 L 4.09375 -5.140625 L 4.09375 0 L 3.3125 0 L 3.3125 -0.546875 C 3.03125 -0.140625 2.613281 0.0625 2.0625 0.0625 Z M 1.09375 -1.828125 C 1.09375 -1.472656 1.207031 -1.179688 1.4375 -0.953125 C 1.664062 -0.734375 1.929688 -0.625 2.234375 -0.625 C 2.535156 -0.625 2.789062 -0.734375 3 -0.953125 C 3.21875 -1.179688 3.328125 -1.472656 3.328125 -1.828125 C 3.328125 -2.179688 3.21875 -2.472656 3 -2.703125 C 2.789062 -2.941406 2.53125 -3.0625 2.21875 -3.0625 C 1.914062 -3.0625 1.648438 -2.941406 1.421875 -2.703125 C 1.203125 -2.472656 1.09375 -2.179688 1.09375 -1.828125 Z M 1.09375 -1.828125 "/></g></g></g><g fill="#5389a3" fill-opacity="1"><g transform="translate(70.209361, 80.828953)"><g><path d="M 3.546875 0 L 2.84375 0 L 2.84375 -0.484375 C 2.53125 -0.117188 2.117188 0.0625 1.609375 0.0625 C 1.222656 0.0625 0.90625 -0.046875 0.65625 -0.265625 C 0.40625 -0.484375 0.28125 -0.773438 0.28125 -1.140625 C 0.28125 -1.503906 0.414062 -1.773438 0.6875 -1.953125 C 0.957031 -2.128906 1.316406 -2.21875 1.765625 -2.21875 L 2.78125 -2.21875 L 2.78125 -2.359375 C 2.78125 -2.847656 2.503906 -3.09375 1.953125 -3.09375 C 1.617188 -3.09375 1.265625 -2.96875 0.890625 -2.71875 L 0.546875 -3.203125 C 0.992188 -3.554688 1.5 -3.734375 2.0625 -3.734375 C 2.5 -3.734375 2.851562 -3.625 3.125 -3.40625 C 3.40625 -3.1875 3.546875 -2.84375 3.546875 -2.375 Z M 2.765625 -1.375 L 2.765625 -1.6875 L 1.890625 -1.6875 C 1.335938 -1.6875 1.0625 -1.507812 1.0625 -1.15625 C 1.0625 -0.976562 1.128906 -0.84375 1.265625 -0.75 C 1.398438 -0.65625 1.59375 -0.609375 1.84375 -0.609375 C 2.09375 -0.609375 2.304688 -0.675781 2.484375 -0.8125 C 2.671875 -0.945312 2.765625 -1.132812 2.765625 -1.375 Z M 2.765625 -1.375 "/></g></g></g><g fill="#5389a3" fill-opacity="1"><g transform="translate(74.275998, 80.828953)"><g><path d="M 2.0625 0.0625 C 1.59375 0.0625 1.1875 -0.113281 0.84375 -0.46875 C 0.5 -0.820312 0.328125 -1.285156 0.328125 -1.859375 C 0.328125 -2.429688 0.503906 -2.882812 0.859375 -3.21875 C 1.210938 -3.5625 1.632812 -3.734375 2.125 -3.734375 C 2.613281 -3.734375 3.007812 -3.523438 3.3125 -3.109375 L 3.3125 -5.140625 L 4.09375 -5.140625 L 4.09375 0 L 3.3125 0 L 3.3125 -0.546875 C 3.03125 -0.140625 2.613281 0.0625 2.0625 0.0625 Z M 1.09375 -1.828125 C 1.09375 -1.472656 1.207031 -1.179688 1.4375 -0.953125 C 1.664062 -0.734375 1.929688 -0.625 2.234375 -0.625 C 2.535156 -0.625 2.789062 -0.734375 3 -0.953125 C 3.21875 -1.179688 3.328125 -1.472656 3.328125 -1.828125 C 3.328125 -2.179688 3.21875 -2.472656 3 -2.703125 C 2.789062 -2.941406 2.53125 -3.0625 2.21875 -3.0625 C 1.914062 -3.0625 1.648438 -2.941406 1.421875 -2.703125 C 1.203125 -2.472656 1.09375 -2.179688 1.09375 -1.828125 Z M 1.09375 -1.828125 "/></g></g></g><g fill="#5389a3" fill-opacity="1"><g transform="translate(78.931502, 80.828953)"><g/></g></g><g fill="#5389a3" fill-opacity="1"><g transform="translate(80.829727, 80.828953)"><g><path d="M 1.484375 0 L 0.671875 0 L 0.671875 -4.84375 L 1.9375 -4.84375 L 3.40625 -1.796875 L 4.859375 -4.84375 L 6.125 -4.84375 L 6.125 0 L 5.3125 0 L 5.3125 -3.78125 L 3.625 -0.421875 L 3.171875 -0.421875 L 1.484375 -3.78125 Z M 1.484375 0 "/></g></g></g><g fill="#5389a3" fill-opacity="1"><g transform="translate(87.639785, 80.828953)"><g><path d="M 3.984375 -1.5 L 1.09375 -1.5 C 1.113281 -1.226562 1.238281 -1.007812 1.46875 -0.84375 C 1.695312 -0.6875 1.957031 -0.609375 2.25 -0.609375 C 2.707031 -0.609375 3.054688 -0.753906 3.296875 -1.046875 L 3.734375 -0.5625 C 3.335938 -0.144531 2.820312 0.0625 2.1875 0.0625 C 1.664062 0.0625 1.222656 -0.109375 0.859375 -0.453125 C 0.503906 -0.796875 0.328125 -1.257812 0.328125 -1.84375 C 0.328125 -2.425781 0.507812 -2.882812 0.875 -3.21875 C 1.25 -3.5625 1.6875 -3.734375 2.1875 -3.734375 C 2.6875 -3.734375 3.109375 -3.582031 3.453125 -3.28125 C 3.804688 -2.976562 3.984375 -2.5625 3.984375 -2.03125 Z M 1.09375 -2.109375 L 3.21875 -2.109375 C 3.21875 -2.421875 3.117188 -2.660156 2.921875 -2.828125 C 2.722656 -2.992188 2.484375 -3.078125 2.203125 -3.078125 C 1.921875 -3.078125 1.664062 -2.988281 1.4375 -2.8125 C 1.207031 -2.632812 1.09375 -2.398438 1.09375 -2.109375 Z M 1.09375 -2.109375 "/></g></g></g><g fill="#5389a3" fill-opacity="1"><g transform="translate(91.921185, 80.828953)"><g><path d="M 1.15625 -3.6875 L 1.9375 -2.46875 L 2.75 -3.6875 L 3.671875 -3.6875 L 2.390625 -1.875 L 3.734375 0 L 2.78125 0 L 1.890625 -1.21875 L 1.03125 0 L 0.125 0 L 1.4375 -1.875 L 0.203125 -3.6875 Z M 1.15625 -3.6875 "/></g></g></g><g fill="#5389a3" fill-opacity="1"><g transform="translate(95.786916, 80.828953)"><g><path d="M 1.328125 0 L 0.5625 0 L 0.5625 -3.6875 L 1.328125 -3.6875 Z M 0.609375 -4.40625 C 0.515625 -4.507812 0.46875 -4.628906 0.46875 -4.765625 C 0.46875 -4.898438 0.515625 -5.015625 0.609375 -5.109375 C 0.703125 -5.203125 0.816406 -5.25 0.953125 -5.25 C 1.085938 -5.25 1.203125 -5.203125 1.296875 -5.109375 C 1.398438 -5.015625 1.453125 -4.898438 1.453125 -4.765625 C 1.453125 -4.628906 1.398438 -4.507812 1.296875 -4.40625 C 1.203125 -4.3125 1.085938 -4.265625 0.953125 -4.265625 C 0.816406 -4.265625 0.703125 -4.3125 0.609375 -4.40625 Z M 0.609375 -4.40625 "/></g></g></g><g fill="#5389a3" fill-opacity="1"><g transform="translate(97.685141, 80.828953)"><g><path d="M 2.1875 0.0625 C 1.675781 0.0625 1.234375 -0.109375 0.859375 -0.453125 C 0.492188 -0.804688 0.3125 -1.265625 0.3125 -1.828125 C 0.3125 -2.390625 0.503906 -2.847656 0.890625 -3.203125 C 1.273438 -3.554688 1.742188 -3.734375 2.296875 -3.734375 C 2.859375 -3.734375 3.328125 -3.539062 3.703125 -3.15625 L 3.25 -2.609375 C 2.9375 -2.878906 2.617188 -3.015625 2.296875 -3.015625 C 1.972656 -3.015625 1.691406 -2.90625 1.453125 -2.6875 C 1.210938 -2.476562 1.09375 -2.203125 1.09375 -1.859375 C 1.09375 -1.523438 1.207031 -1.238281 1.4375 -1 C 1.675781 -0.769531 1.96875 -0.65625 2.3125 -0.65625 C 2.65625 -0.65625 2.976562 -0.8125 3.28125 -1.125 L 3.75 -0.625 C 3.300781 -0.164062 2.78125 0.0625 2.1875 0.0625 Z M 2.1875 0.0625 "/></g></g></g><g fill="#5389a3" fill-opacity="1"><g transform="translate(101.675571, 80.828953)"><g><path d="M 3.546875 0 L 2.84375 0 L 2.84375 -0.484375 C 2.53125 -0.117188 2.117188 0.0625 1.609375 0.0625 C 1.222656 0.0625 0.90625 -0.046875 0.65625 -0.265625 C 0.40625 -0.484375 0.28125 -0.773438 0.28125 -1.140625 C 0.28125 -1.503906 0.414062 -1.773438 0.6875 -1.953125 C 0.957031 -2.128906 1.316406 -2.21875 1.765625 -2.21875 L 2.78125 -2.21875 L 2.78125 -2.359375 C 2.78125 -2.847656 2.503906 -3.09375 1.953125 -3.09375 C 1.617188 -3.09375 1.265625 -2.96875 0.890625 -2.71875 L 0.546875 -3.203125 C 0.992188 -3.554688 1.5 -3.734375 2.0625 -3.734375 C 2.5 -3.734375 2.851562 -3.625 3.125 -3.40625 C 3.40625 -3.1875 3.546875 -2.84375 3.546875 -2.375 Z M 2.765625 -1.375 L 2.765625 -1.6875 L 1.890625 -1.6875 C 1.335938 -1.6875 1.0625 -1.507812 1.0625 -1.15625 C 1.0625 -0.976562 1.128906 -0.84375 1.265625 -0.75 C 1.398438 -0.65625 1.59375 -0.609375 1.84375 -0.609375 C 2.09375 -0.609375 2.304688 -0.675781 2.484375 -0.8125 C 2.671875 -0.945312 2.765625 -1.132812 2.765625 -1.375 Z M 2.765625 -1.375 "/></g></g></g><g fill="#5389a3" fill-opacity="1"><g transform="translate(105.742208, 80.828953)"><g><path d="M 1.328125 -2 L 1.328125 0 L 0.5625 0 L 0.5625 -3.6875 L 1.328125 -3.6875 L 1.328125 -3.015625 C 1.453125 -3.234375 1.625 -3.40625 1.84375 -3.53125 C 2.070312 -3.664062 2.3125 -3.734375 2.5625 -3.734375 C 2.976562 -3.734375 3.3125 -3.601562 3.5625 -3.34375 C 3.820312 -3.09375 3.953125 -2.726562 3.953125 -2.25 L 3.953125 0 L 3.171875 0 L 3.171875 -2.015625 C 3.171875 -2.691406 2.890625 -3.03125 2.328125 -3.03125 C 2.066406 -3.03125 1.832031 -2.941406 1.625 -2.765625 C 1.425781 -2.585938 1.328125 -2.332031 1.328125 -2 Z M 1.328125 -2 "/></g></g></g><g fill="#5389a3" fill-opacity="1"><g transform="translate(110.217585, 80.828953)"><g><path d="M 3.546875 0 L 2.84375 0 L 2.84375 -0.484375 C 2.53125 -0.117188 2.117188 0.0625 1.609375 0.0625 C 1.222656 0.0625 0.90625 -0.046875 0.65625 -0.265625 C 0.40625 -0.484375 0.28125 -0.773438 0.28125 -1.140625 C 0.28125 -1.503906 0.414062 -1.773438 0.6875 -1.953125 C 0.957031 -2.128906 1.316406 -2.21875 1.765625 -2.21875 L 2.78125 -2.21875 L 2.78125 -2.359375 C 2.78125 -2.847656 2.503906 -3.09375 1.953125 -3.09375 C 1.617188 -3.09375 1.265625 -2.96875 0.890625 -2.71875 L 0.546875 -3.203125 C 0.992188 -3.554688 1.5 -3.734375 2.0625 -3.734375 C 2.5 -3.734375 2.851562 -3.625 3.125 -3.40625 C 3.40625 -3.1875 3.546875 -2.84375 3.546875 -2.375 Z M 2.765625 -1.375 L 2.765625 -1.6875 L 1.890625 -1.6875 C 1.335938 -1.6875 1.0625 -1.507812 1.0625 -1.15625 C 1.0625 -0.976562 1.128906 -0.84375 1.265625 -0.75 C 1.398438 -0.65625 1.59375 -0.609375 1.84375 -0.609375 C 2.09375 -0.609375 2.304688 -0.675781 2.484375 -0.8125 C 2.671875 -0.945312 2.765625 -1.132812 2.765625 -1.375 Z M 2.765625 -1.375 "/></g></g></g><g fill="#5389a3" fill-opacity="1"><g transform="translate(114.284218, 80.828953)"><g/></g></g><g fill="#5389a3" fill-opacity="1"><g transform="translate(116.182446, 80.828953)"><g><path d="M 2.0625 0.0625 C 1.59375 0.0625 1.1875 -0.113281 0.84375 -0.46875 C 0.5 -0.820312 0.328125 -1.285156 0.328125 -1.859375 C 0.328125 -2.429688 0.503906 -2.882812 0.859375 -3.21875 C 1.210938 -3.5625 1.632812 -3.734375 2.125 -3.734375 C 2.613281 -3.734375 3.007812 -3.523438 3.3125 -3.109375 L 3.3125 -5.140625 L 4.09375 -5.140625 L 4.09375 0 L 3.3125 0 L 3.3125 -0.546875 C 3.03125 -0.140625 2.613281 0.0625 2.0625 0.0625 Z M 1.09375 -1.828125 C 1.09375 -1.472656 1.207031 -1.179688 1.4375 -0.953125 C 1.664062 -0.734375 1.929688 -0.625 2.234375 -0.625 C 2.535156 -0.625 2.789062 -0.734375 3 -0.953125 C 3.21875 -1.179688 3.328125 -1.472656 3.328125 -1.828125 C 3.328125 -2.179688 3.21875 -2.472656 3 -2.703125 C 2.789062 -2.941406 2.53125 -3.0625 2.21875 -3.0625 C 1.914062 -3.0625 1.648438 -2.941406 1.421875 -2.703125 C 1.203125 -2.472656 1.09375 -2.179688 1.09375 -1.828125 Z M 1.09375 -1.828125 "/></g></g></g><g fill="#5389a3" fill-opacity="1"><g transform="translate(120.837951, 80.828953)"><g><path d="M 3.984375 -1.5 L 1.09375 -1.5 C 1.113281 -1.226562 1.238281 -1.007812 1.46875 -0.84375 C 1.695312 -0.6875 1.957031 -0.609375 2.25 -0.609375 C 2.707031 -0.609375 3.054688 -0.753906 3.296875 -1.046875 L 3.734375 -0.5625 C 3.335938 -0.144531 2.820312 0.0625 2.1875 0.0625 C 1.664062 0.0625 1.222656 -0.109375 0.859375 -0.453125 C 0.503906 -0.796875 0.328125 -1.257812 0.328125 -1.84375 C 0.328125 -2.425781 0.507812 -2.882812 0.875 -3.21875 C 1.25 -3.5625 1.6875 -3.734375 2.1875 -3.734375 C 2.6875 -3.734375 3.109375 -3.582031 3.453125 -3.28125 C 3.804688 -2.976562 3.984375 -2.5625 3.984375 -2.03125 Z M 1.09375 -2.109375 L 3.21875 -2.109375 C 3.21875 -2.421875 3.117188 -2.660156 2.921875 -2.828125 C 2.722656 -2.992188 2.484375 -3.078125 2.203125 -3.078125 C 1.921875 -3.078125 1.664062 -2.988281 1.4375 -2.8125 C 1.207031 -2.632812 1.09375 -2.398438 1.09375 -2.109375 Z M 1.09375 -2.109375 "/></g></g></g><g fill="#5389a3" fill-opacity="1"><g transform="translate(125.119236, 80.828953)"><g/></g></g><g fill="#01426a" fill-opacity="1"><g transform="translate(46.502324, 72.023104)"><g><path d="M 3.640625 -1.234375 C 4.328125 -1.234375 4.882812 -1.503906 5.3125 -2.046875 L 6.21875 -1.125 C 5.5 -0.320312 4.660156 0.078125 3.703125 0.078125 C 2.742188 0.078125 1.953125 -0.222656 1.328125 -0.828125 C 0.703125 -1.441406 0.390625 -2.210938 0.390625 -3.140625 C 0.390625 -4.066406 0.707031 -4.835938 1.34375 -5.453125 C 1.976562 -6.078125 2.753906 -6.390625 3.671875 -6.390625 C 4.691406 -6.390625 5.550781 -6 6.25 -5.21875 L 5.375 -4.234375 C 4.9375 -4.785156 4.390625 -5.0625 3.734375 -5.0625 C 3.210938 -5.0625 2.765625 -4.890625 2.390625 -4.546875 C 2.015625 -4.203125 1.828125 -3.738281 1.828125 -3.15625 C 1.828125 -2.570312 2.003906 -2.101562 2.359375 -1.75 C 2.710938 -1.40625 3.140625 -1.234375 3.640625 -1.234375 Z M 3.640625 -1.234375 "/></g></g></g><g fill="#01426a" fill-opacity="1"><g transform="translate(53.047291, 72.023104)"><g><path d="M 5.21875 0 L 4.640625 -1.34375 L 2.015625 -1.34375 L 1.4375 0 L -0.046875 0 L 2.65625 -6.25 L 4 -6.25 L 6.703125 0 Z M 3.328125 -4.390625 L 2.546875 -2.578125 L 4.109375 -2.578125 Z M 3.328125 -4.390625 "/></g></g></g><g fill="#01426a" fill-opacity="1"><g transform="translate(59.708495, 72.023104)"><g><path d="M 2.96875 -6.25 C 3.9375 -6.25 4.640625 -6.0625 5.078125 -5.6875 C 5.515625 -5.3125 5.734375 -4.738281 5.734375 -3.96875 C 5.734375 -3.195312 5.503906 -2.632812 5.046875 -2.28125 C 4.597656 -1.925781 3.914062 -1.75 3 -1.75 L 2.15625 -1.75 L 2.15625 0 L 0.765625 0 L 0.765625 -6.25 Z M 3.09375 -2.953125 C 3.5625 -2.953125 3.878906 -3.046875 4.046875 -3.234375 C 4.210938 -3.421875 4.296875 -3.691406 4.296875 -4.046875 C 4.296875 -4.410156 4.1875 -4.664062 3.96875 -4.8125 C 3.75 -4.96875 3.410156 -5.046875 2.953125 -5.046875 L 2.15625 -5.046875 L 2.15625 -2.953125 Z M 3.09375 -2.953125 "/></g></g></g><g fill="#01426a" fill-opacity="1"><g transform="translate(65.761695, 72.023104)"><g><path d="M 0.765625 -6.25 L 2.15625 -6.25 L 2.15625 0 L 0.765625 0 Z M 2.109375 -6.890625 L 0.828125 -6.890625 L 1.96875 -8.46875 L 3.359375 -7.890625 Z M 2.109375 -6.890625 "/></g></g></g><g fill="#01426a" fill-opacity="1"><g transform="translate(68.694412, 72.023104)"><g><path d="M 3.421875 -5.046875 L 3.421875 0 L 2.015625 0 L 2.015625 -5.046875 L 0.25 -5.046875 L 0.25 -6.25 L 5.1875 -6.25 L 5.1875 -5.046875 Z M 3.421875 -5.046875 "/></g></g></g><g fill="#01426a" fill-opacity="1"><g transform="translate(74.13067, 72.023104)"><g><path d="M 2.421875 -1.609375 C 2.648438 -1.328125 2.960938 -1.1875 3.359375 -1.1875 C 3.753906 -1.1875 4.066406 -1.328125 4.296875 -1.609375 C 4.523438 -1.898438 4.640625 -2.296875 4.640625 -2.796875 L 4.640625 -6.25 L 6.03125 -6.25 L 6.03125 -2.75 C 6.03125 -1.84375 5.78125 -1.144531 5.28125 -0.65625 C 4.78125 -0.175781 4.140625 0.0625 3.359375 0.0625 C 2.578125 0.0625 1.929688 -0.179688 1.421875 -0.671875 C 0.921875 -1.160156 0.671875 -1.851562 0.671875 -2.75 L 0.671875 -6.25 L 2.078125 -6.25 L 2.078125 -2.796875 C 2.078125 -2.296875 2.191406 -1.898438 2.421875 -1.609375 Z M 2.421875 -1.609375 "/></g></g></g><g fill="#01426a" fill-opacity="1"><g transform="translate(80.845521, 72.023104)"><g><path d="M 0.765625 0 L 0.765625 -6.25 L 2.15625 -6.25 L 2.15625 -1.25 L 4.828125 -1.25 L 4.828125 0 Z M 0.765625 0 "/></g></g></g><g fill="#01426a" fill-opacity="1"><g transform="translate(85.924131, 72.023104)"><g><path d="M 5.546875 -3.15625 C 5.546875 -3.71875 5.367188 -4.191406 5.015625 -4.578125 C 4.660156 -4.972656 4.21875 -5.171875 3.6875 -5.171875 C 3.164062 -5.171875 2.726562 -4.972656 2.375 -4.578125 C 2.019531 -4.191406 1.84375 -3.71875 1.84375 -3.15625 C 1.84375 -2.601562 2.019531 -2.128906 2.375 -1.734375 C 2.726562 -1.347656 3.164062 -1.15625 3.6875 -1.15625 C 4.21875 -1.15625 4.660156 -1.347656 5.015625 -1.734375 C 5.367188 -2.128906 5.546875 -2.601562 5.546875 -3.15625 Z M 6.015625 -0.859375 C 5.390625 -0.242188 4.613281 0.0625 3.6875 0.0625 C 2.769531 0.0625 1.992188 -0.242188 1.359375 -0.859375 C 0.722656 -1.472656 0.40625 -2.238281 0.40625 -3.15625 C 0.40625 -4.082031 0.722656 -4.851562 1.359375 -5.46875 C 1.992188 -6.082031 2.769531 -6.390625 3.6875 -6.390625 C 4.613281 -6.390625 5.390625 -6.082031 6.015625 -5.46875 C 6.648438 -4.851562 6.96875 -4.082031 6.96875 -3.15625 C 6.96875 -2.238281 6.648438 -1.472656 6.015625 -0.859375 Z M 6.015625 -0.859375 "/></g></g></g><g fill="#01426a" fill-opacity="1"><g transform="translate(93.309574, 72.023104)"><g/></g></g><g fill="#01426a" fill-opacity="1"><g transform="translate(95.670052, 72.023104)"><g><path d="M 5.140625 -6.25 L 6.53125 -6.25 L 6.53125 0 L 5.140625 0 L 2.15625 -3.921875 L 2.15625 0 L 0.765625 0 L 0.765625 -6.25 L 2.078125 -6.25 L 5.140625 -2.21875 Z M 5.140625 -6.25 "/></g></g></g><g fill="#01426a" fill-opacity="1"><g transform="translate(102.975024, 72.023104)"><g><path d="M 5.546875 -3.15625 C 5.546875 -3.71875 5.367188 -4.191406 5.015625 -4.578125 C 4.660156 -4.972656 4.21875 -5.171875 3.6875 -5.171875 C 3.164062 -5.171875 2.726562 -4.972656 2.375 -4.578125 C 2.019531 -4.191406 1.84375 -3.71875 1.84375 -3.15625 C 1.84375 -2.601562 2.019531 -2.128906 2.375 -1.734375 C 2.726562 -1.347656 3.164062 -1.15625 3.6875 -1.15625 C 4.21875 -1.15625 4.660156 -1.347656 5.015625 -1.734375 C 5.367188 -2.128906 5.546875 -2.601562 5.546875 -3.15625 Z M 6.015625 -0.859375 C 5.390625 -0.242188 4.613281 0.0625 3.6875 0.0625 C 2.769531 0.0625 1.992188 -0.242188 1.359375 -0.859375 C 0.722656 -1.472656 0.40625 -2.238281 0.40625 -3.15625 C 0.40625 -4.082031 0.722656 -4.851562 1.359375 -5.46875 C 1.992188 -6.082031 2.769531 -6.390625 3.6875 -6.390625 C 4.613281 -6.390625 5.390625 -6.082031 6.015625 -5.46875 C 6.648438 -4.851562 6.96875 -4.082031 6.96875 -3.15625 C 6.96875 -2.238281 6.648438 -1.472656 6.015625 -0.859375 Z M 6.015625 -0.859375 "/></g></g></g><g fill="#01426a" fill-opacity="1"><g transform="translate(110.360464, 72.023104)"><g><path d="M 5.84375 -4.171875 C 5.84375 -3.171875 5.441406 -2.523438 4.640625 -2.234375 L 6.234375 0 L 4.515625 0 L 3.125 -2 L 2.15625 -2 L 2.15625 0 L 0.765625 0 L 0.765625 -6.25 L 3.140625 -6.25 C 4.109375 -6.25 4.800781 -6.082031 5.21875 -5.75 C 5.632812 -5.425781 5.84375 -4.898438 5.84375 -4.171875 Z M 3.1875 -3.203125 C 3.65625 -3.203125 3.976562 -3.28125 4.15625 -3.4375 C 4.332031 -3.59375 4.421875 -3.835938 4.421875 -4.171875 C 4.421875 -4.503906 4.328125 -4.734375 4.140625 -4.859375 C 3.960938 -4.984375 3.648438 -5.046875 3.203125 -5.046875 L 2.15625 -5.046875 L 2.15625 -3.203125 Z M 3.1875 -3.203125 "/></g></g></g><g fill="#01426a" fill-opacity="1"><g transform="translate(116.860726, 72.023104)"><g><path d="M 5.265625 -6.25 L 5.265625 -5 L 2.15625 -5 L 2.15625 -3.71875 L 4.953125 -3.71875 L 4.953125 -2.53125 L 2.15625 -2.53125 L 2.15625 -1.234375 L 5.375 -1.234375 L 5.375 0 L 0.765625 0 L 0.765625 -6.25 Z M 5.265625 -6.25 "/></g></g></g><g fill="#01426a" fill-opacity="1"><g transform="translate(122.708276, 72.023104)"><g><path d="M 2.78125 -5.171875 C 2.550781 -5.171875 2.367188 -5.113281 2.234375 -5 C 2.097656 -4.882812 2.03125 -4.738281 2.03125 -4.5625 C 2.03125 -4.382812 2.109375 -4.238281 2.265625 -4.125 C 2.429688 -4.019531 2.8125 -3.894531 3.40625 -3.75 C 4 -3.601562 4.457031 -3.382812 4.78125 -3.09375 C 5.113281 -2.800781 5.28125 -2.375 5.28125 -1.8125 C 5.28125 -1.25 5.066406 -0.789062 4.640625 -0.4375 C 4.222656 -0.09375 3.675781 0.078125 3 0.078125 C 2.007812 0.078125 1.117188 -0.289062 0.328125 -1.03125 L 1.15625 -2.046875 C 1.820312 -1.453125 2.441406 -1.15625 3.015625 -1.15625 C 3.273438 -1.15625 3.476562 -1.210938 3.625 -1.328125 C 3.769531 -1.441406 3.84375 -1.59375 3.84375 -1.78125 C 3.84375 -1.96875 3.765625 -2.113281 3.609375 -2.21875 C 3.453125 -2.332031 3.144531 -2.445312 2.6875 -2.5625 C 1.957031 -2.726562 1.425781 -2.945312 1.09375 -3.21875 C 0.757812 -3.5 0.59375 -3.9375 0.59375 -4.53125 C 0.59375 -5.125 0.804688 -5.582031 1.234375 -5.90625 C 1.660156 -6.226562 2.191406 -6.390625 2.828125 -6.390625 C 3.242188 -6.390625 3.660156 -6.316406 4.078125 -6.171875 C 4.492188 -6.035156 4.859375 -5.832031 5.171875 -5.5625 L 4.453125 -4.546875 C 3.910156 -4.960938 3.351562 -5.171875 2.78125 -5.171875 Z M 2.78125 -5.171875 "/></g></g></g><g fill="#01426a" fill-opacity="1"><g transform="translate(128.412771, 72.023104)"><g><path d="M 3.421875 -5.046875 L 3.421875 0 L 2.015625 0 L 2.015625 -5.046875 L 0.25 -5.046875 L 0.25 -6.25 L 5.1875 -6.25 L 5.1875 -5.046875 Z M 3.421875 -5.046875 "/></g></g></g><g fill="#01426a" fill-opacity="1"><g transform="translate(133.849027, 72.023104)"><g><path d="M 5.265625 -6.25 L 5.265625 -5 L 2.15625 -5 L 2.15625 -3.71875 L 4.953125 -3.71875 L 4.953125 -2.53125 L 2.15625 -2.53125 L 2.15625 -1.234375 L 5.375 -1.234375 L 5.375 0 L 0.765625 0 L 0.765625 -6.25 Z M 5.265625 -6.25 "/></g></g></g><g fill="#5389a3" fill-opacity="1"><g transform="translate(46.502324, 89.086034)"><g><path d="M 4.296875 -4.84375 L 5.109375 -4.84375 L 5.109375 0 L 4.234375 0 L 1.484375 -3.53125 L 1.484375 0 L 0.671875 0 L 0.671875 -4.84375 L 1.484375 -4.84375 L 4.296875 -1.21875 Z M 4.296875 -4.84375 "/></g></g></g><g fill="#5389a3" fill-opacity="1"><g transform="translate(52.293991, 89.086034)"><g><path d="M 3.140625 -1.6875 L 3.140625 -3.6875 L 3.90625 -3.6875 L 3.90625 0 L 3.140625 0 L 3.140625 -0.671875 C 3.015625 -0.441406 2.84375 -0.257812 2.625 -0.125 C 2.40625 0 2.164062 0.0625 1.90625 0.0625 C 1.488281 0.0625 1.148438 -0.0625 0.890625 -0.3125 C 0.640625 -0.570312 0.515625 -0.941406 0.515625 -1.421875 L 0.515625 -3.6875 L 1.296875 -3.6875 L 1.296875 -1.65625 C 1.296875 -0.976562 1.578125 -0.640625 2.140625 -0.640625 C 2.410156 -0.640625 2.644531 -0.726562 2.84375 -0.90625 C 3.039062 -1.082031 3.140625 -1.34375 3.140625 -1.6875 Z M 3.140625 -1.6875 "/></g></g></g><g fill="#5389a3" fill-opacity="1"><g transform="translate(56.76937, 89.086034)"><g><path d="M 1.515625 -3.0625 L 1.515625 -1.1875 C 1.515625 -1.007812 1.5625 -0.867188 1.65625 -0.765625 C 1.75 -0.660156 1.878906 -0.609375 2.046875 -0.609375 C 2.210938 -0.609375 2.367188 -0.691406 2.515625 -0.859375 L 2.84375 -0.3125 C 2.5625 -0.0625 2.253906 0.0625 1.921875 0.0625 C 1.597656 0.0625 1.316406 -0.0507812 1.078125 -0.28125 C 0.847656 -0.507812 0.734375 -0.820312 0.734375 -1.21875 L 0.734375 -3.0625 L 0.28125 -3.0625 L 0.28125 -3.6875 L 0.734375 -3.6875 L 0.734375 -4.84375 L 1.515625 -4.84375 L 1.515625 -3.6875 L 2.484375 -3.6875 L 2.484375 -3.0625 Z M 1.515625 -3.0625 "/></g></g></g><g fill="#5389a3" fill-opacity="1"><g transform="translate(59.665204, 89.086034)"><g><path d="M 2.484375 -2.953125 C 2.109375 -2.953125 1.820312 -2.828125 1.625 -2.578125 C 1.425781 -2.328125 1.328125 -1.992188 1.328125 -1.578125 L 1.328125 0 L 0.5625 0 L 0.5625 -3.6875 L 1.328125 -3.6875 L 1.328125 -2.9375 C 1.453125 -3.164062 1.625 -3.351562 1.84375 -3.5 C 2.0625 -3.65625 2.289062 -3.734375 2.53125 -3.734375 L 2.53125 -2.953125 C 2.519531 -2.953125 2.503906 -2.953125 2.484375 -2.953125 Z M 2.484375 -2.953125 "/></g></g></g><g fill="#5389a3" fill-opacity="1"><g transform="translate(62.415552, 89.086034)"><g><path d="M 1.328125 0 L 0.5625 0 L 0.5625 -3.6875 L 1.328125 -3.6875 Z M 0.609375 -4.40625 C 0.515625 -4.507812 0.46875 -4.628906 0.46875 -4.765625 C 0.46875 -4.898438 0.515625 -5.015625 0.609375 -5.109375 C 0.703125 -5.203125 0.816406 -5.25 0.953125 -5.25 C 1.085938 -5.25 1.203125 -5.203125 1.296875 -5.109375 C 1.398438 -5.015625 1.453125 -4.898438 1.453125 -4.765625 C 1.453125 -4.628906 1.398438 -4.507812 1.296875 -4.40625 C 1.203125 -4.3125 1.085938 -4.265625 0.953125 -4.265625 C 0.816406 -4.265625 0.703125 -4.3125 0.609375 -4.40625 Z M 0.609375 -4.40625 "/></g></g></g><g fill="#5389a3" fill-opacity="1"><g transform="translate(64.313777, 89.086034)"><g><path d="M 2.1875 0.0625 C 1.675781 0.0625 1.234375 -0.109375 0.859375 -0.453125 C 0.492188 -0.804688 0.3125 -1.265625 0.3125 -1.828125 C 0.3125 -2.390625 0.503906 -2.847656 0.890625 -3.203125 C 1.273438 -3.554688 1.742188 -3.734375 2.296875 -3.734375 C 2.859375 -3.734375 3.328125 -3.539062 3.703125 -3.15625 L 3.25 -2.609375 C 2.9375 -2.878906 2.617188 -3.015625 2.296875 -3.015625 C 1.972656 -3.015625 1.691406 -2.90625 1.453125 -2.6875 C 1.210938 -2.476562 1.09375 -2.203125 1.09375 -1.859375 C 1.09375 -1.523438 1.207031 -1.238281 1.4375 -1 C 1.675781 -0.769531 1.96875 -0.65625 2.3125 -0.65625 C 2.65625 -0.65625 2.976562 -0.8125 3.28125 -1.125 L 3.75 -0.625 C 3.300781 -0.164062 2.78125 0.0625 2.1875 0.0625 Z M 2.1875 0.0625 "/></g></g></g><g fill="#5389a3" fill-opacity="1"><g transform="translate(68.304208, 89.086034)"><g><path d="M 1.328125 0 L 0.5625 0 L 0.5625 -3.6875 L 1.328125 -3.6875 Z M 0.609375 -4.40625 C 0.515625 -4.507812 0.46875 -4.628906 0.46875 -4.765625 C 0.46875 -4.898438 0.515625 -5.015625 0.609375 -5.109375 C 0.703125 -5.203125 0.816406 -5.25 0.953125 -5.25 C 1.085938 -5.25 1.203125 -5.203125 1.296875 -5.109375 C 1.398438 -5.015625 1.453125 -4.898438 1.453125 -4.765625 C 1.453125 -4.628906 1.398438 -4.507812 1.296875 -4.40625 C 1.203125 -4.3125 1.085938 -4.265625 0.953125 -4.265625 C 0.816406 -4.265625 0.703125 -4.3125 0.609375 -4.40625 Z M 0.609375 -4.40625 "/></g></g></g><g fill="#5389a3" fill-opacity="1"><g transform="translate(70.202433, 89.086034)"><g><path d="M 1.421875 -0.96875 C 1.640625 -0.75 1.914062 -0.640625 2.25 -0.640625 C 2.59375 -0.640625 2.875 -0.75 3.09375 -0.96875 C 3.3125 -1.195312 3.421875 -1.488281 3.421875 -1.84375 C 3.421875 -2.195312 3.3125 -2.484375 3.09375 -2.703125 C 2.875 -2.929688 2.59375 -3.046875 2.25 -3.046875 C 1.914062 -3.046875 1.640625 -2.929688 1.421875 -2.703125 C 1.203125 -2.484375 1.09375 -2.195312 1.09375 -1.84375 C 1.09375 -1.488281 1.203125 -1.195312 1.421875 -0.96875 Z M 3.640625 -0.484375 C 3.273438 -0.117188 2.8125 0.0625 2.25 0.0625 C 1.695312 0.0625 1.234375 -0.117188 0.859375 -0.484375 C 0.492188 -0.859375 0.3125 -1.3125 0.3125 -1.84375 C 0.3125 -2.375 0.492188 -2.820312 0.859375 -3.1875 C 1.234375 -3.550781 1.695312 -3.734375 2.25 -3.734375 C 2.8125 -3.734375 3.273438 -3.550781 3.640625 -3.1875 C 4.003906 -2.820312 4.1875 -2.375 4.1875 -1.84375 C 4.1875 -1.3125 4.003906 -0.859375 3.640625 -0.484375 Z M 2.609375 -4.15625 L 1.90625 -4.15625 L 2.640625 -5.15625 L 3.453125 -4.8125 Z M 2.609375 -4.15625 "/></g></g></g><g fill="#5389a3" fill-opacity="1"><g transform="translate(74.719379, 89.086034)"><g><path d="M 1.328125 -2 L 1.328125 0 L 0.5625 0 L 0.5625 -3.6875 L 1.328125 -3.6875 L 1.328125 -3.015625 C 1.453125 -3.234375 1.625 -3.40625 1.84375 -3.53125 C 2.070312 -3.664062 2.3125 -3.734375 2.5625 -3.734375 C 2.976562 -3.734375 3.3125 -3.601562 3.5625 -3.34375 C 3.820312 -3.09375 3.953125 -2.726562 3.953125 -2.25 L 3.953125 0 L 3.171875 0 L 3.171875 -2.015625 C 3.171875 -2.691406 2.890625 -3.03125 2.328125 -3.03125 C 2.066406 -3.03125 1.832031 -2.941406 1.625 -2.765625 C 1.425781 -2.585938 1.328125 -2.332031 1.328125 -2 Z M 1.328125 -2 "/></g></g></g><g fill="#5389a3" fill-opacity="1"><g transform="translate(79.19476, 89.086034)"><g/></g></g><g fill="#5389a3" fill-opacity="1"><g transform="translate(81.092985, 89.086034)"><g><path d="M 1.03125 1.46875 C 0.6875 1.46875 0.378906 1.34375 0.109375 1.09375 L 0.46875 0.46875 C 0.625 0.625 0.785156 0.703125 0.953125 0.703125 C 1.128906 0.703125 1.269531 0.640625 1.375 0.515625 C 1.488281 0.390625 1.546875 0.253906 1.546875 0.109375 C 1.546875 0.0351562 1.050781 -1.226562 0.0625 -3.6875 L 0.890625 -3.6875 L 2 -0.96875 L 3.09375 -3.6875 L 3.921875 -3.6875 L 2.140625 0.6875 C 2.035156 0.925781 1.882812 1.113281 1.6875 1.25 C 1.488281 1.394531 1.269531 1.46875 1.03125 1.46875 Z M 1.03125 1.46875 "/></g></g></g><g fill="#5389a3" fill-opacity="1"><g transform="translate(85.069558, 89.086034)"><g/></g></g><g fill="#5389a3" fill-opacity="1"><g transform="translate(86.967783, 89.086034)"><g><path d="M 4.0625 -4.84375 L 4.0625 -4.0625 L 1.484375 -4.0625 L 1.484375 -2.796875 L 3.8125 -2.796875 L 3.8125 -2.0625 L 1.484375 -2.0625 L 1.484375 -0.765625 L 4.15625 -0.765625 L 4.15625 0 L 0.671875 0 L 0.671875 -4.84375 Z M 4.0625 -4.84375 "/></g></g></g><g fill="#5389a3" fill-opacity="1"><g transform="translate(91.498583, 89.086034)"><g><path d="M 1.328125 -2 L 1.328125 0 L 0.5625 0 L 0.5625 -3.6875 L 1.328125 -3.6875 L 1.328125 -3.015625 C 1.453125 -3.234375 1.625 -3.40625 1.84375 -3.53125 C 2.070312 -3.664062 2.3125 -3.734375 2.5625 -3.734375 C 2.976562 -3.734375 3.3125 -3.601562 3.5625 -3.34375 C 3.820312 -3.09375 3.953125 -2.726562 3.953125 -2.25 L 3.953125 0 L 3.171875 0 L 3.171875 -2.015625 C 3.171875 -2.691406 2.890625 -3.03125 2.328125 -3.03125 C 2.066406 -3.03125 1.832031 -2.941406 1.625 -2.765625 C 1.425781 -2.585938 1.328125 -2.332031 1.328125 -2 Z M 1.328125 -2 "/></g></g></g><g fill="#5389a3" fill-opacity="1"><g transform="translate(95.973964, 89.086034)"><g><path d="M 2.0625 0.0625 C 1.59375 0.0625 1.1875 -0.113281 0.84375 -0.46875 C 0.5 -0.820312 0.328125 -1.285156 0.328125 -1.859375 C 0.328125 -2.429688 0.503906 -2.882812 0.859375 -3.21875 C 1.210938 -3.5625 1.632812 -3.734375 2.125 -3.734375 C 2.613281 -3.734375 3.007812 -3.523438 3.3125 -3.109375 L 3.3125 -5.140625 L 4.09375 -5.140625 L 4.09375 0 L 3.3125 0 L 3.3125 -0.546875 C 3.03125 -0.140625 2.613281 0.0625 2.0625 0.0625 Z M 1.09375 -1.828125 C 1.09375 -1.472656 1.207031 -1.179688 1.4375 -0.953125 C 1.664062 -0.734375 1.929688 -0.625 2.234375 -0.625 C 2.535156 -0.625 2.789062 -0.734375 3 -0.953125 C 3.21875 -1.179688 3.328125 -1.472656 3.328125 -1.828125 C 3.328125 -2.179688 3.21875 -2.472656 3 -2.703125 C 2.789062 -2.941406 2.53125 -3.0625 2.21875 -3.0625 C 1.914062 -3.0625 1.648438 -2.941406 1.421875 -2.703125 C 1.203125 -2.472656 1.09375 -2.179688 1.09375 -1.828125 Z M 1.09375 -1.828125 "/></g></g></g><g fill="#5389a3" fill-opacity="1"><g transform="translate(100.629468, 89.086034)"><g><path d="M 1.421875 -0.96875 C 1.640625 -0.75 1.914062 -0.640625 2.25 -0.640625 C 2.59375 -0.640625 2.875 -0.75 3.09375 -0.96875 C 3.3125 -1.195312 3.421875 -1.488281 3.421875 -1.84375 C 3.421875 -2.195312 3.3125 -2.484375 3.09375 -2.703125 C 2.875 -2.929688 2.59375 -3.046875 2.25 -3.046875 C 1.914062 -3.046875 1.640625 -2.929688 1.421875 -2.703125 C 1.203125 -2.484375 1.09375 -2.195312 1.09375 -1.84375 C 1.09375 -1.488281 1.203125 -1.195312 1.421875 -0.96875 Z M 3.640625 -0.484375 C 3.273438 -0.117188 2.8125 0.0625 2.25 0.0625 C 1.695312 0.0625 1.234375 -0.117188 0.859375 -0.484375 C 0.492188 -0.859375 0.3125 -1.3125 0.3125 -1.84375 C 0.3125 -2.375 0.492188 -2.820312 0.859375 -3.1875 C 1.234375 -3.550781 1.695312 -3.734375 2.25 -3.734375 C 2.8125 -3.734375 3.273438 -3.550781 3.640625 -3.1875 C 4.003906 -2.820312 4.1875 -2.375 4.1875 -1.84375 C 4.1875 -1.3125 4.003906 -0.859375 3.640625 -0.484375 Z M 3.640625 -0.484375 "/></g></g></g><g fill="#5389a3" fill-opacity="1"><g transform="translate(105.146415, 89.086034)"><g><path d="M 2.1875 0.0625 C 1.675781 0.0625 1.234375 -0.109375 0.859375 -0.453125 C 0.492188 -0.804688 0.3125 -1.265625 0.3125 -1.828125 C 0.3125 -2.390625 0.503906 -2.847656 0.890625 -3.203125 C 1.273438 -3.554688 1.742188 -3.734375 2.296875 -3.734375 C 2.859375 -3.734375 3.328125 -3.539062 3.703125 -3.15625 L 3.25 -2.609375 C 2.9375 -2.878906 2.617188 -3.015625 2.296875 -3.015625 C 1.972656 -3.015625 1.691406 -2.90625 1.453125 -2.6875 C 1.210938 -2.476562 1.09375 -2.203125 1.09375 -1.859375 C 1.09375 -1.523438 1.207031 -1.238281 1.4375 -1 C 1.675781 -0.769531 1.96875 -0.65625 2.3125 -0.65625 C 2.65625 -0.65625 2.976562 -0.8125 3.28125 -1.125 L 3.75 -0.625 C 3.300781 -0.164062 2.78125 0.0625 2.1875 0.0625 Z M 2.1875 0.0625 "/></g></g></g><g fill="#5389a3" fill-opacity="1"><g transform="translate(109.136845, 89.086034)"><g><path d="M 2.484375 -2.953125 C 2.109375 -2.953125 1.820312 -2.828125 1.625 -2.578125 C 1.425781 -2.328125 1.328125 -1.992188 1.328125 -1.578125 L 1.328125 0 L 0.5625 0 L 0.5625 -3.6875 L 1.328125 -3.6875 L 1.328125 -2.9375 C 1.453125 -3.164062 1.625 -3.351562 1.84375 -3.5 C 2.0625 -3.65625 2.289062 -3.734375 2.53125 -3.734375 L 2.53125 -2.953125 C 2.519531 -2.953125 2.503906 -2.953125 2.484375 -2.953125 Z M 2.484375 -2.953125 "/></g></g></g><g fill="#5389a3" fill-opacity="1"><g transform="translate(111.887196, 89.086034)"><g><path d="M 1.328125 0 L 0.5625 0 L 0.5625 -3.6875 L 1.328125 -3.6875 Z M 0.609375 -4.40625 C 0.515625 -4.507812 0.46875 -4.628906 0.46875 -4.765625 C 0.46875 -4.898438 0.515625 -5.015625 0.609375 -5.109375 C 0.703125 -5.203125 0.816406 -5.25 0.953125 -5.25 C 1.085938 -5.25 1.203125 -5.203125 1.296875 -5.109375 C 1.398438 -5.015625 1.453125 -4.898438 1.453125 -4.765625 C 1.453125 -4.628906 1.398438 -4.507812 1.296875 -4.40625 C 1.203125 -4.3125 1.085938 -4.265625 0.953125 -4.265625 C 0.816406 -4.265625 0.703125 -4.3125 0.609375 -4.40625 Z M 0.609375 -4.40625 "/></g></g></g><g fill="#5389a3" fill-opacity="1"><g transform="translate(113.785425, 89.086034)"><g><path d="M 1.328125 -2 L 1.328125 0 L 0.5625 0 L 0.5625 -3.6875 L 1.328125 -3.6875 L 1.328125 -3.015625 C 1.453125 -3.234375 1.625 -3.40625 1.84375 -3.53125 C 2.070312 -3.664062 2.3125 -3.734375 2.5625 -3.734375 C 2.976562 -3.734375 3.3125 -3.601562 3.5625 -3.34375 C 3.820312 -3.09375 3.953125 -2.726562 3.953125 -2.25 L 3.953125 0 L 3.171875 0 L 3.171875 -2.015625 C 3.171875 -2.691406 2.890625 -3.03125 2.328125 -3.03125 C 2.066406 -3.03125 1.832031 -2.941406 1.625 -2.765625 C 1.425781 -2.585938 1.328125 -2.332031 1.328125 -2 Z M 1.328125 -2 "/></g></g></g><g fill="#5389a3" fill-opacity="1"><g transform="translate(118.260802, 89.086034)"><g><path d="M 1.421875 -0.96875 C 1.640625 -0.75 1.914062 -0.640625 2.25 -0.640625 C 2.59375 -0.640625 2.875 -0.75 3.09375 -0.96875 C 3.3125 -1.195312 3.421875 -1.488281 3.421875 -1.84375 C 3.421875 -2.195312 3.3125 -2.484375 3.09375 -2.703125 C 2.875 -2.929688 2.59375 -3.046875 2.25 -3.046875 C 1.914062 -3.046875 1.640625 -2.929688 1.421875 -2.703125 C 1.203125 -2.484375 1.09375 -2.195312 1.09375 -1.84375 C 1.09375 -1.488281 1.203125 -1.195312 1.421875 -0.96875 Z M 3.640625 -0.484375 C 3.273438 -0.117188 2.8125 0.0625 2.25 0.0625 C 1.695312 0.0625 1.234375 -0.117188 0.859375 -0.484375 C 0.492188 -0.859375 0.3125 -1.3125 0.3125 -1.84375 C 0.3125 -2.375 0.492188 -2.820312 0.859375 -3.1875 C 1.234375 -3.550781 1.695312 -3.734375 2.25 -3.734375 C 2.8125 -3.734375 3.273438 -3.550781 3.640625 -3.1875 C 4.003906 -2.820312 4.1875 -2.375 4.1875 -1.84375 C 4.1875 -1.3125 4.003906 -0.859375 3.640625 -0.484375 Z M 3.640625 -0.484375 "/></g></g></g><g fill="#5389a3" fill-opacity="1"><g transform="translate(122.777745, 89.086034)"><g><path d="M 1.328125 0 L 0.5625 0 L 0.5625 -5.140625 L 1.328125 -5.140625 Z M 1.328125 0 "/></g></g></g><g fill="#5389a3" fill-opacity="1"><g transform="translate(124.675973, 89.086034)"><g><path d="M 1.421875 -0.96875 C 1.640625 -0.75 1.914062 -0.640625 2.25 -0.640625 C 2.59375 -0.640625 2.875 -0.75 3.09375 -0.96875 C 3.3125 -1.195312 3.421875 -1.488281 3.421875 -1.84375 C 3.421875 -2.195312 3.3125 -2.484375 3.09375 -2.703125 C 2.875 -2.929688 2.59375 -3.046875 2.25 -3.046875 C 1.914062 -3.046875 1.640625 -2.929688 1.421875 -2.703125 C 1.203125 -2.484375 1.09375 -2.195312 1.09375 -1.84375 C 1.09375 -1.488281 1.203125 -1.195312 1.421875 -0.96875 Z M 3.640625 -0.484375 C 3.273438 -0.117188 2.8125 0.0625 2.25 0.0625 C 1.695312 0.0625 1.234375 -0.117188 0.859375 -0.484375 C 0.492188 -0.859375 0.3125 -1.3125 0.3125 -1.84375 C 0.3125 -2.375 0.492188 -2.820312 0.859375 -3.1875 C 1.234375 -3.550781 1.695312 -3.734375 2.25 -3.734375 C 2.8125 -3.734375 3.273438 -3.550781 3.640625 -3.1875 C 4.003906 -2.820312 4.1875 -2.375 4.1875 -1.84375 C 4.1875 -1.3125 4.003906 -0.859375 3.640625 -0.484375 Z M 3.640625 -0.484375 "/></g></g></g><g fill="#5389a3" fill-opacity="1"><g transform="translate(129.192916, 89.086034)"><g><path d="M 3.96875 -3.6875 L 3.96875 -0.46875 C 3.96875 0.175781 3.789062 0.660156 3.4375 0.984375 C 3.082031 1.316406 2.628906 1.484375 2.078125 1.484375 C 1.523438 1.484375 1.023438 1.3125 0.578125 0.96875 L 0.9375 0.375 C 1.300781 0.644531 1.664062 0.78125 2.03125 0.78125 C 2.394531 0.78125 2.679688 0.6875 2.890625 0.5 C 3.109375 0.3125 3.21875 0.0078125 3.21875 -0.40625 L 3.21875 -0.875 C 3.101562 -0.65625 2.9375 -0.484375 2.71875 -0.359375 C 2.507812 -0.234375 2.269531 -0.171875 2 -0.171875 C 1.519531 -0.171875 1.117188 -0.335938 0.796875 -0.671875 C 0.484375 -1.015625 0.328125 -1.441406 0.328125 -1.953125 C 0.328125 -2.460938 0.484375 -2.882812 0.796875 -3.21875 C 1.117188 -3.5625 1.519531 -3.734375 2 -3.734375 C 2.488281 -3.734375 2.882812 -3.535156 3.1875 -3.140625 L 3.1875 -3.6875 Z M 1.09375 -1.984375 C 1.09375 -1.679688 1.1875 -1.421875 1.375 -1.203125 C 1.5625 -0.984375 1.8125 -0.875 2.125 -0.875 C 2.445312 -0.875 2.703125 -0.976562 2.890625 -1.1875 C 3.085938 -1.40625 3.1875 -1.671875 3.1875 -1.984375 C 3.1875 -2.296875 3.085938 -2.5625 2.890625 -2.78125 C 2.691406 -3 2.4375 -3.109375 2.125 -3.109375 C 1.8125 -3.109375 1.5625 -2.992188 1.375 -2.765625 C 1.1875 -2.546875 1.09375 -2.285156 1.09375 -1.984375 Z M 1.09375 -1.984375 "/></g></g></g><g fill="#5389a3" fill-opacity="1"><g transform="translate(133.723716, 89.086034)"><g><path d="M 1.3125 -4.15625 L 0.671875 -4.15625 L 1.390625 -5.125 L 2.15625 -4.78125 Z M 0.5625 -3.6875 L 1.328125 -3.6875 L 1.328125 0 L 0.5625 0 Z M 0.5625 -3.6875 "/></g></g></g><g fill="#5389a3" fill-opacity="1"><g transform="translate(135.621945, 89.086034)"><g><path d="M 3.546875 0 L 2.84375 0 L 2.84375 -0.484375 C 2.53125 -0.117188 2.117188 0.0625 1.609375 0.0625 C 1.222656 0.0625 0.90625 -0.046875 0.65625 -0.265625 C 0.40625 -0.484375 0.28125 -0.773438 0.28125 -1.140625 C 0.28125 -1.503906 0.414062 -1.773438 0.6875 -1.953125 C 0.957031 -2.128906 1.316406 -2.21875 1.765625 -2.21875 L 2.78125 -2.21875 L 2.78125 -2.359375 C 2.78125 -2.847656 2.503906 -3.09375 1.953125 -3.09375 C 1.617188 -3.09375 1.265625 -2.96875 0.890625 -2.71875 L 0.546875 -3.203125 C 0.992188 -3.554688 1.5 -3.734375 2.0625 -3.734375 C 2.5 -3.734375 2.851562 -3.625 3.125 -3.40625 C 3.40625 -3.1875 3.546875 -2.84375 3.546875 -2.375 Z M 2.765625 -1.375 L 2.765625 -1.6875 L 1.890625 -1.6875 C 1.335938 -1.6875 1.0625 -1.507812 1.0625 -1.15625 C 1.0625 -0.976562 1.128906 -0.84375 1.265625 -0.75 C 1.398438 -0.65625 1.59375 -0.609375 1.84375 -0.609375 C 2.09375 -0.609375 2.304688 -0.675781 2.484375 -0.8125 C 2.671875 -0.945312 2.765625 -1.132812 2.765625 -1.375 Z M 2.765625 -1.375 "/></g></g></g></svg>