<svg xmlns="http://www.w3.org/2000/svg" xmlns:xlink="http://www.w3.org/1999/xlink" width="1000" zoomAndPan="magnify" viewBox="0 0 750 749.999995" height="1000" preserveAspectRatio="xMidYMid meet" version="1.0"><defs><g/><clipPath id="08a3f50a5c"><path d="M 174 238 L 191 238 L 191 255 L 174 255 Z M 174 238 " clip-rule="nonzero"/></clipPath><clipPath id="a7d78fc217"><path d="M 190.695312 248.796875 C 189.65625 253.128906 185.300781 255.804688 180.96875 254.765625 C 176.636719 253.726562 173.960938 249.375 174.996094 245.039062 C 176.03125 240.699219 180.390625 238.03125 184.722656 239.070312 C 189.054688 240.109375 191.730469 244.460938 190.695312 248.796875 " clip-rule="nonzero"/></clipPath><clipPath id="583317ed58"><path d="M 177 379 L 195 379 L 195 397 L 177 397 Z M 177 379 " clip-rule="nonzero"/></clipPath><clipPath id="3dfe8d321c"><path d="M 184.304688 396.035156 C 179.835938 395.089844 176.980469 390.699219 177.929688 386.230469 C 178.882812 381.765625 183.265625 378.910156 187.734375 379.859375 C 192.199219 380.808594 195.054688 385.191406 194.109375 389.660156 C 193.164062 394.128906 188.777344 396.984375 184.308594 396.035156 " clip-rule="nonzero"/></clipPath><clipPath id="c04660f37d"><path d="M 109 402 L 127 402 L 127 420 L 109 420 Z M 109 402 " clip-rule="nonzero"/></clipPath><clipPath id="50bfe955da"><path d="M 110.34375 408.621094 C 111.644531 404.359375 116.148438 401.949219 120.410156 403.25 C 124.671875 404.550781 127.082031 409.054688 125.78125 413.316406 C 124.484375 417.582031 119.976562 419.988281 115.714844 418.6875 C 111.453125 417.390625 109.042969 412.882812 110.34375 408.621094 " clip-rule="nonzero"/></clipPath><clipPath id="7823b64c13"><path d="M 163.589844 247.578125 L 180.671875 247.578125 L 180.671875 270.5625 L 163.589844 270.5625 Z M 163.589844 247.578125 " clip-rule="nonzero"/></clipPath><clipPath id="30bd61c57e"><path d="M 177.40625 247.84375 L 163.777344 268.25 L 167.035156 270.425781 L 180.660156 250.019531 L 177.40625 247.84375 " clip-rule="nonzero"/></clipPath><clipPath id="9790afc199"><path d="M 115.140625 235.777344 L 159.550781 235.777344 L 159.550781 284.847656 L 115.140625 284.847656 Z M 115.140625 235.777344 " clip-rule="nonzero"/></clipPath><clipPath id="6cf86386c8"><path d="M 115.140625 239.394531 L 155.398438 284.570312 L 159.414062 280.992188 L 119.15625 235.816406 L 115.140625 239.394531 " clip-rule="nonzero"/></clipPath><clipPath id="3e4c3206ec"><path d="M 143 225 L 178.808594 225 L 178.808594 248 L 143 248 Z M 143 225 " clip-rule="nonzero"/></clipPath><clipPath id="678303d96d"><path d="M 176.980469 247.894531 L 178.75 244.398438 L 163.792969 236.816406 C 164.542969 231.328125 160.742188 226.234375 155.25 225.414062 C 149.710938 224.585938 144.546875 228.40625 143.71875 233.945312 C 142.890625 239.484375 146.714844 244.640625 152.253906 245.472656 C 156.476562 246.101562 160.480469 244.027344 162.511719 240.550781 L 176.980469 247.894531 " clip-rule="nonzero"/></clipPath><clipPath id="0f8369f63e"><path d="M 131 254 L 173 254 L 173 296 L 131 296 Z M 131 254 " clip-rule="nonzero"/></clipPath><clipPath id="2f99bcf234"><path d="M 156.460938 254.65625 C 145.414062 252.015625 134.320312 258.824219 131.679688 269.867188 C 129.039062 280.914062 135.84375 292.007812 146.890625 294.648438 C 157.9375 297.289062 169.027344 290.484375 171.671875 279.4375 C 174.3125 268.390625 167.503906 257.300781 156.460938 254.65625 " clip-rule="nonzero"/></clipPath><clipPath id="756e97c7a5"><path d="M 94 213 L 131 213 L 131 251 L 94 251 Z M 94 213 " clip-rule="nonzero"/></clipPath><clipPath id="ef877d2d9a"><path d="M 115.09375 213.824219 C 105.09375 212.328125 95.78125 219.222656 94.285156 229.222656 C 92.789062 239.21875 99.683594 248.535156 109.683594 250.03125 C 119.679688 251.527344 128.996094 244.632812 130.492188 234.636719 C 131.988281 224.636719 125.09375 215.320312 115.09375 213.824219 " clip-rule="nonzero"/></clipPath><clipPath id="493145be12"><path d="M 120.417969 388.269531 L 138.433594 388.269531 L 138.433594 410.632812 L 120.417969 410.632812 Z M 120.417969 388.269531 " clip-rule="nonzero"/></clipPath><clipPath id="6371ba644f"><path d="M 138.382812 390.824219 L 135.261719 388.457031 L 120.429688 408.011719 L 123.550781 410.378906 L 138.382812 390.824219 " clip-rule="nonzero"/></clipPath><clipPath id="b86c2ad231"><path d="M 142.160156 376.46875 L 183.464844 376.46875 L 183.464844 427 L 142.160156 427 Z M 142.160156 376.46875 " clip-rule="nonzero"/></clipPath><clipPath id="304d2cdfa1"><path d="M 145.710938 376.636719 L 142.199219 379.402344 L 179.652344 426.929688 L 183.164062 424.164062 L 145.710938 376.636719 " clip-rule="nonzero"/></clipPath><clipPath id="7400b00a59"><path d="M 121.972656 410.320312 L 157 410.320312 L 157 435 L 121.972656 435 Z M 121.972656 410.320312 " clip-rule="nonzero"/></clipPath><clipPath id="76157dc540"><path d="M 148.511719 414.257812 C 144.332031 413.375 140.210938 415.199219 137.972656 418.550781 L 123.976562 410.351562 L 121.996094 413.726562 L 136.46875 422.203125 C 135.386719 427.636719 138.875 432.945312 144.308594 434.09375 C 149.789062 435.253906 155.175781 431.757812 156.332031 426.277344 C 157.492188 420.800781 153.996094 415.417969 148.515625 414.253906 " clip-rule="nonzero"/></clipPath><clipPath id="20c39a5635"><path d="M 108 264 L 126 264 L 126 281 L 108 281 Z M 108 264 " clip-rule="nonzero"/></clipPath><clipPath id="2ee80fd940"><path d="M 115.183594 280.414062 C 110.714844 279.46875 107.859375 275.082031 108.8125 270.613281 C 109.761719 266.144531 114.144531 263.289062 118.613281 264.234375 C 123.082031 265.183594 125.9375 269.570312 124.984375 274.039062 C 124.035156 278.503906 119.652344 281.359375 115.183594 280.414062 " clip-rule="nonzero"/></clipPath><clipPath id="b673f6688d"><path d="M 130 364 L 172 364 L 172 406 L 130 406 Z M 130 364 " clip-rule="nonzero"/></clipPath><clipPath id="1cd7f9de3c"><path d="M 156.835938 365.496094 C 145.972656 362.195312 134.488281 368.320312 131.183594 379.183594 C 127.875 390.046875 134.003906 401.53125 144.867188 404.839844 C 155.734375 408.144531 167.214844 402.015625 170.523438 391.152344 C 173.832031 380.289062 167.699219 368.804688 156.835938 365.496094 " clip-rule="nonzero"/></clipPath><clipPath id="60099a6867"><path d="M 169 411 L 206 411 L 206 449 L 169 449 Z M 169 411 " clip-rule="nonzero"/></clipPath><clipPath id="75eaefa804"><path d="M 191.277344 412.277344 C 181.386719 410.183594 171.671875 416.503906 169.578125 426.394531 C 167.488281 436.285156 173.804688 446.003906 183.691406 448.09375 C 193.574219 450.1875 203.296875 443.867188 205.394531 433.980469 C 207.492188 424.089844 201.167969 414.371094 191.277344 412.277344 " clip-rule="nonzero"/></clipPath><clipPath id="1171b54764"><path d="M 92.46875 290 L 210.796875 290 L 210.796875 371 L 92.46875 371 Z M 92.46875 290 " clip-rule="nonzero"/></clipPath><clipPath id="e7d16c00be"><path d="M 210.714844 329.207031 C 210.703125 328.722656 210.699219 328.242188 210.683594 327.757812 C 210.667969 327.445312 210.648438 327.132812 210.636719 326.820312 C 210.492188 324 210.191406 321.167969 209.726562 318.324219 C 208.550781 311.121094 205.851562 304.453125 201.058594 298.78125 C 200.640625 298.289062 200.214844 297.824219 199.769531 297.378906 C 193.425781 289.757812 186.453125 289.359375 177.355469 295.652344 C 173.847656 298.082031 170.421875 300.625 166.894531 303.015625 C 157.125 309.640625 147.300781 309.671875 137.488281 303.09375 C 132.730469 299.902344 128.160156 296.386719 123.230469 293.476562 C 117.210938 289.929688 112.753906 290.003906 107.828125 293.585938 C 106.015625 294.410156 104.296875 295.789062 102.570312 297.875 C 97.035156 304.546875 94.613281 312.589844 93.40625 320.898438 C 93.242188 322.003906 93.117188 323.101562 93.003906 324.203125 C 92.742188 326.570312 92.621094 328.949219 92.625 331.34375 C 92.625 331.613281 92.636719 331.878906 92.636719 332.148438 C 92.644531 332.722656 92.65625 333.296875 92.679688 333.867188 C 92.6875 334.105469 92.703125 334.339844 92.710938 334.574219 C 92.851562 337.382812 93.144531 340.210938 93.601562 343.050781 C 94.761719 350.257812 97.449219 356.925781 102.226562 362.613281 C 102.597656 363.050781 102.976562 363.46875 103.371094 363.875 C 109.804688 371.804688 116.847656 372.292969 126.066406 365.886719 C 129.570312 363.457031 132.988281 360.902344 136.511719 358.503906 C 146.265625 351.855469 156.089844 351.804688 165.917969 358.363281 C 170.6875 361.546875 175.261719 365.054688 180.195312 367.953125 C 186.066406 371.394531 190.445312 371.402344 195.210938 368.085938 C 197.109375 367.285156 198.90625 365.882812 200.71875 363.710938 C 206.265625 357.054688 208.703125 349.015625 209.925781 340.707031 C 210.070312 339.714844 210.195312 338.726562 210.304688 337.738281 C 210.59375 335.253906 210.726562 332.75 210.726562 330.226562 C 210.726562 329.886719 210.71875 329.546875 210.714844 329.207031 " clip-rule="nonzero"/></clipPath><clipPath id="a49b52973e"><path d="M 109.730469 402.601562 L 126.996094 402.601562 L 126.996094 419.867188 L 109.730469 419.867188 Z M 109.730469 402.601562 " clip-rule="nonzero"/></clipPath><clipPath id="f2166238e7"><path d="M 118.363281 402.601562 C 113.59375 402.601562 109.730469 406.464844 109.730469 411.234375 C 109.730469 416 113.59375 419.867188 118.363281 419.867188 C 123.128906 419.867188 126.996094 416 126.996094 411.234375 C 126.996094 406.464844 123.128906 402.601562 118.363281 402.601562 " clip-rule="nonzero"/></clipPath><clipPath id="abe650038e"><path d="M 174.042969 237.960938 L 191.308594 237.960938 L 191.308594 255.226562 L 174.042969 255.226562 Z M 174.042969 237.960938 " clip-rule="nonzero"/></clipPath><clipPath id="9ec4fcae38"><path d="M 182.675781 237.960938 C 177.910156 237.960938 174.042969 241.824219 174.042969 246.59375 C 174.042969 251.359375 177.910156 255.226562 182.675781 255.226562 C 187.445312 255.226562 191.308594 251.359375 191.308594 246.59375 C 191.308594 241.824219 187.445312 237.960938 182.675781 237.960938 " clip-rule="nonzero"/></clipPath></defs><g clip-path="url(#08a3f50a5c)"><g clip-path="url(#a7d78fc217)"><path fill="#002b49" d="M 90.292969 210 L 212.96875 210 L 212.96875 452.558594 L 90.292969 452.558594 Z M 90.292969 210 " fill-opacity="1" fill-rule="nonzero"/></g></g><g clip-path="url(#583317ed58)"><g clip-path="url(#3dfe8d321c)"><path fill="#9bd3dd" d="M 90.292969 210 L 212.96875 210 L 212.96875 452.558594 L 90.292969 452.558594 Z M 90.292969 210 " fill-opacity="1" fill-rule="nonzero"/></g></g><g clip-path="url(#c04660f37d)"><g clip-path="url(#50bfe955da)"><path fill="#002b49" d="M 90.292969 210 L 212.96875 210 L 212.96875 452.558594 L 90.292969 452.558594 Z M 90.292969 210 " fill-opacity="1" fill-rule="nonzero"/></g></g><g clip-path="url(#7823b64c13)"><g clip-path="url(#30bd61c57e)"><path fill="#5489a3" d="M 90.292969 210 L 212.96875 210 L 212.96875 452.558594 L 90.292969 452.558594 Z M 90.292969 210 " fill-opacity="1" fill-rule="nonzero"/></g></g><g clip-path="url(#9790afc199)"><g clip-path="url(#6cf86386c8)"><path fill="#5489a3" d="M 90.292969 210 L 212.96875 210 L 212.96875 452.558594 L 90.292969 452.558594 Z M 90.292969 210 " fill-opacity="1" fill-rule="nonzero"/></g></g><g clip-path="url(#3e4c3206ec)"><g clip-path="url(#678303d96d)"><path fill="#5489a3" d="M 90.292969 210 L 212.96875 210 L 212.96875 452.558594 L 90.292969 452.558594 Z M 90.292969 210 " fill-opacity="1" fill-rule="nonzero"/></g></g><g clip-path="url(#0f8369f63e)"><g clip-path="url(#2f99bcf234)"><path fill="#01426a" d="M 90.292969 210 L 212.96875 210 L 212.96875 452.558594 L 90.292969 452.558594 Z M 90.292969 210 " fill-opacity="1" fill-rule="nonzero"/></g></g><g clip-path="url(#756e97c7a5)"><g clip-path="url(#ef877d2d9a)"><path fill="#01426a" d="M 90.292969 210 L 212.96875 210 L 212.96875 452.558594 L 90.292969 452.558594 Z M 90.292969 210 " fill-opacity="1" fill-rule="nonzero"/></g></g><g clip-path="url(#493145be12)"><g clip-path="url(#6371ba644f)"><path fill="#5489a3" d="M 90.292969 210 L 212.96875 210 L 212.96875 452.558594 L 90.292969 452.558594 Z M 90.292969 210 " fill-opacity="1" fill-rule="nonzero"/></g></g><g clip-path="url(#b86c2ad231)"><g clip-path="url(#304d2cdfa1)"><path fill="#5489a3" d="M 90.292969 210 L 212.96875 210 L 212.96875 452.558594 L 90.292969 452.558594 Z M 90.292969 210 " fill-opacity="1" fill-rule="nonzero"/></g></g><g clip-path="url(#7400b00a59)"><g clip-path="url(#76157dc540)"><path fill="#5489a3" d="M 90.292969 210 L 212.96875 210 L 212.96875 452.558594 L 90.292969 452.558594 Z M 90.292969 210 " fill-opacity="1" fill-rule="nonzero"/></g></g><g clip-path="url(#20c39a5635)"><g clip-path="url(#2ee80fd940)"><path fill="#9bd3dd" d="M 90.292969 210 L 212.96875 210 L 212.96875 452.558594 L 90.292969 452.558594 Z M 90.292969 210 " fill-opacity="1" fill-rule="nonzero"/></g></g><g clip-path="url(#b673f6688d)"><g clip-path="url(#1cd7f9de3c)"><path fill="#01426a" d="M 90.292969 210 L 212.96875 210 L 212.96875 452.558594 L 90.292969 452.558594 Z M 90.292969 210 " fill-opacity="1" fill-rule="nonzero"/></g></g><g clip-path="url(#60099a6867)"><g clip-path="url(#75eaefa804)"><path fill="#01426a" d="M 90.292969 210 L 212.96875 210 L 212.96875 452.558594 L 90.292969 452.558594 Z M 90.292969 210 " fill-opacity="1" fill-rule="nonzero"/></g></g><g clip-path="url(#1171b54764)"><g clip-path="url(#e7d16c00be)"><path fill="#002b49" d="M 90.292969 210 L 212.96875 210 L 212.96875 452.558594 L 90.292969 452.558594 Z M 90.292969 210 " fill-opacity="1" fill-rule="nonzero"/></g></g><g clip-path="url(#a49b52973e)"><g clip-path="url(#f2166238e7)"><path fill="#002b49" d="M 109.730469 402.601562 L 126.996094 402.601562 L 126.996094 419.867188 L 109.730469 419.867188 Z M 109.730469 402.601562 " fill-opacity="1" fill-rule="nonzero"/></g></g><g clip-path="url(#abe650038e)"><g clip-path="url(#9ec4fcae38)"><path fill="#002b49" d="M 174.042969 237.960938 L 191.308594 237.960938 L 191.308594 255.226562 L 174.042969 255.226562 Z M 174.042969 237.960938 " fill-opacity="1" fill-rule="nonzero"/></g></g><g fill="#5389a3" fill-opacity="1"><g transform="translate(243.418496, 355.916442)"><g><path d="M 9.03125 -17.796875 C 8.03125 -17.796875 7.207031 -17.585938 6.5625 -17.171875 C 5.914062 -16.765625 5.59375 -16.144531 5.59375 -15.3125 C 5.59375 -14.476562 5.914062 -13.84375 6.5625 -13.40625 C 7.207031 -12.96875 8.578125 -12.492188 10.671875 -11.984375 C 12.773438 -11.484375 14.359375 -10.769531 15.421875 -9.84375 C 16.492188 -8.925781 17.03125 -7.570312 17.03125 -5.78125 C 17.03125 -4 16.351562 -2.550781 15 -1.4375 C 13.65625 -0.320312 11.890625 0.234375 9.703125 0.234375 C 6.492188 0.234375 3.648438 -0.867188 1.171875 -3.078125 L 3.34375 -5.6875 C 5.414062 -3.882812 7.566406 -2.984375 9.796875 -2.984375 C 10.910156 -2.984375 11.789062 -3.222656 12.4375 -3.703125 C 13.09375 -4.179688 13.421875 -4.816406 13.421875 -5.609375 C 13.421875 -6.398438 13.113281 -7.015625 12.5 -7.453125 C 11.882812 -7.898438 10.820312 -8.300781 9.3125 -8.65625 C 7.8125 -9.019531 6.671875 -9.351562 5.890625 -9.65625 C 5.109375 -9.957031 4.414062 -10.351562 3.8125 -10.84375 C 2.601562 -11.757812 2 -13.164062 2 -15.0625 C 2 -16.957031 2.6875 -18.414062 4.0625 -19.4375 C 5.4375 -20.46875 7.140625 -20.984375 9.171875 -20.984375 C 10.484375 -20.984375 11.785156 -20.769531 13.078125 -20.34375 C 14.367188 -19.914062 15.484375 -19.3125 16.421875 -18.53125 L 14.5625 -15.921875 C 13.957031 -16.460938 13.132812 -16.910156 12.09375 -17.265625 C 11.0625 -17.617188 10.039062 -17.796875 9.03125 -17.796875 Z M 9.03125 -17.796875 "/></g></g></g><g fill="#5389a3" fill-opacity="1"><g transform="translate(261.880792, 355.916442)"><g><path d="M 6.015625 -4.125 C 6.953125 -3.175781 8.132812 -2.703125 9.5625 -2.703125 C 10.988281 -2.703125 12.164062 -3.175781 13.09375 -4.125 C 14.019531 -5.070312 14.484375 -6.296875 14.484375 -7.796875 C 14.484375 -9.296875 14.019531 -10.519531 13.09375 -11.46875 C 12.164062 -12.414062 10.988281 -12.890625 9.5625 -12.890625 C 8.132812 -12.890625 6.953125 -12.414062 6.015625 -11.46875 C 5.085938 -10.519531 4.625 -9.296875 4.625 -7.796875 C 4.625 -6.296875 5.085938 -5.070312 6.015625 -4.125 Z M 15.421875 -2.09375 C 13.859375 -0.539062 11.898438 0.234375 9.546875 0.234375 C 7.203125 0.234375 5.25 -0.539062 3.6875 -2.09375 C 2.125 -3.644531 1.34375 -5.546875 1.34375 -7.796875 C 1.34375 -10.046875 2.125 -11.945312 3.6875 -13.5 C 5.25 -15.050781 7.203125 -15.828125 9.546875 -15.828125 C 11.898438 -15.828125 13.859375 -15.050781 15.421875 -13.5 C 16.984375 -11.945312 17.765625 -10.046875 17.765625 -7.796875 C 17.765625 -5.546875 16.984375 -3.644531 15.421875 -2.09375 Z M 15.421875 -2.09375 "/></g></g></g><g fill="#5389a3" fill-opacity="1"><g transform="translate(280.9878, 355.916442)"><g><path d="M 9.296875 0.234375 C 7.117188 0.234375 5.25 -0.5 3.6875 -1.96875 C 2.125 -3.445312 1.34375 -5.378906 1.34375 -7.765625 C 1.34375 -10.148438 2.160156 -12.085938 3.796875 -13.578125 C 5.429688 -15.078125 7.421875 -15.828125 9.765625 -15.828125 C 12.109375 -15.828125 14.09375 -15.015625 15.71875 -13.390625 L 13.78125 -11.015625 C 12.425781 -12.191406 11.066406 -12.78125 9.703125 -12.78125 C 8.335938 -12.78125 7.148438 -12.320312 6.140625 -11.40625 C 5.128906 -10.5 4.625 -9.328125 4.625 -7.890625 C 4.625 -6.460938 5.125 -5.25 6.125 -4.25 C 7.125 -3.25 8.347656 -2.75 9.796875 -2.75 C 11.253906 -2.75 12.628906 -3.414062 13.921875 -4.75 L 15.859375 -2.640625 C 13.960938 -0.722656 11.773438 0.234375 9.296875 0.234375 Z M 9.296875 0.234375 "/></g></g></g><g fill="#5389a3" fill-opacity="1"><g transform="translate(297.867613, 355.916442)"><g><path d="M 5.65625 0 L 2.375 0 L 2.375 -15.59375 L 5.65625 -15.59375 Z M 2.578125 -18.6875 C 2.171875 -19.101562 1.96875 -19.59375 1.96875 -20.15625 C 1.96875 -20.726562 2.171875 -21.21875 2.578125 -21.625 C 2.984375 -22.039062 3.46875 -22.25 4.03125 -22.25 C 4.601562 -22.25 5.09375 -22.039062 5.5 -21.625 C 5.914062 -21.21875 6.125 -20.726562 6.125 -20.15625 C 6.125 -19.59375 5.914062 -19.101562 5.5 -18.6875 C 5.09375 -18.28125 4.601562 -18.078125 4.03125 -18.078125 C 3.46875 -18.078125 2.984375 -18.28125 2.578125 -18.6875 Z M 2.578125 -18.6875 "/></g></g></g><g fill="#5389a3" fill-opacity="1"><g transform="translate(305.897246, 355.916442)"><g><path d="M 16.890625 -6.359375 L 4.65625 -6.359375 C 4.738281 -5.222656 5.257812 -4.304688 6.21875 -3.609375 C 7.175781 -2.921875 8.269531 -2.578125 9.5 -2.578125 C 11.445312 -2.578125 12.929688 -3.191406 13.953125 -4.421875 L 15.828125 -2.375 C 14.148438 -0.632812 11.960938 0.234375 9.265625 0.234375 C 7.078125 0.234375 5.210938 -0.492188 3.671875 -1.953125 C 2.140625 -3.410156 1.375 -5.363281 1.375 -7.8125 C 1.375 -10.257812 2.15625 -12.207031 3.71875 -13.65625 C 5.28125 -15.101562 7.117188 -15.828125 9.234375 -15.828125 C 11.359375 -15.828125 13.164062 -15.1875 14.65625 -13.90625 C 16.144531 -12.625 16.890625 -10.863281 16.890625 -8.625 Z M 4.65625 -8.9375 L 13.59375 -8.9375 C 13.59375 -10.25 13.179688 -11.253906 12.359375 -11.953125 C 11.546875 -12.660156 10.535156 -13.015625 9.328125 -13.015625 C 8.128906 -13.015625 7.050781 -12.644531 6.09375 -11.90625 C 5.132812 -11.175781 4.65625 -10.1875 4.65625 -8.9375 Z M 4.65625 -8.9375 "/></g></g></g><g fill="#5389a3" fill-opacity="1"><g transform="translate(324.007876, 355.916442)"><g><path d="M 8.734375 0.234375 C 6.765625 0.234375 5.046875 -0.503906 3.578125 -1.984375 C 2.109375 -3.472656 1.375 -5.425781 1.375 -7.84375 C 1.375 -10.269531 2.125 -12.207031 3.625 -13.65625 C 5.132812 -15.101562 6.929688 -15.828125 9.015625 -15.828125 C 11.097656 -15.828125 12.773438 -14.945312 14.046875 -13.1875 L 14.046875 -21.75 L 17.328125 -21.75 L 17.328125 0 L 14.046875 0 L 14.046875 -2.34375 C 12.828125 -0.625 11.054688 0.234375 8.734375 0.234375 Z M 4.65625 -7.71875 C 4.65625 -6.226562 5.132812 -5.015625 6.09375 -4.078125 C 7.050781 -3.140625 8.175781 -2.671875 9.46875 -2.671875 C 10.757812 -2.671875 11.851562 -3.144531 12.75 -4.09375 C 13.644531 -5.039062 14.09375 -6.253906 14.09375 -7.734375 C 14.09375 -9.222656 13.644531 -10.460938 12.75 -11.453125 C 11.851562 -12.453125 10.75 -12.953125 9.4375 -12.953125 C 8.125 -12.953125 7 -12.453125 6.0625 -11.453125 C 5.125 -10.460938 4.65625 -9.21875 4.65625 -7.71875 Z M 4.65625 -7.71875 "/></g></g></g><g fill="#5389a3" fill-opacity="1"><g transform="translate(343.700991, 355.916442)"><g><path d="M 15.015625 0 L 12.015625 0 L 12.015625 -2.078125 C 10.722656 -0.535156 8.992188 0.234375 6.828125 0.234375 C 5.203125 0.234375 3.859375 -0.222656 2.796875 -1.140625 C 1.734375 -2.054688 1.203125 -3.28125 1.203125 -4.8125 C 1.203125 -6.351562 1.769531 -7.503906 2.90625 -8.265625 C 4.039062 -9.023438 5.570312 -9.40625 7.5 -9.40625 L 11.75 -9.40625 L 11.75 -10 C 11.75 -12.070312 10.597656 -13.109375 8.296875 -13.109375 C 6.847656 -13.109375 5.34375 -12.578125 3.78125 -11.515625 L 2.3125 -13.578125 C 4.207031 -15.078125 6.359375 -15.828125 8.765625 -15.828125 C 10.597656 -15.828125 12.097656 -15.363281 13.265625 -14.4375 C 14.429688 -13.507812 15.015625 -12.046875 15.015625 -10.046875 Z M 11.71875 -5.796875 L 11.71875 -7.125 L 8.03125 -7.125 C 5.664062 -7.125 4.484375 -6.378906 4.484375 -4.890625 C 4.484375 -4.128906 4.773438 -3.546875 5.359375 -3.140625 C 5.953125 -2.742188 6.769531 -2.546875 7.8125 -2.546875 C 8.851562 -2.546875 9.765625 -2.835938 10.546875 -3.421875 C 11.328125 -4.015625 11.71875 -4.804688 11.71875 -5.796875 Z M 11.71875 -5.796875 "/></g></g></g><g fill="#5389a3" fill-opacity="1"><g transform="translate(360.903159, 355.916442)"><g><path d="M 8.734375 0.234375 C 6.765625 0.234375 5.046875 -0.503906 3.578125 -1.984375 C 2.109375 -3.472656 1.375 -5.425781 1.375 -7.84375 C 1.375 -10.269531 2.125 -12.207031 3.625 -13.65625 C 5.132812 -15.101562 6.929688 -15.828125 9.015625 -15.828125 C 11.097656 -15.828125 12.773438 -14.945312 14.046875 -13.1875 L 14.046875 -21.75 L 17.328125 -21.75 L 17.328125 0 L 14.046875 0 L 14.046875 -2.34375 C 12.828125 -0.625 11.054688 0.234375 8.734375 0.234375 Z M 4.65625 -7.71875 C 4.65625 -6.226562 5.132812 -5.015625 6.09375 -4.078125 C 7.050781 -3.140625 8.175781 -2.671875 9.46875 -2.671875 C 10.757812 -2.671875 11.851562 -3.144531 12.75 -4.09375 C 13.644531 -5.039062 14.09375 -6.253906 14.09375 -7.734375 C 14.09375 -9.222656 13.644531 -10.460938 12.75 -11.453125 C 11.851562 -12.453125 10.75 -12.953125 9.4375 -12.953125 C 8.125 -12.953125 7 -12.453125 6.0625 -11.453125 C 5.125 -10.460938 4.65625 -9.21875 4.65625 -7.71875 Z M 4.65625 -7.71875 "/></g></g></g><g fill="#5389a3" fill-opacity="1"><g transform="translate(380.596282, 355.916442)"><g/></g></g><g fill="#5389a3" fill-opacity="1"><g transform="translate(388.625911, 355.916442)"><g><path d="M 6.296875 0 L 2.84375 0 L 2.84375 -20.484375 L 8.234375 -20.484375 L 14.421875 -7.625 L 20.609375 -20.484375 L 25.96875 -20.484375 L 25.96875 0 L 22.515625 0 L 22.515625 -16 L 15.359375 -1.78125 L 13.421875 -1.78125 L 6.296875 -16 Z M 6.296875 0 "/></g></g></g><g fill="#5389a3" fill-opacity="1"><g transform="translate(417.432954, 355.916442)"><g><path d="M 16.890625 -6.359375 L 4.65625 -6.359375 C 4.738281 -5.222656 5.257812 -4.304688 6.21875 -3.609375 C 7.175781 -2.921875 8.269531 -2.578125 9.5 -2.578125 C 11.445312 -2.578125 12.929688 -3.191406 13.953125 -4.421875 L 15.828125 -2.375 C 14.148438 -0.632812 11.960938 0.234375 9.265625 0.234375 C 7.078125 0.234375 5.210938 -0.492188 3.671875 -1.953125 C 2.140625 -3.410156 1.375 -5.363281 1.375 -7.8125 C 1.375 -10.257812 2.15625 -12.207031 3.71875 -13.65625 C 5.28125 -15.101562 7.117188 -15.828125 9.234375 -15.828125 C 11.359375 -15.828125 13.164062 -15.1875 14.65625 -13.90625 C 16.144531 -12.625 16.890625 -10.863281 16.890625 -8.625 Z M 4.65625 -8.9375 L 13.59375 -8.9375 C 13.59375 -10.25 13.179688 -11.253906 12.359375 -11.953125 C 11.546875 -12.660156 10.535156 -13.015625 9.328125 -13.015625 C 8.128906 -13.015625 7.050781 -12.644531 6.09375 -11.90625 C 5.132812 -11.175781 4.65625 -10.1875 4.65625 -8.9375 Z M 4.65625 -8.9375 "/></g></g></g><g fill="#5389a3" fill-opacity="1"><g transform="translate(435.543588, 355.916442)"><g><path d="M 4.859375 -15.59375 L 8.203125 -10.46875 L 11.671875 -15.59375 L 15.5625 -15.59375 L 10.109375 -7.96875 L 15.796875 0 L 11.75 0 L 8.03125 -5.1875 L 4.390625 0 L 0.5625 0 L 6.09375 -7.9375 L 0.84375 -15.59375 Z M 4.859375 -15.59375 "/></g></g></g><g fill="#5389a3" fill-opacity="1"><g transform="translate(451.895909, 355.916442)"><g><path d="M 5.65625 0 L 2.375 0 L 2.375 -15.59375 L 5.65625 -15.59375 Z M 2.578125 -18.6875 C 2.171875 -19.101562 1.96875 -19.59375 1.96875 -20.15625 C 1.96875 -20.726562 2.171875 -21.21875 2.578125 -21.625 C 2.984375 -22.039062 3.46875 -22.25 4.03125 -22.25 C 4.601562 -22.25 5.09375 -22.039062 5.5 -21.625 C 5.914062 -21.21875 6.125 -20.726562 6.125 -20.15625 C 6.125 -19.59375 5.914062 -19.101562 5.5 -18.6875 C 5.09375 -18.28125 4.601562 -18.078125 4.03125 -18.078125 C 3.46875 -18.078125 2.984375 -18.28125 2.578125 -18.6875 Z M 2.578125 -18.6875 "/></g></g></g><g fill="#5389a3" fill-opacity="1"><g transform="translate(459.925539, 355.916442)"><g><path d="M 9.296875 0.234375 C 7.117188 0.234375 5.25 -0.5 3.6875 -1.96875 C 2.125 -3.445312 1.34375 -5.378906 1.34375 -7.765625 C 1.34375 -10.148438 2.160156 -12.085938 3.796875 -13.578125 C 5.429688 -15.078125 7.421875 -15.828125 9.765625 -15.828125 C 12.109375 -15.828125 14.09375 -15.015625 15.71875 -13.390625 L 13.78125 -11.015625 C 12.425781 -12.191406 11.066406 -12.78125 9.703125 -12.78125 C 8.335938 -12.78125 7.148438 -12.320312 6.140625 -11.40625 C 5.128906 -10.5 4.625 -9.328125 4.625 -7.890625 C 4.625 -6.460938 5.125 -5.25 6.125 -4.25 C 7.125 -3.25 8.347656 -2.75 9.796875 -2.75 C 11.253906 -2.75 12.628906 -3.414062 13.921875 -4.75 L 15.859375 -2.640625 C 13.960938 -0.722656 11.773438 0.234375 9.296875 0.234375 Z M 9.296875 0.234375 "/></g></g></g><g fill="#5389a3" fill-opacity="1"><g transform="translate(476.805351, 355.916442)"><g><path d="M 15.015625 0 L 12.015625 0 L 12.015625 -2.078125 C 10.722656 -0.535156 8.992188 0.234375 6.828125 0.234375 C 5.203125 0.234375 3.859375 -0.222656 2.796875 -1.140625 C 1.734375 -2.054688 1.203125 -3.28125 1.203125 -4.8125 C 1.203125 -6.351562 1.769531 -7.503906 2.90625 -8.265625 C 4.039062 -9.023438 5.570312 -9.40625 7.5 -9.40625 L 11.75 -9.40625 L 11.75 -10 C 11.75 -12.070312 10.597656 -13.109375 8.296875 -13.109375 C 6.847656 -13.109375 5.34375 -12.578125 3.78125 -11.515625 L 2.3125 -13.578125 C 4.207031 -15.078125 6.359375 -15.828125 8.765625 -15.828125 C 10.597656 -15.828125 12.097656 -15.363281 13.265625 -14.4375 C 14.429688 -13.507812 15.015625 -12.046875 15.015625 -10.046875 Z M 11.71875 -5.796875 L 11.71875 -7.125 L 8.03125 -7.125 C 5.664062 -7.125 4.484375 -6.378906 4.484375 -4.890625 C 4.484375 -4.128906 4.773438 -3.546875 5.359375 -3.140625 C 5.953125 -2.742188 6.769531 -2.546875 7.8125 -2.546875 C 8.851562 -2.546875 9.765625 -2.835938 10.546875 -3.421875 C 11.328125 -4.015625 11.71875 -4.804688 11.71875 -5.796875 Z M 11.71875 -5.796875 "/></g></g></g><g fill="#5389a3" fill-opacity="1"><g transform="translate(494.00752, 355.916442)"><g><path d="M 5.65625 -8.4375 L 5.65625 0 L 2.375 0 L 2.375 -15.59375 L 5.65625 -15.59375 L 5.65625 -12.75 C 6.1875 -13.707031 6.914062 -14.457031 7.84375 -15 C 8.769531 -15.550781 9.769531 -15.828125 10.84375 -15.828125 C 12.601562 -15.828125 14.023438 -15.289062 15.109375 -14.21875 C 16.191406 -13.144531 16.734375 -11.59375 16.734375 -9.5625 L 16.734375 0 L 13.453125 0 L 13.453125 -8.5625 C 13.453125 -11.4375 12.257812 -12.875 9.875 -12.875 C 8.738281 -12.875 7.75 -12.492188 6.90625 -11.734375 C 6.070312 -10.984375 5.65625 -9.882812 5.65625 -8.4375 Z M 5.65625 -8.4375 "/></g></g></g><g fill="#5389a3" fill-opacity="1"><g transform="translate(512.938691, 355.916442)"><g><path d="M 15.015625 0 L 12.015625 0 L 12.015625 -2.078125 C 10.722656 -0.535156 8.992188 0.234375 6.828125 0.234375 C 5.203125 0.234375 3.859375 -0.222656 2.796875 -1.140625 C 1.734375 -2.054688 1.203125 -3.28125 1.203125 -4.8125 C 1.203125 -6.351562 1.769531 -7.503906 2.90625 -8.265625 C 4.039062 -9.023438 5.570312 -9.40625 7.5 -9.40625 L 11.75 -9.40625 L 11.75 -10 C 11.75 -12.070312 10.597656 -13.109375 8.296875 -13.109375 C 6.847656 -13.109375 5.34375 -12.578125 3.78125 -11.515625 L 2.3125 -13.578125 C 4.207031 -15.078125 6.359375 -15.828125 8.765625 -15.828125 C 10.597656 -15.828125 12.097656 -15.363281 13.265625 -14.4375 C 14.429688 -13.507812 15.015625 -12.046875 15.015625 -10.046875 Z M 11.71875 -5.796875 L 11.71875 -7.125 L 8.03125 -7.125 C 5.664062 -7.125 4.484375 -6.378906 4.484375 -4.890625 C 4.484375 -4.128906 4.773438 -3.546875 5.359375 -3.140625 C 5.953125 -2.742188 6.769531 -2.546875 7.8125 -2.546875 C 8.851562 -2.546875 9.765625 -2.835938 10.546875 -3.421875 C 11.328125 -4.015625 11.71875 -4.804688 11.71875 -5.796875 Z M 11.71875 -5.796875 "/></g></g></g><g fill="#5389a3" fill-opacity="1"><g transform="translate(530.140844, 355.916442)"><g/></g></g><g fill="#5389a3" fill-opacity="1"><g transform="translate(538.170489, 355.916442)"><g><path d="M 8.734375 0.234375 C 6.765625 0.234375 5.046875 -0.503906 3.578125 -1.984375 C 2.109375 -3.472656 1.375 -5.425781 1.375 -7.84375 C 1.375 -10.269531 2.125 -12.207031 3.625 -13.65625 C 5.132812 -15.101562 6.929688 -15.828125 9.015625 -15.828125 C 11.097656 -15.828125 12.773438 -14.945312 14.046875 -13.1875 L 14.046875 -21.75 L 17.328125 -21.75 L 17.328125 0 L 14.046875 0 L 14.046875 -2.34375 C 12.828125 -0.625 11.054688 0.234375 8.734375 0.234375 Z M 4.65625 -7.71875 C 4.65625 -6.226562 5.132812 -5.015625 6.09375 -4.078125 C 7.050781 -3.140625 8.175781 -2.671875 9.46875 -2.671875 C 10.757812 -2.671875 11.851562 -3.144531 12.75 -4.09375 C 13.644531 -5.039062 14.09375 -6.253906 14.09375 -7.734375 C 14.09375 -9.222656 13.644531 -10.460938 12.75 -11.453125 C 11.851562 -12.453125 10.75 -12.953125 9.4375 -12.953125 C 8.125 -12.953125 7 -12.453125 6.0625 -11.453125 C 5.125 -10.460938 4.65625 -9.21875 4.65625 -7.71875 Z M 4.65625 -7.71875 "/></g></g></g><g fill="#5389a3" fill-opacity="1"><g transform="translate(557.863612, 355.916442)"><g><path d="M 16.890625 -6.359375 L 4.65625 -6.359375 C 4.738281 -5.222656 5.257812 -4.304688 6.21875 -3.609375 C 7.175781 -2.921875 8.269531 -2.578125 9.5 -2.578125 C 11.445312 -2.578125 12.929688 -3.191406 13.953125 -4.421875 L 15.828125 -2.375 C 14.148438 -0.632812 11.960938 0.234375 9.265625 0.234375 C 7.078125 0.234375 5.210938 -0.492188 3.671875 -1.953125 C 2.140625 -3.410156 1.375 -5.363281 1.375 -7.8125 C 1.375 -10.257812 2.15625 -12.207031 3.71875 -13.65625 C 5.28125 -15.101562 7.117188 -15.828125 9.234375 -15.828125 C 11.359375 -15.828125 13.164062 -15.1875 14.65625 -13.90625 C 16.144531 -12.625 16.890625 -10.863281 16.890625 -8.625 Z M 4.65625 -8.9375 L 13.59375 -8.9375 C 13.59375 -10.25 13.179688 -11.253906 12.359375 -11.953125 C 11.546875 -12.660156 10.535156 -13.015625 9.328125 -13.015625 C 8.128906 -13.015625 7.050781 -12.644531 6.09375 -11.90625 C 5.132812 -11.175781 4.65625 -10.1875 4.65625 -8.9375 Z M 4.65625 -8.9375 "/></g></g></g><g fill="#5389a3" fill-opacity="1"><g transform="translate(575.973762, 355.916442)"><g/></g></g><g fill="#01426a" fill-opacity="1"><g transform="translate(243.418496, 318.667039)"><g><path d="M 15.390625 -5.21875 C 18.296875 -5.21875 20.664062 -6.363281 22.5 -8.65625 L 26.296875 -4.765625 C 23.285156 -1.390625 19.742188 0.296875 15.671875 0.296875 C 11.609375 0.296875 8.257812 -0.988281 5.625 -3.5625 C 2.988281 -6.132812 1.671875 -9.378906 1.671875 -13.296875 C 1.671875 -17.210938 3.007812 -20.484375 5.6875 -23.109375 C 8.375 -25.734375 11.660156 -27.046875 15.546875 -27.046875 C 19.878906 -27.046875 23.507812 -25.394531 26.4375 -22.09375 L 22.765625 -17.9375 C 20.898438 -20.25 18.582031 -21.40625 15.8125 -21.40625 C 13.59375 -21.40625 11.691406 -20.679688 10.109375 -19.234375 C 8.535156 -17.785156 7.75 -15.832031 7.75 -13.375 C 7.75 -10.914062 8.492188 -8.941406 9.984375 -7.453125 C 11.472656 -5.960938 13.273438 -5.21875 15.390625 -5.21875 Z M 15.390625 -5.21875 "/></g></g></g><g fill="#01426a" fill-opacity="1"><g transform="translate(271.104183, 318.667039)"><g><path d="M 22.09375 0 L 19.640625 -5.71875 L 8.546875 -5.71875 L 6.09375 0 L -0.1875 0 L 11.234375 -26.4375 L 16.953125 -26.4375 L 28.375 0 Z M 14.109375 -18.578125 L 10.78125 -10.890625 L 17.40625 -10.890625 Z M 14.109375 -18.578125 "/></g></g></g><g fill="#01426a" fill-opacity="1"><g transform="translate(299.281557, 318.667039)"><g><path d="M 12.59375 -26.4375 C 16.65625 -26.4375 19.613281 -25.648438 21.46875 -24.078125 C 23.320312 -22.503906 24.25 -20.082031 24.25 -16.8125 C 24.25 -13.550781 23.296875 -11.160156 21.390625 -9.640625 C 19.484375 -8.128906 16.578125 -7.375 12.671875 -7.375 L 9.15625 -7.375 L 9.15625 0 L 3.25 0 L 3.25 -26.4375 Z M 13.125 -12.484375 C 15.09375 -12.484375 16.429688 -12.878906 17.140625 -13.671875 C 17.847656 -14.460938 18.203125 -15.617188 18.203125 -17.140625 C 18.203125 -18.671875 17.738281 -19.757812 16.8125 -20.40625 C 15.894531 -21.050781 14.460938 -21.375 12.515625 -21.375 L 9.15625 -21.375 L 9.15625 -12.484375 Z M 13.125 -12.484375 "/></g></g></g><g fill="#01426a" fill-opacity="1"><g transform="translate(324.887036, 318.667039)"><g><path d="M 3.25 -26.4375 L 9.15625 -26.4375 L 9.15625 0 L 3.25 0 Z M 8.921875 -29.171875 L 3.515625 -29.171875 L 8.328125 -35.859375 L 14.1875 -33.40625 Z M 8.921875 -29.171875 "/></g></g></g><g fill="#01426a" fill-opacity="1"><g transform="translate(337.292641, 318.667039)"><g><path d="M 14.453125 -21.328125 L 14.453125 0 L 8.546875 0 L 8.546875 -21.328125 L 1.0625 -21.328125 L 1.0625 -26.4375 L 21.9375 -26.4375 L 21.9375 -21.328125 Z M 14.453125 -21.328125 "/></g></g></g><g fill="#01426a" fill-opacity="1"><g transform="translate(360.288407, 318.667039)"><g><path d="M 10.25 -6.828125 C 11.238281 -5.609375 12.5625 -5 14.21875 -5 C 15.882812 -5 17.203125 -5.609375 18.171875 -6.828125 C 19.148438 -8.046875 19.640625 -9.71875 19.640625 -11.84375 L 19.640625 -26.4375 L 25.53125 -26.4375 L 25.53125 -11.65625 C 25.53125 -7.820312 24.46875 -4.875 22.34375 -2.8125 C 20.226562 -0.757812 17.519531 0.265625 14.21875 0.265625 C 10.914062 0.265625 8.195312 -0.765625 6.0625 -2.828125 C 3.9375 -4.898438 2.875 -7.84375 2.875 -11.65625 L 2.875 -26.4375 L 8.78125 -26.4375 L 8.78125 -11.84375 C 8.78125 -9.71875 9.269531 -8.046875 10.25 -6.828125 Z M 10.25 -6.828125 "/></g></g></g><g fill="#01426a" fill-opacity="1"><g transform="translate(388.692714, 318.667039)"><g><path d="M 3.25 0 L 3.25 -26.4375 L 9.15625 -26.4375 L 9.15625 -5.265625 L 20.421875 -5.265625 L 20.421875 0 Z M 3.25 0 "/></g></g></g><g fill="#01426a" fill-opacity="1"><g transform="translate(410.175602, 318.667039)"><g><path d="M 23.484375 -13.359375 C 23.484375 -15.722656 22.726562 -17.738281 21.21875 -19.40625 C 19.707031 -21.070312 17.847656 -21.90625 15.640625 -21.90625 C 13.429688 -21.90625 11.570312 -21.070312 10.0625 -19.40625 C 8.550781 -17.738281 7.796875 -15.722656 7.796875 -13.359375 C 7.796875 -11.003906 8.550781 -9 10.0625 -7.34375 C 11.570312 -5.695312 13.429688 -4.875 15.640625 -4.875 C 17.847656 -4.875 19.707031 -5.695312 21.21875 -7.34375 C 22.726562 -9 23.484375 -11.003906 23.484375 -13.359375 Z M 25.484375 -3.640625 C 22.816406 -1.035156 19.53125 0.265625 15.625 0.265625 C 11.71875 0.265625 8.425781 -1.035156 5.75 -3.640625 C 3.070312 -6.253906 1.734375 -9.503906 1.734375 -13.390625 C 1.734375 -17.273438 3.070312 -20.519531 5.75 -23.125 C 8.425781 -25.738281 11.71875 -27.046875 15.625 -27.046875 C 19.53125 -27.046875 22.816406 -25.738281 25.484375 -23.125 C 28.160156 -20.519531 29.5 -17.273438 29.5 -13.390625 C 29.5 -9.503906 28.160156 -6.253906 25.484375 -3.640625 Z M 25.484375 -3.640625 "/></g></g></g><g fill="#01426a" fill-opacity="1"><g transform="translate(441.416563, 318.667039)"><g/></g></g><g fill="#01426a" fill-opacity="1"><g transform="translate(451.401558, 318.667039)"><g><path d="M 21.75 -26.4375 L 27.65625 -26.4375 L 27.65625 0 L 21.75 0 L 9.15625 -16.5625 L 9.15625 0 L 3.25 0 L 3.25 -26.4375 L 8.78125 -26.4375 L 21.75 -9.421875 Z M 21.75 -26.4375 "/></g></g></g><g fill="#01426a" fill-opacity="1"><g transform="translate(482.302121, 318.667039)"><g><path d="M 23.484375 -13.359375 C 23.484375 -15.722656 22.726562 -17.738281 21.21875 -19.40625 C 19.707031 -21.070312 17.847656 -21.90625 15.640625 -21.90625 C 13.429688 -21.90625 11.570312 -21.070312 10.0625 -19.40625 C 8.550781 -17.738281 7.796875 -15.722656 7.796875 -13.359375 C 7.796875 -11.003906 8.550781 -9 10.0625 -7.34375 C 11.570312 -5.695312 13.429688 -4.875 15.640625 -4.875 C 17.847656 -4.875 19.707031 -5.695312 21.21875 -7.34375 C 22.726562 -9 23.484375 -11.003906 23.484375 -13.359375 Z M 25.484375 -3.640625 C 22.816406 -1.035156 19.53125 0.265625 15.625 0.265625 C 11.71875 0.265625 8.425781 -1.035156 5.75 -3.640625 C 3.070312 -6.253906 1.734375 -9.503906 1.734375 -13.390625 C 1.734375 -17.273438 3.070312 -20.519531 5.75 -23.125 C 8.425781 -25.738281 11.71875 -27.046875 15.625 -27.046875 C 19.53125 -27.046875 22.816406 -25.738281 25.484375 -23.125 C 28.160156 -20.519531 29.5 -17.273438 29.5 -13.390625 C 29.5 -9.503906 28.160156 -6.253906 25.484375 -3.640625 Z M 25.484375 -3.640625 "/></g></g></g><g fill="#01426a" fill-opacity="1"><g transform="translate(513.543068, 318.667039)"><g><path d="M 24.703125 -17.671875 C 24.703125 -13.429688 23.023438 -10.691406 19.671875 -9.453125 L 26.359375 0 L 19.109375 0 L 13.234375 -8.4375 L 9.15625 -8.4375 L 9.15625 0 L 3.25 0 L 3.25 -26.4375 L 13.28125 -26.4375 C 17.382812 -26.4375 20.3125 -25.742188 22.0625 -24.359375 C 23.820312 -22.972656 24.703125 -20.742188 24.703125 -17.671875 Z M 13.46875 -13.546875 C 15.488281 -13.546875 16.863281 -13.875 17.59375 -14.53125 C 18.320312 -15.1875 18.6875 -16.222656 18.6875 -17.640625 C 18.6875 -19.066406 18.304688 -20.046875 17.546875 -20.578125 C 16.796875 -21.109375 15.472656 -21.375 13.578125 -21.375 L 9.15625 -21.375 L 9.15625 -13.546875 Z M 13.46875 -13.546875 "/></g></g></g><g fill="#01426a" fill-opacity="1"><g transform="translate(541.039648, 318.667039)"><g><path d="M 22.3125 -26.4375 L 22.3125 -21.1875 L 9.15625 -21.1875 L 9.15625 -15.734375 L 21 -15.734375 L 21 -10.703125 L 9.15625 -10.703125 L 9.15625 -5.21875 L 22.734375 -5.21875 L 22.734375 0 L 3.25 0 L 3.25 -26.4375 Z M 22.3125 -26.4375 "/></g></g></g><g fill="#01426a" fill-opacity="1"><g transform="translate(565.775213, 318.667039)"><g><path d="M 11.765625 -21.859375 C 10.785156 -21.859375 10.007812 -21.625 9.4375 -21.15625 C 8.875 -20.695312 8.59375 -20.082031 8.59375 -19.3125 C 8.59375 -18.539062 8.9375 -17.925781 9.625 -17.46875 C 10.320312 -17.019531 11.925781 -16.484375 14.4375 -15.859375 C 16.945312 -15.242188 18.894531 -14.316406 20.28125 -13.078125 C 21.664062 -11.847656 22.359375 -10.046875 22.359375 -7.671875 C 22.359375 -5.304688 21.46875 -3.382812 19.6875 -1.90625 C 17.90625 -0.4375 15.566406 0.296875 12.671875 0.296875 C 8.484375 0.296875 4.710938 -1.25 1.359375 -4.34375 L 4.875 -8.65625 C 7.726562 -6.164062 10.363281 -4.921875 12.78125 -4.921875 C 13.863281 -4.921875 14.710938 -5.148438 15.328125 -5.609375 C 15.953125 -6.078125 16.265625 -6.707031 16.265625 -7.5 C 16.265625 -8.300781 15.9375 -8.929688 15.28125 -9.390625 C 14.625 -9.859375 13.328125 -10.332031 11.390625 -10.8125 C 8.304688 -11.550781 6.050781 -12.503906 4.625 -13.671875 C 3.207031 -14.847656 2.5 -16.691406 2.5 -19.203125 C 2.5 -21.710938 3.398438 -23.644531 5.203125 -25 C 7.003906 -26.363281 9.253906 -27.046875 11.953125 -27.046875 C 13.722656 -27.046875 15.488281 -26.742188 17.25 -26.140625 C 19.007812 -25.535156 20.546875 -24.675781 21.859375 -23.5625 L 18.875 -19.25 C 16.582031 -20.988281 14.210938 -21.859375 11.765625 -21.859375 Z M 11.765625 -21.859375 "/></g></g></g><g fill="#01426a" fill-opacity="1"><g transform="translate(589.905642, 318.667039)"><g><path d="M 14.453125 -21.328125 L 14.453125 0 L 8.546875 0 L 8.546875 -21.328125 L 1.0625 -21.328125 L 1.0625 -26.4375 L 21.9375 -26.4375 L 21.9375 -21.328125 Z M 14.453125 -21.328125 "/></g></g></g><g fill="#01426a" fill-opacity="1"><g transform="translate(612.9014, 318.667039)"><g><path d="M 22.3125 -26.4375 L 22.3125 -21.1875 L 9.15625 -21.1875 L 9.15625 -15.734375 L 21 -15.734375 L 21 -10.703125 L 9.15625 -10.703125 L 9.15625 -5.21875 L 22.734375 -5.21875 L 22.734375 0 L 3.25 0 L 3.25 -26.4375 Z M 22.3125 -26.4375 "/></g></g></g><g fill="#5389a3" fill-opacity="1"><g transform="translate(243.418496, 390.844497)"><g><path d="M 18.203125 -20.484375 L 21.65625 -20.484375 L 21.65625 0 L 17.90625 0 L 6.296875 -14.953125 L 6.296875 0 L 2.84375 0 L 2.84375 -20.484375 L 6.296875 -20.484375 L 18.203125 -5.1875 Z M 18.203125 -20.484375 "/></g></g></g><g fill="#5389a3" fill-opacity="1"><g transform="translate(267.917668, 390.844497)"><g><path d="M 13.28125 -7.15625 L 13.28125 -15.59375 L 16.5625 -15.59375 L 16.5625 0 L 13.28125 0 L 13.28125 -2.84375 C 12.75 -1.882812 12.019531 -1.128906 11.09375 -0.578125 C 10.164062 -0.0351562 9.164062 0.234375 8.09375 0.234375 C 6.332031 0.234375 4.910156 -0.300781 3.828125 -1.375 C 2.742188 -2.445312 2.203125 -4 2.203125 -6.03125 L 2.203125 -15.59375 L 5.484375 -15.59375 L 5.484375 -7.03125 C 5.484375 -4.15625 6.675781 -2.71875 9.0625 -2.71875 C 10.1875 -2.71875 11.171875 -3.09375 12.015625 -3.84375 C 12.859375 -4.601562 13.28125 -5.707031 13.28125 -7.15625 Z M 13.28125 -7.15625 "/></g></g></g><g fill="#5389a3" fill-opacity="1"><g transform="translate(286.848848, 390.844497)"><g><path d="M 6.421875 -12.953125 L 6.421875 -5.046875 C 6.421875 -4.296875 6.613281 -3.703125 7 -3.265625 C 7.394531 -2.828125 7.941406 -2.609375 8.640625 -2.609375 C 9.347656 -2.609375 10.023438 -2.953125 10.671875 -3.640625 L 12.015625 -1.3125 C 10.859375 -0.28125 9.582031 0.234375 8.1875 0.234375 C 6.789062 0.234375 5.597656 -0.25 4.609375 -1.21875 C 3.628906 -2.1875 3.140625 -3.488281 3.140625 -5.125 L 3.140625 -12.953125 L 1.171875 -12.953125 L 1.171875 -15.59375 L 3.140625 -15.59375 L 3.140625 -20.484375 L 6.421875 -20.484375 L 6.421875 -15.59375 L 10.515625 -15.59375 L 10.515625 -12.953125 Z M 6.421875 -12.953125 "/></g></g></g><g fill="#5389a3" fill-opacity="1"><g transform="translate(299.098435, 390.844497)"><g><path d="M 10.546875 -12.515625 C 8.929688 -12.515625 7.710938 -11.984375 6.890625 -10.921875 C 6.066406 -9.867188 5.65625 -8.457031 5.65625 -6.6875 L 5.65625 0 L 2.375 0 L 2.375 -15.59375 L 5.65625 -15.59375 L 5.65625 -12.453125 C 6.1875 -13.429688 6.90625 -14.234375 7.8125 -14.859375 C 8.71875 -15.484375 9.679688 -15.804688 10.703125 -15.828125 L 10.734375 -12.515625 C 10.671875 -12.515625 10.609375 -12.515625 10.546875 -12.515625 Z M 10.546875 -12.515625 "/></g></g></g><g fill="#5389a3" fill-opacity="1"><g transform="translate(310.73261, 390.844497)"><g><path d="M 5.65625 0 L 2.375 0 L 2.375 -15.59375 L 5.65625 -15.59375 Z M 2.578125 -18.6875 C 2.171875 -19.101562 1.96875 -19.59375 1.96875 -20.15625 C 1.96875 -20.726562 2.171875 -21.21875 2.578125 -21.625 C 2.984375 -22.039062 3.46875 -22.25 4.03125 -22.25 C 4.601562 -22.25 5.09375 -22.039062 5.5 -21.625 C 5.914062 -21.21875 6.125 -20.726562 6.125 -20.15625 C 6.125 -19.59375 5.914062 -19.101562 5.5 -18.6875 C 5.09375 -18.28125 4.601562 -18.078125 4.03125 -18.078125 C 3.46875 -18.078125 2.984375 -18.28125 2.578125 -18.6875 Z M 2.578125 -18.6875 "/></g></g></g><g fill="#5389a3" fill-opacity="1"><g transform="translate(318.76224, 390.844497)"><g><path d="M 9.296875 0.234375 C 7.117188 0.234375 5.25 -0.5 3.6875 -1.96875 C 2.125 -3.445312 1.34375 -5.378906 1.34375 -7.765625 C 1.34375 -10.148438 2.160156 -12.085938 3.796875 -13.578125 C 5.429688 -15.078125 7.421875 -15.828125 9.765625 -15.828125 C 12.109375 -15.828125 14.09375 -15.015625 15.71875 -13.390625 L 13.78125 -11.015625 C 12.425781 -12.191406 11.066406 -12.78125 9.703125 -12.78125 C 8.335938 -12.78125 7.148438 -12.320312 6.140625 -11.40625 C 5.128906 -10.5 4.625 -9.328125 4.625 -7.890625 C 4.625 -6.460938 5.125 -5.25 6.125 -4.25 C 7.125 -3.25 8.347656 -2.75 9.796875 -2.75 C 11.253906 -2.75 12.628906 -3.414062 13.921875 -4.75 L 15.859375 -2.640625 C 13.960938 -0.722656 11.773438 0.234375 9.296875 0.234375 Z M 9.296875 0.234375 "/></g></g></g><g fill="#5389a3" fill-opacity="1"><g transform="translate(335.642052, 390.844497)"><g><path d="M 5.65625 0 L 2.375 0 L 2.375 -15.59375 L 5.65625 -15.59375 Z M 2.578125 -18.6875 C 2.171875 -19.101562 1.96875 -19.59375 1.96875 -20.15625 C 1.96875 -20.726562 2.171875 -21.21875 2.578125 -21.625 C 2.984375 -22.039062 3.46875 -22.25 4.03125 -22.25 C 4.601562 -22.25 5.09375 -22.039062 5.5 -21.625 C 5.914062 -21.21875 6.125 -20.726562 6.125 -20.15625 C 6.125 -19.59375 5.914062 -19.101562 5.5 -18.6875 C 5.09375 -18.28125 4.601562 -18.078125 4.03125 -18.078125 C 3.46875 -18.078125 2.984375 -18.28125 2.578125 -18.6875 Z M 2.578125 -18.6875 "/></g></g></g><g fill="#5389a3" fill-opacity="1"><g transform="translate(343.671681, 390.844497)"><g><path d="M 6.015625 -4.125 C 6.953125 -3.175781 8.132812 -2.703125 9.5625 -2.703125 C 10.988281 -2.703125 12.164062 -3.175781 13.09375 -4.125 C 14.019531 -5.070312 14.484375 -6.296875 14.484375 -7.796875 C 14.484375 -9.296875 14.019531 -10.519531 13.09375 -11.46875 C 12.164062 -12.414062 10.988281 -12.890625 9.5625 -12.890625 C 8.132812 -12.890625 6.953125 -12.414062 6.015625 -11.46875 C 5.085938 -10.519531 4.625 -9.296875 4.625 -7.796875 C 4.625 -6.296875 5.085938 -5.070312 6.015625 -4.125 Z M 15.421875 -2.09375 C 13.859375 -0.539062 11.898438 0.234375 9.546875 0.234375 C 7.203125 0.234375 5.25 -0.539062 3.6875 -2.09375 C 2.125 -3.644531 1.34375 -5.546875 1.34375 -7.796875 C 1.34375 -10.046875 2.125 -11.945312 3.6875 -13.5 C 5.25 -15.050781 7.203125 -15.828125 9.546875 -15.828125 C 11.898438 -15.828125 13.859375 -15.050781 15.421875 -13.5 C 16.984375 -11.945312 17.765625 -10.046875 17.765625 -7.796875 C 17.765625 -5.546875 16.984375 -3.644531 15.421875 -2.09375 Z M 11.046875 -17.59375 L 8.0625 -17.59375 L 11.171875 -21.84375 L 14.625 -20.40625 Z M 11.046875 -17.59375 "/></g></g></g><g fill="#5389a3" fill-opacity="1"><g transform="translate(362.778694, 390.844497)"><g><path d="M 5.65625 -8.4375 L 5.65625 0 L 2.375 0 L 2.375 -15.59375 L 5.65625 -15.59375 L 5.65625 -12.75 C 6.1875 -13.707031 6.914062 -14.457031 7.84375 -15 C 8.769531 -15.550781 9.769531 -15.828125 10.84375 -15.828125 C 12.601562 -15.828125 14.023438 -15.289062 15.109375 -14.21875 C 16.191406 -13.144531 16.734375 -11.59375 16.734375 -9.5625 L 16.734375 0 L 13.453125 0 L 13.453125 -8.5625 C 13.453125 -11.4375 12.257812 -12.875 9.875 -12.875 C 8.738281 -12.875 7.75 -12.492188 6.90625 -11.734375 C 6.070312 -10.984375 5.65625 -9.882812 5.65625 -8.4375 Z M 5.65625 -8.4375 "/></g></g></g><g fill="#5389a3" fill-opacity="1"><g transform="translate(381.709882, 390.844497)"><g/></g></g><g fill="#5389a3" fill-opacity="1"><g transform="translate(389.739511, 390.844497)"><g><path d="M 4.34375 6.21875 C 2.914062 6.21875 1.625 5.695312 0.46875 4.65625 L 1.96875 2 C 2.644531 2.632812 3.347656 2.953125 4.078125 2.953125 C 4.816406 2.953125 5.414062 2.6875 5.875 2.15625 C 6.332031 1.632812 6.5625 1.0625 6.5625 0.4375 C 6.5625 0.164062 4.460938 -5.175781 0.265625 -15.59375 L 3.78125 -15.59375 L 8.4375 -4.109375 L 13.109375 -15.59375 L 16.625 -15.59375 L 9.0625 2.9375 C 8.613281 3.945312 7.96875 4.742188 7.125 5.328125 C 6.28125 5.921875 5.351562 6.21875 4.34375 6.21875 Z M 4.34375 6.21875 "/></g></g></g><g fill="#5389a3" fill-opacity="1"><g transform="translate(406.560704, 390.844497)"><g/></g></g><g fill="#5389a3" fill-opacity="1"><g transform="translate(414.590334, 390.844497)"><g><path d="M 17.234375 -20.484375 L 17.234375 -17.234375 L 6.296875 -17.234375 L 6.296875 -11.8125 L 16.125 -11.8125 L 16.125 -8.734375 L 6.296875 -8.734375 L 6.296875 -3.25 L 17.59375 -3.25 L 17.59375 0 L 2.84375 0 L 2.84375 -20.484375 Z M 17.234375 -20.484375 "/></g></g></g><g fill="#5389a3" fill-opacity="1"><g transform="translate(433.755949, 390.844497)"><g><path d="M 5.65625 -8.4375 L 5.65625 0 L 2.375 0 L 2.375 -15.59375 L 5.65625 -15.59375 L 5.65625 -12.75 C 6.1875 -13.707031 6.914062 -14.457031 7.84375 -15 C 8.769531 -15.550781 9.769531 -15.828125 10.84375 -15.828125 C 12.601562 -15.828125 14.023438 -15.289062 15.109375 -14.21875 C 16.191406 -13.144531 16.734375 -11.59375 16.734375 -9.5625 L 16.734375 0 L 13.453125 0 L 13.453125 -8.5625 C 13.453125 -11.4375 12.257812 -12.875 9.875 -12.875 C 8.738281 -12.875 7.75 -12.492188 6.90625 -11.734375 C 6.070312 -10.984375 5.65625 -9.882812 5.65625 -8.4375 Z M 5.65625 -8.4375 "/></g></g></g><g fill="#5389a3" fill-opacity="1"><g transform="translate(452.687137, 390.844497)"><g><path d="M 8.734375 0.234375 C 6.765625 0.234375 5.046875 -0.503906 3.578125 -1.984375 C 2.109375 -3.472656 1.375 -5.425781 1.375 -7.84375 C 1.375 -10.269531 2.125 -12.207031 3.625 -13.65625 C 5.132812 -15.101562 6.929688 -15.828125 9.015625 -15.828125 C 11.097656 -15.828125 12.773438 -14.945312 14.046875 -13.1875 L 14.046875 -21.75 L 17.328125 -21.75 L 17.328125 0 L 14.046875 0 L 14.046875 -2.34375 C 12.828125 -0.625 11.054688 0.234375 8.734375 0.234375 Z M 4.65625 -7.71875 C 4.65625 -6.226562 5.132812 -5.015625 6.09375 -4.078125 C 7.050781 -3.140625 8.175781 -2.671875 9.46875 -2.671875 C 10.757812 -2.671875 11.851562 -3.144531 12.75 -4.09375 C 13.644531 -5.039062 14.09375 -6.253906 14.09375 -7.734375 C 14.09375 -9.222656 13.644531 -10.460938 12.75 -11.453125 C 11.851562 -12.453125 10.75 -12.953125 9.4375 -12.953125 C 8.125 -12.953125 7 -12.453125 6.0625 -11.453125 C 5.125 -10.460938 4.65625 -9.21875 4.65625 -7.71875 Z M 4.65625 -7.71875 "/></g></g></g><g fill="#5389a3" fill-opacity="1"><g transform="translate(472.38026, 390.844497)"><g><path d="M 6.015625 -4.125 C 6.953125 -3.175781 8.132812 -2.703125 9.5625 -2.703125 C 10.988281 -2.703125 12.164062 -3.175781 13.09375 -4.125 C 14.019531 -5.070312 14.484375 -6.296875 14.484375 -7.796875 C 14.484375 -9.296875 14.019531 -10.519531 13.09375 -11.46875 C 12.164062 -12.414062 10.988281 -12.890625 9.5625 -12.890625 C 8.132812 -12.890625 6.953125 -12.414062 6.015625 -11.46875 C 5.085938 -10.519531 4.625 -9.296875 4.625 -7.796875 C 4.625 -6.296875 5.085938 -5.070312 6.015625 -4.125 Z M 15.421875 -2.09375 C 13.859375 -0.539062 11.898438 0.234375 9.546875 0.234375 C 7.203125 0.234375 5.25 -0.539062 3.6875 -2.09375 C 2.125 -3.644531 1.34375 -5.546875 1.34375 -7.796875 C 1.34375 -10.046875 2.125 -11.945312 3.6875 -13.5 C 5.25 -15.050781 7.203125 -15.828125 9.546875 -15.828125 C 11.898438 -15.828125 13.859375 -15.050781 15.421875 -13.5 C 16.984375 -11.945312 17.765625 -10.046875 17.765625 -7.796875 C 17.765625 -5.546875 16.984375 -3.644531 15.421875 -2.09375 Z M 15.421875 -2.09375 "/></g></g></g><g fill="#5389a3" fill-opacity="1"><g transform="translate(491.487272, 390.844497)"><g><path d="M 9.296875 0.234375 C 7.117188 0.234375 5.25 -0.5 3.6875 -1.96875 C 2.125 -3.445312 1.34375 -5.378906 1.34375 -7.765625 C 1.34375 -10.148438 2.160156 -12.085938 3.796875 -13.578125 C 5.429688 -15.078125 7.421875 -15.828125 9.765625 -15.828125 C 12.109375 -15.828125 14.09375 -15.015625 15.71875 -13.390625 L 13.78125 -11.015625 C 12.425781 -12.191406 11.066406 -12.78125 9.703125 -12.78125 C 8.335938 -12.78125 7.148438 -12.320312 6.140625 -11.40625 C 5.128906 -10.5 4.625 -9.328125 4.625 -7.890625 C 4.625 -6.460938 5.125 -5.25 6.125 -4.25 C 7.125 -3.25 8.347656 -2.75 9.796875 -2.75 C 11.253906 -2.75 12.628906 -3.414062 13.921875 -4.75 L 15.859375 -2.640625 C 13.960938 -0.722656 11.773438 0.234375 9.296875 0.234375 Z M 9.296875 0.234375 "/></g></g></g><g fill="#5389a3" fill-opacity="1"><g transform="translate(508.367085, 390.844497)"><g><path d="M 10.546875 -12.515625 C 8.929688 -12.515625 7.710938 -11.984375 6.890625 -10.921875 C 6.066406 -9.867188 5.65625 -8.457031 5.65625 -6.6875 L 5.65625 0 L 2.375 0 L 2.375 -15.59375 L 5.65625 -15.59375 L 5.65625 -12.453125 C 6.1875 -13.429688 6.90625 -14.234375 7.8125 -14.859375 C 8.71875 -15.484375 9.679688 -15.804688 10.703125 -15.828125 L 10.734375 -12.515625 C 10.671875 -12.515625 10.609375 -12.515625 10.546875 -12.515625 Z M 10.546875 -12.515625 "/></g></g></g><g fill="#5389a3" fill-opacity="1"><g transform="translate(520.001268, 390.844497)"><g><path d="M 5.65625 0 L 2.375 0 L 2.375 -15.59375 L 5.65625 -15.59375 Z M 2.578125 -18.6875 C 2.171875 -19.101562 1.96875 -19.59375 1.96875 -20.15625 C 1.96875 -20.726562 2.171875 -21.21875 2.578125 -21.625 C 2.984375 -22.039062 3.46875 -22.25 4.03125 -22.25 C 4.601562 -22.25 5.09375 -22.039062 5.5 -21.625 C 5.914062 -21.21875 6.125 -20.726562 6.125 -20.15625 C 6.125 -19.59375 5.914062 -19.101562 5.5 -18.6875 C 5.09375 -18.28125 4.601562 -18.078125 4.03125 -18.078125 C 3.46875 -18.078125 2.984375 -18.28125 2.578125 -18.6875 Z M 2.578125 -18.6875 "/></g></g></g><g fill="#5389a3" fill-opacity="1"><g transform="translate(528.030914, 390.844497)"><g><path d="M 5.65625 -8.4375 L 5.65625 0 L 2.375 0 L 2.375 -15.59375 L 5.65625 -15.59375 L 5.65625 -12.75 C 6.1875 -13.707031 6.914062 -14.457031 7.84375 -15 C 8.769531 -15.550781 9.769531 -15.828125 10.84375 -15.828125 C 12.601562 -15.828125 14.023438 -15.289062 15.109375 -14.21875 C 16.191406 -13.144531 16.734375 -11.59375 16.734375 -9.5625 L 16.734375 0 L 13.453125 0 L 13.453125 -8.5625 C 13.453125 -11.4375 12.257812 -12.875 9.875 -12.875 C 8.738281 -12.875 7.75 -12.492188 6.90625 -11.734375 C 6.070312 -10.984375 5.65625 -9.882812 5.65625 -8.4375 Z M 5.65625 -8.4375 "/></g></g></g><g fill="#5389a3" fill-opacity="1"><g transform="translate(546.962085, 390.844497)"><g><path d="M 6.015625 -4.125 C 6.953125 -3.175781 8.132812 -2.703125 9.5625 -2.703125 C 10.988281 -2.703125 12.164062 -3.175781 13.09375 -4.125 C 14.019531 -5.070312 14.484375 -6.296875 14.484375 -7.796875 C 14.484375 -9.296875 14.019531 -10.519531 13.09375 -11.46875 C 12.164062 -12.414062 10.988281 -12.890625 9.5625 -12.890625 C 8.132812 -12.890625 6.953125 -12.414062 6.015625 -11.46875 C 5.085938 -10.519531 4.625 -9.296875 4.625 -7.796875 C 4.625 -6.296875 5.085938 -5.070312 6.015625 -4.125 Z M 15.421875 -2.09375 C 13.859375 -0.539062 11.898438 0.234375 9.546875 0.234375 C 7.203125 0.234375 5.25 -0.539062 3.6875 -2.09375 C 2.125 -3.644531 1.34375 -5.546875 1.34375 -7.796875 C 1.34375 -10.046875 2.125 -11.945312 3.6875 -13.5 C 5.25 -15.050781 7.203125 -15.828125 9.546875 -15.828125 C 11.898438 -15.828125 13.859375 -15.050781 15.421875 -13.5 C 16.984375 -11.945312 17.765625 -10.046875 17.765625 -7.796875 C 17.765625 -5.546875 16.984375 -3.644531 15.421875 -2.09375 Z M 15.421875 -2.09375 "/></g></g></g><g fill="#5389a3" fill-opacity="1"><g transform="translate(566.069082, 390.844497)"><g><path d="M 5.65625 0 L 2.375 0 L 2.375 -21.75 L 5.65625 -21.75 Z M 5.65625 0 "/></g></g></g><g fill="#5389a3" fill-opacity="1"><g transform="translate(574.098728, 390.844497)"><g><path d="M 6.015625 -4.125 C 6.953125 -3.175781 8.132812 -2.703125 9.5625 -2.703125 C 10.988281 -2.703125 12.164062 -3.175781 13.09375 -4.125 C 14.019531 -5.070312 14.484375 -6.296875 14.484375 -7.796875 C 14.484375 -9.296875 14.019531 -10.519531 13.09375 -11.46875 C 12.164062 -12.414062 10.988281 -12.890625 9.5625 -12.890625 C 8.132812 -12.890625 6.953125 -12.414062 6.015625 -11.46875 C 5.085938 -10.519531 4.625 -9.296875 4.625 -7.796875 C 4.625 -6.296875 5.085938 -5.070312 6.015625 -4.125 Z M 15.421875 -2.09375 C 13.859375 -0.539062 11.898438 0.234375 9.546875 0.234375 C 7.203125 0.234375 5.25 -0.539062 3.6875 -2.09375 C 2.125 -3.644531 1.34375 -5.546875 1.34375 -7.796875 C 1.34375 -10.046875 2.125 -11.945312 3.6875 -13.5 C 5.25 -15.050781 7.203125 -15.828125 9.546875 -15.828125 C 11.898438 -15.828125 13.859375 -15.050781 15.421875 -13.5 C 16.984375 -11.945312 17.765625 -10.046875 17.765625 -7.796875 C 17.765625 -5.546875 16.984375 -3.644531 15.421875 -2.09375 Z M 15.421875 -2.09375 "/></g></g></g><g fill="#5389a3" fill-opacity="1"><g transform="translate(593.205724, 390.844497)"><g><path d="M 16.796875 -15.59375 L 16.796875 -2 C 16.796875 0.757812 16.046875 2.828125 14.546875 4.203125 C 13.054688 5.578125 11.140625 6.265625 8.796875 6.265625 C 6.453125 6.265625 4.332031 5.535156 2.4375 4.078125 L 3.984375 1.578125 C 5.503906 2.734375 7.039062 3.3125 8.59375 3.3125 C 10.15625 3.3125 11.390625 2.910156 12.296875 2.109375 C 13.203125 1.304688 13.65625 0.0234375 13.65625 -1.734375 L 13.65625 -3.71875 C 13.164062 -2.800781 12.46875 -2.066406 11.5625 -1.515625 C 10.65625 -0.972656 9.632812 -0.703125 8.5 -0.703125 C 6.425781 -0.703125 4.722656 -1.425781 3.390625 -2.875 C 2.066406 -4.320312 1.40625 -6.117188 1.40625 -8.265625 C 1.40625 -10.410156 2.066406 -12.207031 3.390625 -13.65625 C 4.722656 -15.101562 6.421875 -15.828125 8.484375 -15.828125 C 10.546875 -15.828125 12.222656 -14.976562 13.515625 -13.28125 L 13.515625 -15.59375 Z M 4.625 -8.390625 C 4.625 -7.117188 5.019531 -6.015625 5.8125 -5.078125 C 6.601562 -4.148438 7.664062 -3.6875 9 -3.6875 C 10.34375 -3.6875 11.429688 -4.132812 12.265625 -5.03125 C 13.097656 -5.9375 13.515625 -7.054688 13.515625 -8.390625 C 13.515625 -9.734375 13.09375 -10.867188 12.25 -11.796875 C 11.414062 -12.722656 10.332031 -13.1875 9 -13.1875 C 7.664062 -13.1875 6.601562 -12.707031 5.8125 -11.75 C 5.019531 -10.789062 4.625 -9.671875 4.625 -8.390625 Z M 4.625 -8.390625 "/></g></g></g><g fill="#5389a3" fill-opacity="1"><g transform="translate(612.37134, 390.844497)"><g><path d="M 5.5625 -17.59375 L 2.8125 -17.59375 L 5.921875 -21.6875 L 9.140625 -20.25 Z M 2.375 -15.59375 L 5.65625 -15.59375 L 5.65625 0 L 2.375 0 Z M 2.375 -15.59375 "/></g></g></g><g fill="#5389a3" fill-opacity="1"><g transform="translate(620.400985, 390.844497)"><g><path d="M 15.015625 0 L 12.015625 0 L 12.015625 -2.078125 C 10.722656 -0.535156 8.992188 0.234375 6.828125 0.234375 C 5.203125 0.234375 3.859375 -0.222656 2.796875 -1.140625 C 1.734375 -2.054688 1.203125 -3.28125 1.203125 -4.8125 C 1.203125 -6.351562 1.769531 -7.503906 2.90625 -8.265625 C 4.039062 -9.023438 5.570312 -9.40625 7.5 -9.40625 L 11.75 -9.40625 L 11.75 -10 C 11.75 -12.070312 10.597656 -13.109375 8.296875 -13.109375 C 6.847656 -13.109375 5.34375 -12.578125 3.78125 -11.515625 L 2.3125 -13.578125 C 4.207031 -15.078125 6.359375 -15.828125 8.765625 -15.828125 C 10.597656 -15.828125 12.097656 -15.363281 13.265625 -14.4375 C 14.429688 -13.507812 15.015625 -12.046875 15.015625 -10.046875 Z M 11.71875 -5.796875 L 11.71875 -7.125 L 8.03125 -7.125 C 5.664062 -7.125 4.484375 -6.378906 4.484375 -4.890625 C 4.484375 -4.128906 4.773438 -3.546875 5.359375 -3.140625 C 5.953125 -2.742188 6.769531 -2.546875 7.8125 -2.546875 C 8.851562 -2.546875 9.765625 -2.835938 10.546875 -3.421875 C 11.328125 -4.015625 11.71875 -4.804688 11.71875 -5.796875 Z M 11.71875 -5.796875 "/></g></g></g></svg>